FontAwesome.ufo
<glyph name="glass" format="2">
  <advance width="1792"/>
  <unicode hex="F000"/>
  <note>
glass
</note>
  <outline>
    <contour>
      <point x="1699" y="1350" type="curve" smooth="yes"/>
      <point x="1699" y="1399"/>
      <point x="1637" y="1408"/>
      <point x="1600" y="1408" type="curve" smooth="yes"/>
      <point x="192" y="1408" type="line" smooth="yes"/>
      <point x="155" y="1408"/>
      <point x="93" y="1399"/>
      <point x="93" y="1350" type="curve" smooth="yes"/>
      <point x="93" y="1321"/>
      <point x="116" y="1292"/>
      <point x="136" y="1272" type="curve" smooth="yes"/>
      <point x="768" y="640" type="line"/>
      <point x="768" y="-128" type="line"/>
      <point x="448" y="-128" type="line" smooth="yes"/>
      <point x="413" y="-128"/>
      <point x="384" y="-157"/>
      <point x="384" y="-192" type="curve" smooth="yes"/>
      <point x="384" y="-227"/>
      <point x="413" y="-256"/>
      <point x="448" y="-256" type="curve" smooth="yes"/>
      <point x="1344" y="-256" type="line" smooth="yes"/>
      <point x="1379" y="-256"/>
      <point x="1408" y="-227"/>
      <point x="1408" y="-192" type="curve" smooth="yes"/>
      <point x="1408" y="-157"/>
      <point x="1379" y="-128"/>
      <point x="1344" y="-128" type="curve" smooth="yes"/>
      <point x="1024" y="-128" type="line"/>
      <point x="1024" y="640" type="line"/>
      <point x="1656" y="1272" type="line" smooth="yes"/>
      <point x="1676" y="1292"/>
      <point x="1699" y="1321"/>
    </contour>
  </outline>
</glyph>
<glyph name="music" format="2">
  <advance width="1536"/>
  <unicode hex="F001"/>
  <note>
music
</note>
  <outline>
    <contour>
      <point x="1536" y="192" type="curve" smooth="yes"/>
      <point x="1536" y="1312" type="line" smooth="yes"/>
      <point x="1536" y="1365"/>
      <point x="1493" y="1408"/>
      <point x="1440" y="1408" type="curve" smooth="yes"/>
      <point x="1430" y="1408"/>
      <point x="1421" y="1407"/>
      <point x="1412" y="1404" type="curve" smooth="yes"/>
      <point x="580" y="1148" type="line" smooth="yes"/>
      <point x="540" y="1135"/>
      <point x="512" y="1098"/>
      <point x="512" y="1056" type="curve" smooth="yes"/>
      <point x="512" y="89" type="line"/>
      <point x="452" y="116"/>
      <point x="386" y="128"/>
      <point x="320" y="128" type="curve" smooth="yes"/>
      <point x="211" y="128"/>
      <point x="0" y="77"/>
      <point x="0" y="-64" type="curve" smooth="yes"/>
      <point x="0" y="-205"/>
      <point x="211" y="-256"/>
      <point x="320" y="-256" type="curve" smooth="yes"/>
      <point x="429" y="-256"/>
      <point x="640" y="-205"/>
      <point x="640" y="-64" type="curve" smooth="yes"/>
      <point x="640" y="645" type="line"/>
      <point x="1408" y="882" type="line"/>
      <point x="1408" y="345" type="line"/>
      <point x="1348" y="372"/>
      <point x="1282" y="384"/>
      <point x="1216" y="384" type="curve" smooth="yes"/>
      <point x="1107" y="384"/>
      <point x="896" y="333"/>
      <point x="896" y="192" type="curve" smooth="yes"/>
      <point x="896" y="51"/>
      <point x="1107" y="0"/>
      <point x="1216" y="0" type="curve" smooth="yes"/>
      <point x="1325" y="0"/>
      <point x="1536" y="51"/>
    </contour>
  </outline>
</glyph>
<glyph name="search" format="2">
  <advance width="1664"/>
  <unicode hex="F002"/>
  <note>
search
</note>
  <outline>
    <contour>
      <point x="1152" y="704" type="curve" smooth="yes"/>
      <point x="1152" y="457"/>
      <point x="951" y="256"/>
      <point x="704" y="256" type="curve" smooth="yes"/>
      <point x="457" y="256"/>
      <point x="256" y="457"/>
      <point x="256" y="704" type="curve" smooth="yes"/>
      <point x="256" y="951"/>
      <point x="457" y="1152"/>
      <point x="704" y="1152" type="curve" smooth="yes"/>
      <point x="951" y="1152"/>
      <point x="1152" y="951"/>
    </contour>
    <contour>
      <point x="1664" y="-128" type="curve" smooth="yes"/>
      <point x="1664" y="-94"/>
      <point x="1650" y="-61"/>
      <point x="1627" y="-38" type="curve" smooth="yes"/>
      <point x="1284" y="305" type="line"/>
      <point x="1365" y="422"/>
      <point x="1408" y="562"/>
      <point x="1408" y="704" type="curve" smooth="yes"/>
      <point x="1408" y="1093"/>
      <point x="1093" y="1408"/>
      <point x="704" y="1408" type="curve" smooth="yes"/>
      <point x="315" y="1408"/>
      <point x="0" y="1093"/>
      <point x="0" y="704" type="curve" smooth="yes"/>
      <point x="0" y="315"/>
      <point x="315" y="0"/>
      <point x="704" y="0" type="curve" smooth="yes"/>
      <point x="846" y="0"/>
      <point x="986" y="43"/>
      <point x="1103" y="124" type="curve"/>
      <point x="1446" y="-218" type="line" smooth="yes"/>
      <point x="1469" y="-242"/>
      <point x="1502" y="-256"/>
      <point x="1536" y="-256" type="curve" smooth="yes"/>
      <point x="1606" y="-256"/>
      <point x="1664" y="-198"/>
    </contour>
  </outline>
</glyph>
<glyph name="envelope" format="2">
  <advance width="1792"/>
  <unicode hex="F003"/>
  <note>
envelope
</note>
  <outline>
    <contour>
      <point x="1664" y="32" type="line" smooth="yes"/>
      <point x="1664" y="15"/>
      <point x="1649" y="0"/>
      <point x="1632" y="0" type="curve" smooth="yes"/>
      <point x="160" y="0" type="line" smooth="yes"/>
      <point x="143" y="0"/>
      <point x="128" y="15"/>
      <point x="128" y="32" type="curve" smooth="yes"/>
      <point x="128" y="800" type="line"/>
      <point x="149" y="776"/>
      <point x="172" y="754"/>
      <point x="197" y="734" type="curve" smooth="yes"/>
      <point x="340" y="624"/>
      <point x="484" y="512"/>
      <point x="623" y="396" type="curve" smooth="yes"/>
      <point x="698" y="333"/>
      <point x="791" y="256"/>
      <point x="895" y="256" type="curve" smooth="yes"/>
      <point x="896" y="256" type="line"/>
      <point x="897" y="256" type="line" smooth="yes"/>
      <point x="1001" y="256"/>
      <point x="1094" y="333"/>
      <point x="1169" y="396" type="curve" smooth="yes"/>
      <point x="1308" y="512"/>
      <point x="1452" y="624"/>
      <point x="1595" y="734" type="curve" smooth="yes"/>
      <point x="1620" y="754"/>
      <point x="1643" y="776"/>
      <point x="1664" y="800" type="curve"/>
    </contour>
    <contour>
      <point x="1664" y="1083" type="curve" smooth="yes"/>
      <point x="1664" y="998"/>
      <point x="1582" y="887"/>
      <point x="1517" y="836" type="curve" smooth="yes"/>
      <point x="1383" y="731"/>
      <point x="1249" y="625"/>
      <point x="1116" y="519" type="curve" smooth="yes"/>
      <point x="1063" y="476"/>
      <point x="967" y="384"/>
      <point x="897" y="384" type="curve" smooth="yes"/>
      <point x="896" y="384" type="line"/>
      <point x="895" y="384" type="line" smooth="yes"/>
      <point x="825" y="384"/>
      <point x="729" y="476"/>
      <point x="676" y="519" type="curve" smooth="yes"/>
      <point x="543" y="625"/>
      <point x="409" y="731"/>
      <point x="275" y="836" type="curve" smooth="yes"/>
      <point x="185" y="907"/>
      <point x="128" y="1006"/>
      <point x="128" y="1120" type="curve" smooth="yes"/>
      <point x="128" y="1137"/>
      <point x="143" y="1152"/>
      <point x="160" y="1152" type="curve" smooth="yes"/>
      <point x="1632" y="1152" type="line" smooth="yes"/>
      <point x="1670" y="1152"/>
      <point x="1664" y="1108"/>
    </contour>
    <contour>
      <point x="1792" y="32" type="curve" smooth="yes"/>
      <point x="1792" y="1120" type="line" smooth="yes"/>
      <point x="1792" y="1208"/>
      <point x="1720" y="1280"/>
      <point x="1632" y="1280" type="curve" smooth="yes"/>
      <point x="160" y="1280" type="line" smooth="yes"/>
      <point x="72" y="1280"/>
      <point x="0" y="1208"/>
      <point x="0" y="1120" type="curve" smooth="yes"/>
      <point x="0" y="32" type="line" smooth="yes"/>
      <point x="0" y="-56"/>
      <point x="72" y="-128"/>
      <point x="160" y="-128" type="curve" smooth="yes"/>
      <point x="1632" y="-128" type="line" smooth="yes"/>
      <point x="1720" y="-128"/>
      <point x="1792" y="-56"/>
    </contour>
  </outline>
</glyph>
<glyph name="heart" format="2">
  <advance width="1792"/>
  <unicode hex="F004"/>
  <note>
heart
</note>
  <outline>
    <contour>
      <point x="896" y="-128" type="curve" smooth="yes"/>
      <point x="912" y="-128"/>
      <point x="928" y="-122"/>
      <point x="940" y="-110" type="curve" smooth="yes"/>
      <point x="1563" y="490" type="line" smooth="yes"/>
      <point x="1572" y="499"/>
      <point x="1792" y="700"/>
      <point x="1792" y="940" type="curve" smooth="yes"/>
      <point x="1792" y="1233"/>
      <point x="1613" y="1408"/>
      <point x="1314" y="1408" type="curve" smooth="yes"/>
      <point x="1139" y="1408"/>
      <point x="975" y="1270"/>
      <point x="896" y="1192" type="curve"/>
      <point x="817" y="1270"/>
      <point x="653" y="1408"/>
      <point x="478" y="1408" type="curve" smooth="yes"/>
      <point x="179" y="1408"/>
      <point x="0" y="1233"/>
      <point x="0" y="940" type="curve" smooth="yes"/>
      <point x="0" y="700"/>
      <point x="220" y="499"/>
      <point x="228" y="492" type="curve" smooth="yes"/>
      <point x="852" y="-110" type="line" smooth="yes"/>
      <point x="864" y="-122"/>
      <point x="880" y="-128"/>
    </contour>
  </outline>
</glyph>
<glyph name="star_empty" format="2">
  <advance width="1664"/>
  <unicode hex="F006"/>
  <note>
star_empty
</note>
  <outline>
    <contour>
      <point x="1443" y="829" type="line"/>
      <point x="1137" y="532" type="line"/>
      <point x="1209" y="111" type="line"/>
      <point x="832" y="310" type="line"/>
      <point x="454" y="111" type="line"/>
      <point x="527" y="532" type="line"/>
      <point x="221" y="829" type="line"/>
      <point x="643" y="891" type="line"/>
      <point x="832" y="1273" type="line"/>
      <point x="1021" y="891" type="line"/>
    </contour>
    <contour>
      <point x="1664" y="889" type="curve" smooth="yes"/>
      <point x="1664" y="919"/>
      <point x="1632" y="931"/>
      <point x="1608" y="935" type="curve" smooth="yes"/>
      <point x="1106" y="1008" type="line"/>
      <point x="881" y="1463" type="line" smooth="yes"/>
      <point x="872" y="1482"/>
      <point x="855" y="1504"/>
      <point x="832" y="1504" type="curve" smooth="yes"/>
      <point x="809" y="1504"/>
      <point x="792" y="1482"/>
      <point x="783" y="1463" type="curve" smooth="yes"/>
      <point x="558" y="1008" type="line"/>
      <point x="56" y="935" type="line" smooth="yes"/>
      <point x="31" y="931"/>
      <point x="0" y="919"/>
      <point x="0" y="889" type="curve" smooth="yes"/>
      <point x="0" y="871"/>
      <point x="13" y="854"/>
      <point x="25" y="841" type="curve" smooth="yes"/>
      <point x="389" y="487" type="line"/>
      <point x="303" y="-13" type="line" smooth="yes"/>
      <point x="302" y="-20"/>
      <point x="301" y="-26"/>
      <point x="301" y="-33" type="curve" smooth="yes"/>
      <point x="301" y="-59"/>
      <point x="314" y="-83"/>
      <point x="343" y="-83" type="curve" smooth="yes"/>
      <point x="357" y="-83"/>
      <point x="370" y="-78"/>
      <point x="383" y="-71" type="curve" smooth="yes"/>
      <point x="832" y="165" type="line"/>
      <point x="1281" y="-71" type="line" smooth="yes"/>
      <point x="1293" y="-78"/>
      <point x="1307" y="-83"/>
      <point x="1321" y="-83" type="curve" smooth="yes"/>
      <point x="1350" y="-83"/>
      <point x="1362" y="-60"/>
      <point x="1362" y="-33" type="curve" smooth="yes"/>
      <point x="1362" y="-26"/>
      <point x="1362" y="-20"/>
      <point x="1361" y="-13" type="curve" smooth="yes"/>
      <point x="1275" y="487" type="line"/>
      <point x="1638" y="841" type="line" smooth="yes"/>
      <point x="1651" y="854"/>
      <point x="1664" y="871"/>
    </contour>
  </outline>
</glyph>
<glyph name="user" format="2">
  <advance width="1280"/>
  <unicode hex="F007"/>
  <note>
user
</note>
  <outline>
    <contour>
      <point x="1280" y="137" type="curve" smooth="yes"/>
      <point x="1280" y="400"/>
      <point x="1215" y="704"/>
      <point x="953" y="704" type="curve"/>
      <point x="872" y="625"/>
      <point x="762" y="576"/>
      <point x="640" y="576" type="curve" smooth="yes"/>
      <point x="518" y="576"/>
      <point x="408" y="625"/>
      <point x="327" y="704" type="curve"/>
      <point x="65" y="704"/>
      <point x="0" y="400"/>
      <point x="0" y="137" type="curve" smooth="yes"/>
      <point x="0" y="-9"/>
      <point x="96" y="-128"/>
      <point x="213" y="-128" type="curve" smooth="yes"/>
      <point x="1067" y="-128" type="line" smooth="yes"/>
      <point x="1184" y="-128"/>
      <point x="1280" y="-9"/>
    </contour>
    <contour>
      <point x="1024" y="1024" type="curve" smooth="yes"/>
      <point x="1024" y="1236"/>
      <point x="852" y="1408"/>
      <point x="640" y="1408" type="curve" smooth="yes"/>
      <point x="428" y="1408"/>
      <point x="256" y="1236"/>
      <point x="256" y="1024" type="curve" smooth="yes"/>
      <point x="256" y="812"/>
      <point x="428" y="640"/>
      <point x="640" y="640" type="curve" smooth="yes"/>
      <point x="852" y="640"/>
      <point x="1024" y="812"/>
    </contour>
  </outline>
</glyph>
<glyph name="film" format="2">
  <advance width="1920"/>
  <unicode hex="F008"/>
  <note>
film
</note>
  <outline>
    <contour>
      <point x="384" y="-64" type="line" smooth="yes"/>
      <point x="384" y="-99"/>
      <point x="355" y="-128"/>
      <point x="320" y="-128" type="curve" smooth="yes"/>
      <point x="192" y="-128" type="line" smooth="yes"/>
      <point x="157" y="-128"/>
      <point x="128" y="-99"/>
      <point x="128" y="-64" type="curve" smooth="yes"/>
      <point x="128" y="64" type="line" smooth="yes"/>
      <point x="128" y="99"/>
      <point x="157" y="128"/>
      <point x="192" y="128" type="curve" smooth="yes"/>
      <point x="320" y="128" type="line" smooth="yes"/>
      <point x="355" y="128"/>
      <point x="384" y="99"/>
      <point x="384" y="64" type="curve" smooth="yes"/>
    </contour>
    <contour>
      <point x="384" y="320" type="line" smooth="yes"/>
      <point x="384" y="285"/>
      <point x="355" y="256"/>
      <point x="320" y="256" type="curve" smooth="yes"/>
      <point x="192" y="256" type="line" smooth="yes"/>
      <point x="157" y="256"/>
      <point x="128" y="285"/>
      <point x="128" y="320" type="curve" smooth="yes"/>
      <point x="128" y="448" type="line" smooth="yes"/>
      <point x="128" y="483"/>
      <point x="157" y="512"/>
      <point x="192" y="512" type="curve" smooth="yes"/>
      <point x="320" y="512" type="line" smooth="yes"/>
      <point x="355" y="512"/>
      <point x="384" y="483"/>
      <point x="384" y="448" type="curve" smooth="yes"/>
    </contour>
    <contour>
      <point x="384" y="704" type="line" smooth="yes"/>
      <point x="384" y="669"/>
      <point x="355" y="640"/>
      <point x="320" y="640" type="curve" smooth="yes"/>
      <point x="192" y="640" type="line" smooth="yes"/>
      <point x="157" y="640"/>
      <point x="128" y="669"/>
      <point x="128" y="704" type="curve" smooth="yes"/>
      <point x="128" y="832" type="line" smooth="yes"/>
      <point x="128" y="867"/>
      <point x="157" y="896"/>
      <point x="192" y="896" type="curve" smooth="yes"/>
      <point x="320" y="896" type="line" smooth="yes"/>
      <point x="355" y="896"/>
      <point x="384" y="867"/>
      <point x="384" y="832" type="curve" smooth="yes"/>
    </contour>
    <contour>
      <point x="1408" y="-64" type="line" smooth="yes"/>
      <point x="1408" y="-99"/>
      <point x="1379" y="-128"/>
      <point x="1344" y="-128" type="curve" smooth="yes"/>
      <point x="576" y="-128" type="line" smooth="yes"/>
      <point x="541" y="-128"/>
      <point x="512" y="-99"/>
      <point x="512" y="-64" type="curve" smooth="yes"/>
      <point x="512" y="448" type="line" smooth="yes"/>
      <point x="512" y="483"/>
      <point x="541" y="512"/>
      <point x="576" y="512" type="curve" smooth="yes"/>
      <point x="1344" y="512" type="line" smooth="yes"/>
      <point x="1379" y="512"/>
      <point x="1408" y="483"/>
      <point x="1408" y="448" type="curve" smooth="yes"/>
    </contour>
    <contour>
      <point x="384" y="1088" type="line" smooth="yes"/>
      <point x="384" y="1053"/>
      <point x="355" y="1024"/>
      <point x="320" y="1024" type="curve" smooth="yes"/>
      <point x="192" y="1024" type="line" smooth="yes"/>
      <point x="157" y="1024"/>
      <point x="128" y="1053"/>
      <point x="128" y="1088" type="curve" smooth="yes"/>
      <point x="128" y="1216" type="line" smooth="yes"/>
      <point x="128" y="1251"/>
      <point x="157" y="1280"/>
      <point x="192" y="1280" type="curve" smooth="yes"/>
      <point x="320" y="1280" type="line" smooth="yes"/>
      <point x="355" y="1280"/>
      <point x="384" y="1251"/>
      <point x="384" y="1216" type="curve" smooth="yes"/>
    </contour>
    <contour>
      <point x="1792" y="-64" type="line" smooth="yes"/>
      <point x="1792" y="-99"/>
      <point x="1763" y="-128"/>
      <point x="1728" y="-128" type="curve" smooth="yes"/>
      <point x="1600" y="-128" type="line" smooth="yes"/>
      <point x="1565" y="-128"/>
      <point x="1536" y="-99"/>
      <point x="1536" y="-64" type="curve" smooth="yes"/>
      <point x="1536" y="64" type="line" smooth="yes"/>
      <point x="1536" y="99"/>
      <point x="1565" y="128"/>
      <point x="1600" y="128" type="curve" smooth="yes"/>
      <point x="1728" y="128" type="line" smooth="yes"/>
      <point x="1763" y="128"/>
      <point x="1792" y="99"/>
      <point x="1792" y="64" type="curve" smooth="yes"/>
    </contour>
    <contour>
      <point x="1408" y="704" type="line" smooth="yes"/>
      <point x="1408" y="669"/>
      <point x="1379" y="640"/>
      <point x="1344" y="640" type="curve" smooth="yes"/>
      <point x="576" y="640" type="line" smooth="yes"/>
      <point x="541" y="640"/>
      <point x="512" y="669"/>
      <point x="512" y="704" type="curve" smooth="yes"/>
      <point x="512" y="1216" type="line" smooth="yes"/>
      <point x="512" y="1251"/>
      <point x="541" y="1280"/>
      <point x="576" y="1280" type="curve" smooth="yes"/>
      <point x="1344" y="1280" type="line" smooth="yes"/>
      <point x="1379" y="1280"/>
      <point x="1408" y="1251"/>
      <point x="1408" y="1216" type="curve" smooth="yes"/>
    </contour>
    <contour>
      <point x="1792" y="320" type="line" smooth="yes"/>
      <point x="1792" y="285"/>
      <point x="1763" y="256"/>
      <point x="1728" y="256" type="curve" smooth="yes"/>
      <point x="1600" y="256" type="line" smooth="yes"/>
      <point x="1565" y="256"/>
      <point x="1536" y="285"/>
      <point x="1536" y="320" type="curve" smooth="yes"/>
      <point x="1536" y="448" type="line" smooth="yes"/>
      <point x="1536" y="483"/>
      <point x="1565" y="512"/>
      <point x="1600" y="512" type="curve" smooth="yes"/>
      <point x="1728" y="512" type="line" smooth="yes"/>
      <point x="1763" y="512"/>
      <point x="1792" y="483"/>
      <point x="1792" y="448" type="curve" smooth="yes"/>
    </contour>
    <contour>
      <point x="1792" y="704" type="line" smooth="yes"/>
      <point x="1792" y="669"/>
      <point x="1763" y="640"/>
      <point x="1728" y="640" type="curve" smooth="yes"/>
      <point x="1600" y="640" type="line" smooth="yes"/>
      <point x="1565" y="640"/>
      <point x="1536" y="669"/>
      <point x="1536" y="704" type="curve" smooth="yes"/>
      <point x="1536" y="832" type="line" smooth="yes"/>
      <point x="1536" y="867"/>
      <point x="1565" y="896"/>
      <point x="1600" y="896" type="curve" smooth="yes"/>
      <point x="1728" y="896" type="line" smooth="yes"/>
      <point x="1763" y="896"/>
      <point x="1792" y="867"/>
      <point x="1792" y="832" type="curve" smooth="yes"/>
    </contour>
    <contour>
      <point x="1792" y="1088" type="line" smooth="yes"/>
      <point x="1792" y="1053"/>
      <point x="1763" y="1024"/>
      <point x="1728" y="1024" type="curve" smooth="yes"/>
      <point x="1600" y="1024" type="line" smooth="yes"/>
      <point x="1565" y="1024"/>
      <point x="1536" y="1053"/>
      <point x="1536" y="1088" type="curve" smooth="yes"/>
      <point x="1536" y="1216" type="line" smooth="yes"/>
      <point x="1536" y="1251"/>
      <point x="1565" y="1280"/>
      <point x="1600" y="1280" type="curve" smooth="yes"/>
      <point x="1728" y="1280" type="line" smooth="yes"/>
      <point x="1763" y="1280"/>
      <point x="1792" y="1251"/>
      <point x="1792" y="1216" type="curve" smooth="yes"/>
    </contour>
    <contour>
      <point x="1920" y="-96" type="curve" smooth="yes"/>
      <point x="1920" y="1248" type="line" smooth="yes"/>
      <point x="1920" y="1336"/>
      <point x="1848" y="1408"/>
      <point x="1760" y="1408" type="curve" smooth="yes"/>
      <point x="160" y="1408" type="line" smooth="yes"/>
      <point x="72" y="1408"/>
      <point x="0" y="1336"/>
      <point x="0" y="1248" type="curve" smooth="yes"/>
      <point x="0" y="-96" type="line" smooth="yes"/>
      <point x="0" y="-184"/>
      <point x="72" y="-256"/>
      <point x="160" y="-256" type="curve" smooth="yes"/>
      <point x="1760" y="-256" type="line" smooth="yes"/>
      <point x="1848" y="-256"/>
      <point x="1920" y="-184"/>
    </contour>
  </outline>
</glyph>
<glyph name="th_large" format="2">
  <advance width="1664"/>
  <unicode hex="F009"/>
  <note>
th_large
</note>
  <outline>
    <contour>
      <point x="768" y="128" type="curve" smooth="yes"/>
      <point x="768" y="512" type="line" smooth="yes"/>
      <point x="768" y="582"/>
      <point x="710" y="640"/>
      <point x="640" y="640" type="curve" smooth="yes"/>
      <point x="128" y="640" type="line" smooth="yes"/>
      <point x="58" y="640"/>
      <point x="0" y="582"/>
      <point x="0" y="512" type="curve" smooth="yes"/>
      <point x="0" y="128" type="line" smooth="yes"/>
      <point x="0" y="58"/>
      <point x="58" y="0"/>
      <point x="128" y="0" type="curve" smooth="yes"/>
      <point x="640" y="0" type="line" smooth="yes"/>
      <point x="710" y="0"/>
      <point x="768" y="58"/>
    </contour>
    <contour>
      <point x="768" y="896" type="curve" smooth="yes"/>
      <point x="768" y="1280" type="line" smooth="yes"/>
      <point x="768" y="1350"/>
      <point x="710" y="1408"/>
      <point x="640" y="1408" type="curve" smooth="yes"/>
      <point x="128" y="1408" type="line" smooth="yes"/>
      <point x="58" y="1408"/>
      <point x="0" y="1350"/>
      <point x="0" y="1280" type="curve" smooth="yes"/>
      <point x="0" y="896" type="line" smooth="yes"/>
      <point x="0" y="826"/>
      <point x="58" y="768"/>
      <point x="128" y="768" type="curve" smooth="yes"/>
      <point x="640" y="768" type="line" smooth="yes"/>
      <point x="710" y="768"/>
      <point x="768" y="826"/>
    </contour>
    <contour>
      <point x="1664" y="128" type="curve" smooth="yes"/>
      <point x="1664" y="512" type="line" smooth="yes"/>
      <point x="1664" y="582"/>
      <point x="1606" y="640"/>
      <point x="1536" y="640" type="curve" smooth="yes"/>
      <point x="1024" y="640" type="line" smooth="yes"/>
      <point x="954" y="640"/>
      <point x="896" y="582"/>
      <point x="896" y="512" type="curve" smooth="yes"/>
      <point x="896" y="128" type="line" smooth="yes"/>
      <point x="896" y="58"/>
      <point x="954" y="0"/>
      <point x="1024" y="0" type="curve" smooth="yes"/>
      <point x="1536" y="0" type="line" smooth="yes"/>
      <point x="1606" y="0"/>
      <point x="1664" y="58"/>
    </contour>
    <contour>
      <point x="1664" y="896" type="curve" smooth="yes"/>
      <point x="1664" y="1280" type="line" smooth="yes"/>
      <point x="1664" y="1350"/>
      <point x="1606" y="1408"/>
      <point x="1536" y="1408" type="curve" smooth="yes"/>
      <point x="1024" y="1408" type="line" smooth="yes"/>
      <point x="954" y="1408"/>
      <point x="896" y="1350"/>
      <point x="896" y="1280" type="curve" smooth="yes"/>
      <point x="896" y="896" type="line" smooth="yes"/>
      <point x="896" y="826"/>
      <point x="954" y="768"/>
      <point x="1024" y="768" type="curve" smooth="yes"/>
      <point x="1536" y="768" type="line" smooth="yes"/>
      <point x="1606" y="768"/>
      <point x="1664" y="826"/>
    </contour>
  </outline>
</glyph>
<glyph name="th_list" format="2">
  <advance width="1792"/>
  <unicode hex="F00B"/>
  <note>
th_list
</note>
  <outline>
    <contour>
      <point x="512" y="96" type="curve" smooth="yes"/>
      <point x="512" y="288" type="line" smooth="yes"/>
      <point x="512" y="341"/>
      <point x="469" y="384"/>
      <point x="416" y="384" type="curve" smooth="yes"/>
      <point x="96" y="384" type="line" smooth="yes"/>
      <point x="43" y="384"/>
      <point x="0" y="341"/>
      <point x="0" y="288" type="curve" smooth="yes"/>
      <point x="0" y="96" type="line" smooth="yes"/>
      <point x="0" y="43"/>
      <point x="43" y="0"/>
      <point x="96" y="0" type="curve" smooth="yes"/>
      <point x="416" y="0" type="line" smooth="yes"/>
      <point x="469" y="0"/>
      <point x="512" y="43"/>
    </contour>
    <contour>
      <point x="512" y="608" type="curve" smooth="yes"/>
      <point x="512" y="800" type="line" smooth="yes"/>
      <point x="512" y="853"/>
      <point x="469" y="896"/>
      <point x="416" y="896" type="curve" smooth="yes"/>
      <point x="96" y="896" type="line" smooth="yes"/>
      <point x="43" y="896"/>
      <point x="0" y="853"/>
      <point x="0" y="800" type="curve" smooth="yes"/>
      <point x="0" y="608" type="line" smooth="yes"/>
      <point x="0" y="555"/>
      <point x="43" y="512"/>
      <point x="96" y="512" type="curve" smooth="yes"/>
      <point x="416" y="512" type="line" smooth="yes"/>
      <point x="469" y="512"/>
      <point x="512" y="555"/>
    </contour>
    <contour>
      <point x="1792" y="96" type="curve" smooth="yes"/>
      <point x="1792" y="288" type="line" smooth="yes"/>
      <point x="1792" y="341"/>
      <point x="1749" y="384"/>
      <point x="1696" y="384" type="curve" smooth="yes"/>
      <point x="736" y="384" type="line" smooth="yes"/>
      <point x="683" y="384"/>
      <point x="640" y="341"/>
      <point x="640" y="288" type="curve" smooth="yes"/>
      <point x="640" y="96" type="line" smooth="yes"/>
      <point x="640" y="43"/>
      <point x="683" y="0"/>
      <point x="736" y="0" type="curve" smooth="yes"/>
      <point x="1696" y="0" type="line" smooth="yes"/>
      <point x="1749" y="0"/>
      <point x="1792" y="43"/>
    </contour>
    <contour>
      <point x="512" y="1120" type="curve" smooth="yes"/>
      <point x="512" y="1312" type="line" smooth="yes"/>
      <point x="512" y="1365"/>
      <point x="469" y="1408"/>
      <point x="416" y="1408" type="curve" smooth="yes"/>
      <point x="96" y="1408" type="line" smooth="yes"/>
      <point x="43" y="1408"/>
      <point x="0" y="1365"/>
      <point x="0" y="1312" type="curve" smooth="yes"/>
      <point x="0" y="1120" type="line" smooth="yes"/>
      <point x="0" y="1067"/>
      <point x="43" y="1024"/>
      <point x="96" y="1024" type="curve" smooth="yes"/>
      <point x="416" y="1024" type="line" smooth="yes"/>
      <point x="469" y="1024"/>
      <point x="512" y="1067"/>
    </contour>
    <contour>
      <point x="1792" y="608" type="curve" smooth="yes"/>
      <point x="1792" y="800" type="line" smooth="yes"/>
      <point x="1792" y="853"/>
      <point x="1749" y="896"/>
      <point x="1696" y="896" type="curve" smooth="yes"/>
      <point x="736" y="896" type="line" smooth="yes"/>
      <point x="683" y="896"/>
      <point x="640" y="853"/>
      <point x="640" y="800" type="curve" smooth="yes"/>
      <point x="640" y="608" type="line" smooth="yes"/>
      <point x="640" y="555"/>
      <point x="683" y="512"/>
      <point x="736" y="512" type="curve" smooth="yes"/>
      <point x="1696" y="512" type="line" smooth="yes"/>
      <point x="1749" y="512"/>
      <point x="1792" y="555"/>
    </contour>
    <contour>
      <point x="1792" y="1120" type="curve" smooth="yes"/>
      <point x="1792" y="1312" type="line" smooth="yes"/>
      <point x="1792" y="1365"/>
      <point x="1749" y="1408"/>
      <point x="1696" y="1408" type="curve" smooth="yes"/>
      <point x="736" y="1408" type="line" smooth="yes"/>
      <point x="683" y="1408"/>
      <point x="640" y="1365"/>
      <point x="640" y="1312" type="curve" smooth="yes"/>
      <point x="640" y="1120" type="line" smooth="yes"/>
      <point x="640" y="1067"/>
      <point x="683" y="1024"/>
      <point x="736" y="1024" type="curve" smooth="yes"/>
      <point x="1696" y="1024" type="line" smooth="yes"/>
      <point x="1749" y="1024"/>
      <point x="1792" y="1067"/>
    </contour>
  </outline>
</glyph>
<glyph name="ok" format="2">
  <advance width="1792"/>
  <unicode hex="F00C"/>
  <note>
ok
</note>
  <outline>
    <contour>
      <point x="1671" y="970" type="curve" smooth="yes"/>
      <point x="1671" y="995"/>
      <point x="1661" y="1020"/>
      <point x="1643" y="1038" type="curve" smooth="yes"/>
      <point x="1507" y="1174" type="line" smooth="yes"/>
      <point x="1489" y="1192"/>
      <point x="1464" y="1202"/>
      <point x="1439" y="1202" type="curve" smooth="yes"/>
      <point x="1414" y="1202"/>
      <point x="1389" y="1192"/>
      <point x="1371" y="1174" type="curve" smooth="yes"/>
      <point x="715" y="517" type="line"/>
      <point x="421" y="812" type="line" smooth="yes"/>
      <point x="403" y="830"/>
      <point x="378" y="840"/>
      <point x="353" y="840" type="curve" smooth="yes"/>
      <point x="328" y="840"/>
      <point x="303" y="830"/>
      <point x="285" y="812" type="curve" smooth="yes"/>
      <point x="149" y="676" type="line" smooth="yes"/>
      <point x="131" y="658"/>
      <point x="121" y="633"/>
      <point x="121" y="608" type="curve" smooth="yes"/>
      <point x="121" y="583"/>
      <point x="131" y="558"/>
      <point x="149" y="540" type="curve" smooth="yes"/>
      <point x="511" y="178" type="line"/>
      <point x="647" y="42" type="line" smooth="yes"/>
      <point x="665" y="24"/>
      <point x="690" y="14"/>
      <point x="715" y="14" type="curve" smooth="yes"/>
      <point x="740" y="14"/>
      <point x="765" y="24"/>
      <point x="783" y="42" type="curve" smooth="yes"/>
      <point x="919" y="178" type="line"/>
      <point x="1643" y="902" type="line" smooth="yes"/>
      <point x="1661" y="920"/>
      <point x="1671" y="945"/>
    </contour>
  </outline>
</glyph>
<glyph name="remove" format="2">
  <advance width="1408"/>
  <unicode hex="F00D"/>
  <note>
remove
</note>
  <outline>
    <contour>
      <point x="1298" y="214" type="curve" smooth="yes"/>
      <point x="1298" y="239"/>
      <point x="1288" y="264"/>
      <point x="1270" y="282" type="curve" smooth="yes"/>
      <point x="976" y="576" type="line"/>
      <point x="1270" y="870" type="line" smooth="yes"/>
      <point x="1288" y="888"/>
      <point x="1298" y="913"/>
      <point x="1298" y="938" type="curve" smooth="yes"/>
      <point x="1298" y="963"/>
      <point x="1288" y="988"/>
      <point x="1270" y="1006" type="curve" smooth="yes"/>
      <point x="1134" y="1142" type="line" smooth="yes"/>
      <point x="1116" y="1160"/>
      <point x="1091" y="1170"/>
      <point x="1066" y="1170" type="curve" smooth="yes"/>
      <point x="1041" y="1170"/>
      <point x="1016" y="1160"/>
      <point x="998" y="1142" type="curve" smooth="yes"/>
      <point x="704" y="848" type="line"/>
      <point x="410" y="1142" type="line" smooth="yes"/>
      <point x="392" y="1160"/>
      <point x="367" y="1170"/>
      <point x="342" y="1170" type="curve" smooth="yes"/>
      <point x="317" y="1170"/>
      <point x="292" y="1160"/>
      <point x="274" y="1142" type="curve" smooth="yes"/>
      <point x="138" y="1006" type="line" smooth="yes"/>
      <point x="120" y="988"/>
      <point x="110" y="963"/>
      <point x="110" y="938" type="curve" smooth="yes"/>
      <point x="110" y="913"/>
      <point x="120" y="888"/>
      <point x="138" y="870" type="curve" smooth="yes"/>
      <point x="432" y="576" type="line"/>
      <point x="138" y="282" type="line" smooth="yes"/>
      <point x="120" y="264"/>
      <point x="110" y="239"/>
      <point x="110" y="214" type="curve" smooth="yes"/>
      <point x="110" y="189"/>
      <point x="120" y="164"/>
      <point x="138" y="146" type="curve" smooth="yes"/>
      <point x="274" y="10" type="line" smooth="yes"/>
      <point x="292" y="-8"/>
      <point x="317" y="-18"/>
      <point x="342" y="-18" type="curve" smooth="yes"/>
      <point x="367" y="-18"/>
      <point x="392" y="-8"/>
      <point x="410" y="10" type="curve" smooth="yes"/>
      <point x="704" y="304" type="line"/>
      <point x="998" y="10" type="line" smooth="yes"/>
      <point x="1016" y="-8"/>
      <point x="1041" y="-18"/>
      <point x="1066" y="-18" type="curve" smooth="yes"/>
      <point x="1091" y="-18"/>
      <point x="1116" y="-8"/>
      <point x="1134" y="10" type="curve" smooth="yes"/>
      <point x="1270" y="146" type="line" smooth="yes"/>
      <point x="1288" y="164"/>
      <point x="1298" y="189"/>
    </contour>
  </outline>
</glyph>
<glyph name="zoom_in" format="2">
  <advance width="1664"/>
  <unicode hex="F00E"/>
  <note>
zoom_in
</note>
  <outline>
    <contour>
      <point x="1024" y="672" type="curve" smooth="yes"/>
      <point x="1024" y="736" type="line" smooth="yes"/>
      <point x="1024" y="753"/>
      <point x="1009" y="768"/>
      <point x="992" y="768" type="curve" smooth="yes"/>
      <point x="768" y="768" type="line"/>
      <point x="768" y="992" type="line" smooth="yes"/>
      <point x="768" y="1009"/>
      <point x="753" y="1024"/>
      <point x="736" y="1024" type="curve" smooth="yes"/>
      <point x="672" y="1024" type="line" smooth="yes"/>
      <point x="655" y="1024"/>
      <point x="640" y="1009"/>
      <point x="640" y="992" type="curve" smooth="yes"/>
      <point x="640" y="768" type="line"/>
      <point x="416" y="768" type="line" smooth="yes"/>
      <point x="399" y="768"/>
      <point x="384" y="753"/>
      <point x="384" y="736" type="curve" smooth="yes"/>
      <point x="384" y="672" type="line" smooth="yes"/>
      <point x="384" y="655"/>
      <point x="399" y="640"/>
      <point x="416" y="640" type="curve" smooth="yes"/>
      <point x="640" y="640" type="line"/>
      <point x="640" y="416" type="line" smooth="yes"/>
      <point x="640" y="399"/>
      <point x="655" y="384"/>
      <point x="672" y="384" type="curve" smooth="yes"/>
      <point x="736" y="384" type="line" smooth="yes"/>
      <point x="753" y="384"/>
      <point x="768" y="399"/>
      <point x="768" y="416" type="curve" smooth="yes"/>
      <point x="768" y="640" type="line"/>
      <point x="992" y="640" type="line" smooth="yes"/>
      <point x="1009" y="640"/>
      <point x="1024" y="655"/>
    </contour>
    <contour>
      <point x="1152" y="704" type="curve" smooth="yes"/>
      <point x="1152" y="457"/>
      <point x="951" y="256"/>
      <point x="704" y="256" type="curve" smooth="yes"/>
      <point x="457" y="256"/>
      <point x="256" y="457"/>
      <point x="256" y="704" type="curve" smooth="yes"/>
      <point x="256" y="951"/>
      <point x="457" y="1152"/>
      <point x="704" y="1152" type="curve" smooth="yes"/>
      <point x="951" y="1152"/>
      <point x="1152" y="951"/>
    </contour>
    <contour>
      <point x="1664" y="-128" type="curve" smooth="yes"/>
      <point x="1664" y="-94"/>
      <point x="1650" y="-61"/>
      <point x="1627" y="-38" type="curve" smooth="yes"/>
      <point x="1284" y="305" type="line"/>
      <point x="1365" y="422"/>
      <point x="1408" y="562"/>
      <point x="1408" y="704" type="curve" smooth="yes"/>
      <point x="1408" y="1093"/>
      <point x="1093" y="1408"/>
      <point x="704" y="1408" type="curve" smooth="yes"/>
      <point x="315" y="1408"/>
      <point x="0" y="1093"/>
      <point x="0" y="704" type="curve" smooth="yes"/>
      <point x="0" y="315"/>
      <point x="315" y="0"/>
      <point x="704" y="0" type="curve" smooth="yes"/>
      <point x="846" y="0"/>
      <point x="986" y="43"/>
      <point x="1103" y="124" type="curve"/>
      <point x="1446" y="-218" type="line" smooth="yes"/>
      <point x="1469" y="-242"/>
      <point x="1502" y="-256"/>
      <point x="1536" y="-256" type="curve" smooth="yes"/>
      <point x="1607" y="-256"/>
      <point x="1664" y="-199"/>
    </contour>
  </outline>
</glyph>
<glyph name="off" format="2">
  <advance width="1536"/>
  <unicode hex="F011"/>
  <note>
off
</note>
  <outline>
    <contour>
      <point x="1536" y="640" type="curve" smooth="yes"/>
      <point x="1536" y="883"/>
      <point x="1424" y="1107"/>
      <point x="1229" y="1253" type="curve" smooth="yes"/>
      <point x="1173" y="1296"/>
      <point x="1092" y="1285"/>
      <point x="1050" y="1228" type="curve" smooth="yes"/>
      <point x="1007" y="1172"/>
      <point x="1019" y="1091"/>
      <point x="1075" y="1049" type="curve" smooth="yes"/>
      <point x="1205" y="951"/>
      <point x="1280" y="802"/>
      <point x="1280" y="640" type="curve" smooth="yes"/>
      <point x="1280" y="358"/>
      <point x="1050" y="128"/>
      <point x="768" y="128" type="curve" smooth="yes"/>
      <point x="486" y="128"/>
      <point x="256" y="358"/>
      <point x="256" y="640" type="curve" smooth="yes"/>
      <point x="256" y="802"/>
      <point x="331" y="951"/>
      <point x="461" y="1049" type="curve" smooth="yes"/>
      <point x="517" y="1091"/>
      <point x="529" y="1172"/>
      <point x="486" y="1228" type="curve" smooth="yes"/>
      <point x="444" y="1285"/>
      <point x="364" y="1296"/>
      <point x="307" y="1253" type="curve" smooth="yes"/>
      <point x="112" y="1107"/>
      <point x="0" y="883"/>
      <point x="0" y="640" type="curve" smooth="yes"/>
      <point x="0" y="217"/>
      <point x="345" y="-128"/>
      <point x="768" y="-128" type="curve" smooth="yes"/>
      <point x="1191" y="-128"/>
      <point x="1536" y="217"/>
    </contour>
    <contour>
      <point x="896" y="768" type="curve" smooth="yes"/>
      <point x="896" y="1408" type="line" smooth="yes"/>
      <point x="896" y="1478"/>
      <point x="838" y="1536"/>
      <point x="768" y="1536" type="curve" smooth="yes"/>
      <point x="698" y="1536"/>
      <point x="640" y="1478"/>
      <point x="640" y="1408" type="curve" smooth="yes"/>
      <point x="640" y="768" type="line" smooth="yes"/>
      <point x="640" y="698"/>
      <point x="698" y="640"/>
      <point x="768" y="640" type="curve" smooth="yes"/>
      <point x="838" y="640"/>
      <point x="896" y="698"/>
    </contour>
  </outline>
</glyph>
<glyph name="signal" format="2">
  <advance width="1792"/>
  <unicode hex="F012"/>
  <note>
signal
</note>
  <outline>
    <contour>
      <point x="256" y="-96" type="curve" smooth="yes"/>
      <point x="256" y="96" type="line" smooth="yes"/>
      <point x="256" y="114"/>
      <point x="242" y="128"/>
      <point x="224" y="128" type="curve" smooth="yes"/>
      <point x="32" y="128" type="line" smooth="yes"/>
      <point x="14" y="128"/>
      <point x="0" y="114"/>
      <point x="0" y="96" type="curve" smooth="yes"/>
      <point x="0" y="-96" type="line" smooth="yes"/>
      <point x="0" y="-114"/>
      <point x="14" y="-128"/>
      <point x="32" y="-128" type="curve" smooth="yes"/>
      <point x="224" y="-128" type="line" smooth="yes"/>
      <point x="242" y="-128"/>
      <point x="256" y="-114"/>
    </contour>
    <contour>
      <point x="640" y="-96" type="curve" smooth="yes"/>
      <point x="640" y="224" type="line" smooth="yes"/>
      <point x="640" y="242"/>
      <point x="626" y="256"/>
      <point x="608" y="256" type="curve" smooth="yes"/>
      <point x="416" y="256" type="line" smooth="yes"/>
      <point x="398" y="256"/>
      <point x="384" y="242"/>
      <point x="384" y="224" type="curve" smooth="yes"/>
      <point x="384" y="-96" type="line" smooth="yes"/>
      <point x="384" y="-114"/>
      <point x="398" y="-128"/>
      <point x="416" y="-128" type="curve" smooth="yes"/>
      <point x="608" y="-128" type="line" smooth="yes"/>
      <point x="626" y="-128"/>
      <point x="640" y="-114"/>
    </contour>
    <contour>
      <point x="1024" y="-96" type="curve" smooth="yes"/>
      <point x="1024" y="480" type="line" smooth="yes"/>
      <point x="1024" y="498"/>
      <point x="1010" y="512"/>
      <point x="992" y="512" type="curve" smooth="yes"/>
      <point x="800" y="512" type="line" smooth="yes"/>
      <point x="782" y="512"/>
      <point x="768" y="498"/>
      <point x="768" y="480" type="curve" smooth="yes"/>
      <point x="768" y="-96" type="line" smooth="yes"/>
      <point x="768" y="-114"/>
      <point x="782" y="-128"/>
      <point x="800" y="-128" type="curve" smooth="yes"/>
      <point x="992" y="-128" type="line" smooth="yes"/>
      <point x="1010" y="-128"/>
      <point x="1024" y="-114"/>
    </contour>
    <contour>
      <point x="1408" y="-96" type="curve" smooth="yes"/>
      <point x="1408" y="864" type="line" smooth="yes"/>
      <point x="1408" y="882"/>
      <point x="1394" y="896"/>
      <point x="1376" y="896" type="curve" smooth="yes"/>
      <point x="1184" y="896" type="line" smooth="yes"/>
      <point x="1166" y="896"/>
      <point x="1152" y="882"/>
      <point x="1152" y="864" type="curve" smooth="yes"/>
      <point x="1152" y="-96" type="line" smooth="yes"/>
      <point x="1152" y="-114"/>
      <point x="1166" y="-128"/>
      <point x="1184" y="-128" type="curve" smooth="yes"/>
      <point x="1376" y="-128" type="line" smooth="yes"/>
      <point x="1394" y="-128"/>
      <point x="1408" y="-114"/>
    </contour>
    <contour>
      <point x="1792" y="-96" type="curve" smooth="yes"/>
      <point x="1792" y="1376" type="line" smooth="yes"/>
      <point x="1792" y="1394"/>
      <point x="1778" y="1408"/>
      <point x="1760" y="1408" type="curve" smooth="yes"/>
      <point x="1568" y="1408" type="line" smooth="yes"/>
      <point x="1550" y="1408"/>
      <point x="1536" y="1394"/>
      <point x="1536" y="1376" type="curve" smooth="yes"/>
      <point x="1536" y="-96" type="line" smooth="yes"/>
      <point x="1536" y="-114"/>
      <point x="1550" y="-128"/>
      <point x="1568" y="-128" type="curve" smooth="yes"/>
      <point x="1760" y="-128" type="line" smooth="yes"/>
      <point x="1778" y="-128"/>
      <point x="1792" y="-114"/>
    </contour>
  </outline>
</glyph>
<glyph name="cog" format="2">
  <advance width="1536"/>
  <unicode hex="F013"/>
  <note>
cog
</note>
  <outline>
    <contour>
      <point x="1024" y="640" type="curve" smooth="yes"/>
      <point x="1024" y="499"/>
      <point x="909" y="384"/>
      <point x="768" y="384" type="curve" smooth="yes"/>
      <point x="627" y="384"/>
      <point x="512" y="499"/>
      <point x="512" y="640" type="curve" smooth="yes"/>
      <point x="512" y="781"/>
      <point x="627" y="896"/>
      <point x="768" y="896" type="curve" smooth="yes"/>
      <point x="909" y="896"/>
      <point x="1024" y="781"/>
    </contour>
    <contour>
      <point x="1536" y="527" type="curve" smooth="yes"/>
      <point x="1536" y="749" type="line" smooth="yes"/>
      <point x="1536" y="766"/>
      <point x="1524" y="782"/>
      <point x="1507" y="785" type="curve" smooth="yes"/>
      <point x="1324" y="813" type="line"/>
      <point x="1314" y="846"/>
      <point x="1300" y="879"/>
      <point x="1283" y="911" type="curve"/>
      <point x="1317" y="958"/>
      <point x="1354" y="1002"/>
      <point x="1388" y="1048" type="curve" smooth="yes"/>
      <point x="1393" y="1055"/>
      <point x="1396" y="1062"/>
      <point x="1396" y="1071" type="curve" smooth="yes"/>
      <point x="1396" y="1079"/>
      <point x="1394" y="1087"/>
      <point x="1389" y="1093" type="curve" smooth="yes"/>
      <point x="1347" y="1152"/>
      <point x="1277" y="1214"/>
      <point x="1224" y="1263" type="curve" smooth="yes"/>
      <point x="1217" y="1269"/>
      <point x="1208" y="1273"/>
      <point x="1199" y="1273" type="curve" smooth="yes"/>
      <point x="1190" y="1273"/>
      <point x="1181" y="1270"/>
      <point x="1175" y="1264" type="curve"/>
      <point x="1033" y="1157" type="line"/>
      <point x="1004" y="1172"/>
      <point x="974" y="1184"/>
      <point x="943" y="1194" type="curve"/>
      <point x="915" y="1378" type="line" smooth="yes"/>
      <point x="913" y="1395"/>
      <point x="897" y="1408"/>
      <point x="879" y="1408" type="curve" smooth="yes"/>
      <point x="657" y="1408" type="line" smooth="yes"/>
      <point x="639" y="1408"/>
      <point x="625" y="1396"/>
      <point x="621" y="1380" type="curve" smooth="yes"/>
      <point x="605" y="1320"/>
      <point x="599" y="1255"/>
      <point x="592" y="1194" type="curve"/>
      <point x="561" y="1184"/>
      <point x="530" y="1171"/>
      <point x="501" y="1156" type="curve"/>
      <point x="363" y="1263" type="line" smooth="yes"/>
      <point x="355" y="1269"/>
      <point x="346" y="1273"/>
      <point x="337" y="1273" type="curve" smooth="yes"/>
      <point x="303" y="1273"/>
      <point x="168" y="1127"/>
      <point x="144" y="1094" type="curve" smooth="yes"/>
      <point x="139" y="1087"/>
      <point x="135" y="1080"/>
      <point x="135" y="1071" type="curve" smooth="yes"/>
      <point x="135" y="1062"/>
      <point x="139" y="1054"/>
      <point x="145" y="1047" type="curve" smooth="yes"/>
      <point x="182" y="1002"/>
      <point x="218" y="957"/>
      <point x="252" y="909" type="curve"/>
      <point x="236" y="879"/>
      <point x="223" y="849"/>
      <point x="213" y="817" type="curve"/>
      <point x="27" y="789" type="line" smooth="yes"/>
      <point x="12" y="786"/>
      <point x="0" y="768"/>
      <point x="0" y="753" type="curve" smooth="yes"/>
      <point x="0" y="531" type="line" smooth="yes"/>
      <point x="0" y="514"/>
      <point x="12" y="498"/>
      <point x="29" y="495" type="curve" smooth="yes"/>
      <point x="212" y="468" type="line"/>
      <point x="222" y="434"/>
      <point x="236" y="401"/>
      <point x="253" y="369" type="curve"/>
      <point x="219" y="322"/>
      <point x="182" y="278"/>
      <point x="148" y="232" type="curve" smooth="yes"/>
      <point x="143" y="225"/>
      <point x="140" y="218"/>
      <point x="140" y="209" type="curve" smooth="yes"/>
      <point x="140" y="201"/>
      <point x="142" y="193"/>
      <point x="147" y="186" type="curve" smooth="yes"/>
      <point x="189" y="128"/>
      <point x="259" y="66"/>
      <point x="312" y="18" type="curve" smooth="yes"/>
      <point x="319" y="11"/>
      <point x="328" y="7"/>
      <point x="337" y="7" type="curve" smooth="yes"/>
      <point x="346" y="7"/>
      <point x="355" y="10"/>
      <point x="362" y="16" type="curve" smooth="yes"/>
      <point x="503" y="123" type="line"/>
      <point x="532" y="108"/>
      <point x="562" y="96"/>
      <point x="593" y="86" type="curve"/>
      <point x="621" y="-98" type="line" smooth="yes"/>
      <point x="623" y="-115"/>
      <point x="639" y="-128"/>
      <point x="657" y="-128" type="curve" smooth="yes"/>
      <point x="879" y="-128" type="line" smooth="yes"/>
      <point x="897" y="-128"/>
      <point x="911" y="-116"/>
      <point x="915" y="-100" type="curve" smooth="yes"/>
      <point x="931" y="-40"/>
      <point x="937" y="25"/>
      <point x="944" y="86" type="curve"/>
      <point x="975" y="96"/>
      <point x="1006" y="109"/>
      <point x="1035" y="124" type="curve"/>
      <point x="1173" y="16" type="line"/>
      <point x="1181" y="11"/>
      <point x="1190" y="7"/>
      <point x="1199" y="7" type="curve" smooth="yes"/>
      <point x="1233" y="7"/>
      <point x="1368" y="154"/>
      <point x="1392" y="186" type="curve" smooth="yes"/>
      <point x="1398" y="193"/>
      <point x="1401" y="200"/>
      <point x="1401" y="209" type="curve" smooth="yes"/>
      <point x="1401" y="218"/>
      <point x="1397" y="227"/>
      <point x="1391" y="234" type="curve" smooth="yes"/>
      <point x="1354" y="279"/>
      <point x="1318" y="323"/>
      <point x="1284" y="372" type="curve"/>
      <point x="1300" y="401"/>
      <point x="1312" y="431"/>
      <point x="1323" y="463" type="curve"/>
      <point x="1508" y="491" type="line" smooth="yes"/>
      <point x="1524" y="494"/>
      <point x="1536" y="512"/>
    </contour>
  </outline>
</glyph>
<glyph name="trash" format="2">
  <advance width="1408"/>
  <unicode hex="F014"/>
  <note>
trash
</note>
  <outline>
    <contour>
      <point x="512" y="224" type="curve" smooth="yes"/>
      <point x="512" y="800" type="line" smooth="yes"/>
      <point x="512" y="818"/>
      <point x="498" y="832"/>
      <point x="480" y="832" type="curve" smooth="yes"/>
      <point x="416" y="832" type="line" smooth="yes"/>
      <point x="398" y="832"/>
      <point x="384" y="818"/>
      <point x="384" y="800" type="curve" smooth="yes"/>
      <point x="384" y="224" type="line" smooth="yes"/>
      <point x="384" y="206"/>
      <point x="398" y="192"/>
      <point x="416" y="192" type="curve" smooth="yes"/>
      <point x="480" y="192" type="line" smooth="yes"/>
      <point x="498" y="192"/>
      <point x="512" y="206"/>
    </contour>
    <contour>
      <point x="768" y="224" type="curve" smooth="yes"/>
      <point x="768" y="800" type="line" smooth="yes"/>
      <point x="768" y="818"/>
      <point x="754" y="832"/>
      <point x="736" y="832" type="curve" smooth="yes"/>
      <point x="672" y="832" type="line" smooth="yes"/>
      <point x="654" y="832"/>
      <point x="640" y="818"/>
      <point x="640" y="800" type="curve" smooth="yes"/>
      <point x="640" y="224" type="line" smooth="yes"/>
      <point x="640" y="206"/>
      <point x="654" y="192"/>
      <point x="672" y="192" type="curve" smooth="yes"/>
      <point x="736" y="192" type="line" smooth="yes"/>
      <point x="754" y="192"/>
      <point x="768" y="206"/>
    </contour>
    <contour>
      <point x="1024" y="224" type="curve" smooth="yes"/>
      <point x="1024" y="800" type="line" smooth="yes"/>
      <point x="1024" y="818"/>
      <point x="1010" y="832"/>
      <point x="992" y="832" type="curve" smooth="yes"/>
      <point x="928" y="832" type="line" smooth="yes"/>
      <point x="910" y="832"/>
      <point x="896" y="818"/>
      <point x="896" y="800" type="curve" smooth="yes"/>
      <point x="896" y="224" type="line" smooth="yes"/>
      <point x="896" y="206"/>
      <point x="910" y="192"/>
      <point x="928" y="192" type="curve" smooth="yes"/>
      <point x="992" y="192" type="line" smooth="yes"/>
      <point x="1010" y="192"/>
      <point x="1024" y="206"/>
    </contour>
    <contour>
      <point x="1152" y="76" type="line" smooth="yes"/>
      <point x="1152" y="28"/>
      <point x="1125" y="0"/>
      <point x="1120" y="0" type="curve" smooth="yes"/>
      <point x="288" y="0" type="line" smooth="yes"/>
      <point x="283" y="0"/>
      <point x="256" y="28"/>
      <point x="256" y="76" type="curve" smooth="yes"/>
      <point x="256" y="1024" type="line"/>
      <point x="1152" y="1024" type="line"/>
    </contour>
    <contour>
      <point x="928" y="1152" type="line"/>
      <point x="480" y="1152" type="line"/>
      <point x="529" y="1269" type="line"/>
      <point x="532" y="1273"/>
      <point x="540" y="1279"/>
      <point x="546" y="1280" type="curve"/>
      <point x="863" y="1280" type="line"/>
      <point x="868" y="1279"/>
      <point x="877" y="1273"/>
      <point x="880" y="1269" type="curve"/>
    </contour>
    <contour>
      <point x="1408" y="1056" type="curve" smooth="yes"/>
      <point x="1408" y="1120" type="line" smooth="yes"/>
      <point x="1408" y="1138"/>
      <point x="1394" y="1152"/>
      <point x="1376" y="1152" type="curve" smooth="yes"/>
      <point x="1067" y="1152" type="line"/>
      <point x="997" y="1319" type="line" smooth="yes"/>
      <point x="977" y="1368"/>
      <point x="917" y="1408"/>
      <point x="864" y="1408" type="curve" smooth="yes"/>
      <point x="544" y="1408" type="line" smooth="yes"/>
      <point x="491" y="1408"/>
      <point x="431" y="1368"/>
      <point x="411" y="1319" type="curve" smooth="yes"/>
      <point x="341" y="1152" type="line"/>
      <point x="32" y="1152" type="line" smooth="yes"/>
      <point x="14" y="1152"/>
      <point x="0" y="1138"/>
      <point x="0" y="1120" type="curve" smooth="yes"/>
      <point x="0" y="1056" type="line" smooth="yes"/>
      <point x="0" y="1038"/>
      <point x="14" y="1024"/>
      <point x="32" y="1024" type="curve" smooth="yes"/>
      <point x="128" y="1024" type="line"/>
      <point x="128" y="72" type="line" smooth="yes"/>
      <point x="128" y="-38"/>
      <point x="200" y="-128"/>
      <point x="288" y="-128" type="curve" smooth="yes"/>
      <point x="1120" y="-128" type="line" smooth="yes"/>
      <point x="1208" y="-128"/>
      <point x="1280" y="-34"/>
      <point x="1280" y="76" type="curve" smooth="yes"/>
      <point x="1280" y="1024" type="line"/>
      <point x="1376" y="1024" type="line" smooth="yes"/>
      <point x="1394" y="1024"/>
      <point x="1408" y="1038"/>
    </contour>
  </outline>
</glyph>
<glyph name="home" format="2">
  <advance width="1664"/>
  <unicode hex="F015"/>
  <note>
home
</note>
  <outline>
    <contour>
      <point x="1408" y="64" type="curve" smooth="yes"/>
      <point x="1408" y="544" type="line" smooth="yes"/>
      <point x="1408" y="546"/>
      <point x="1408" y="548"/>
      <point x="1407" y="550" type="curve"/>
      <point x="832" y="1024" type="line"/>
      <point x="257" y="550" type="line"/>
      <point x="257" y="548"/>
      <point x="256" y="546"/>
      <point x="256" y="544" type="curve" smooth="yes"/>
      <point x="256" y="64" type="line" smooth="yes"/>
      <point x="256" y="29"/>
      <point x="285" y="0"/>
      <point x="320" y="0" type="curve" smooth="yes"/>
      <point x="704" y="0" type="line"/>
      <point x="704" y="384" type="line"/>
      <point x="960" y="384" type="line"/>
      <point x="960" y="0" type="line"/>
      <point x="1344" y="0" type="line" smooth="yes"/>
      <point x="1379" y="0"/>
      <point x="1408" y="29"/>
    </contour>
    <contour>
      <point x="1631" y="613" type="line" smooth="yes"/>
      <point x="1642" y="626"/>
      <point x="1640" y="647"/>
      <point x="1627" y="658" type="curve" smooth="yes"/>
      <point x="1408" y="840" type="line"/>
      <point x="1408" y="1248" type="line" smooth="yes"/>
      <point x="1408" y="1266"/>
      <point x="1394" y="1280"/>
      <point x="1376" y="1280" type="curve" smooth="yes"/>
      <point x="1184" y="1280" type="line" smooth="yes"/>
      <point x="1166" y="1280"/>
      <point x="1152" y="1266"/>
      <point x="1152" y="1248" type="curve" smooth="yes"/>
      <point x="1152" y="1053" type="line"/>
      <point x="908" y="1257" type="line" smooth="yes"/>
      <point x="866" y="1292"/>
      <point x="798" y="1292"/>
      <point x="756" y="1257" type="curve" smooth="yes"/>
      <point x="37" y="658" type="line" smooth="yes"/>
      <point x="24" y="647"/>
      <point x="22" y="626"/>
      <point x="33" y="613" type="curve" smooth="yes"/>
      <point x="95" y="539" type="line" smooth="yes"/>
      <point x="100" y="533"/>
      <point x="108" y="529"/>
      <point x="116" y="528" type="curve" smooth="yes"/>
      <point x="125" y="527"/>
      <point x="133" y="530"/>
      <point x="140" y="535" type="curve" smooth="yes"/>
      <point x="832" y="1112" type="line"/>
      <point x="1524" y="535" type="line" smooth="yes"/>
      <point x="1530" y="530"/>
      <point x="1537" y="528"/>
      <point x="1545" y="528" type="curve" smooth="yes"/>
      <point x="1546" y="528"/>
      <point x="1547" y="528"/>
      <point x="1548" y="528" type="curve" smooth="yes"/>
      <point x="1556" y="529"/>
      <point x="1564" y="533"/>
      <point x="1569" y="539" type="curve" smooth="yes"/>
    </contour>
  </outline>
</glyph>
<glyph name="file_alt" format="2">
  <advance width="1536"/>
  <unicode hex="F016"/>
  <note>
file_alt
</note>
  <outline>
    <contour>
      <point x="1468" y="1156" type="curve" smooth="yes"/>
      <point x="1156" y="1468" type="line" smooth="yes"/>
      <point x="1119" y="1505"/>
      <point x="1045" y="1536"/>
      <point x="992" y="1536" type="curve" smooth="yes"/>
      <point x="96" y="1536" type="line" smooth="yes"/>
      <point x="43" y="1536"/>
      <point x="0" y="1493"/>
      <point x="0" y="1440" type="curve" smooth="yes"/>
      <point x="0" y="-160" type="line" smooth="yes"/>
      <point x="0" y="-213"/>
      <point x="43" y="-256"/>
      <point x="96" y="-256" type="curve" smooth="yes"/>
      <point x="1440" y="-256" type="line" smooth="yes"/>
      <point x="1493" y="-256"/>
      <point x="1536" y="-213"/>
      <point x="1536" y="-160" type="curve" smooth="yes"/>
      <point x="1536" y="992" type="line" smooth="yes"/>
      <point x="1536" y="1045"/>
      <point x="1505" y="1119"/>
    </contour>
    <contour>
      <point x="1024" y="1024" type="line"/>
      <point x="1024" y="1400" type="line"/>
      <point x="1041" y="1394"/>
      <point x="1058" y="1385"/>
      <point x="1065" y="1378" type="curve" smooth="yes"/>
      <point x="1378" y="1065" type="line" smooth="yes"/>
      <point x="1385" y="1058"/>
      <point x="1394" y="1041"/>
      <point x="1400" y="1024" type="curve"/>
    </contour>
    <contour>
      <point x="1408" y="896" type="line"/>
      <point x="1408" y="-128" type="line"/>
      <point x="128" y="-128" type="line"/>
      <point x="128" y="1408" type="line"/>
      <point x="896" y="1408" type="line"/>
      <point x="896" y="992" type="line" smooth="yes"/>
      <point x="896" y="939"/>
      <point x="939" y="896"/>
      <point x="992" y="896" type="curve" smooth="yes"/>
    </contour>
  </outline>
</glyph>
<glyph name="time" format="2">
  <advance width="1536"/>
  <unicode hex="F017"/>
  <note>
time
</note>
  <outline>
    <contour>
      <point x="896" y="544" type="curve" smooth="yes"/>
      <point x="896" y="992" type="line" smooth="yes"/>
      <point x="896" y="1010"/>
      <point x="882" y="1024"/>
      <point x="864" y="1024" type="curve" smooth="yes"/>
      <point x="800" y="1024" type="line" smooth="yes"/>
      <point x="782" y="1024"/>
      <point x="768" y="1010"/>
      <point x="768" y="992" type="curve" smooth="yes"/>
      <point x="768" y="640" type="line"/>
      <point x="544" y="640" type="line" smooth="yes"/>
      <point x="526" y="640"/>
      <point x="512" y="626"/>
      <point x="512" y="608" type="curve" smooth="yes"/>
      <point x="512" y="544" type="line" smooth="yes"/>
      <point x="512" y="526"/>
      <point x="526" y="512"/>
      <point x="544" y="512" type="curve" smooth="yes"/>
      <point x="864" y="512" type="line" smooth="yes"/>
      <point x="882" y="512"/>
      <point x="896" y="526"/>
    </contour>
    <contour>
      <point x="1312" y="640" type="curve" smooth="yes"/>
      <point x="1312" y="340"/>
      <point x="1068" y="96"/>
      <point x="768" y="96" type="curve" smooth="yes"/>
      <point x="468" y="96"/>
      <point x="224" y="340"/>
      <point x="224" y="640" type="curve" smooth="yes"/>
      <point x="224" y="940"/>
      <point x="468" y="1184"/>
      <point x="768" y="1184" type="curve" smooth="yes"/>
      <point x="1068" y="1184"/>
      <point x="1312" y="940"/>
    </contour>
    <contour>
      <point x="1536" y="640" type="curve" smooth="yes"/>
      <point x="1536" y="1064"/>
      <point x="1192" y="1408"/>
      <point x="768" y="1408" type="curve" smooth="yes"/>
      <point x="344" y="1408"/>
      <point x="0" y="1064"/>
      <point x="0" y="640" type="curve" smooth="yes"/>
      <point x="0" y="216"/>
      <point x="344" y="-128"/>
      <point x="768" y="-128" type="curve" smooth="yes"/>
      <point x="1192" y="-128"/>
      <point x="1536" y="216"/>
    </contour>
  </outline>
</glyph>
<glyph name="road" format="2">
  <advance width="1920"/>
  <unicode hex="F018"/>
  <note>
road
</note>
  <outline>
    <contour>
      <point x="1111" y="540" type="line" smooth="yes"/>
      <point x="1112" y="524"/>
      <point x="1097" y="512"/>
      <point x="1082" y="512" type="curve" smooth="yes"/>
      <point x="838" y="512" type="line" smooth="yes"/>
      <point x="823" y="512"/>
      <point x="808" y="524"/>
      <point x="809" y="540" type="curve" smooth="yes"/>
      <point x="809" y="544" type="line"/>
      <point x="833" y="864" type="line" smooth="yes"/>
      <point x="834" y="882"/>
      <point x="850" y="896"/>
      <point x="867" y="896" type="curve" smooth="yes"/>
      <point x="1053" y="896" type="line" smooth="yes"/>
      <point x="1070" y="896"/>
      <point x="1086" y="882"/>
      <point x="1087" y="864" type="curve" smooth="yes"/>
      <point x="1111" y="544" type="line"/>
    </contour>
    <contour>
      <point x="1870" y="73" type="curve" smooth="yes"/>
      <point x="1870" y="113"/>
      <point x="1859" y="153"/>
      <point x="1844" y="189" type="curve" smooth="yes"/>
      <point x="1427" y="1233" type="line" smooth="yes"/>
      <point x="1417" y="1258"/>
      <point x="1390" y="1280"/>
      <point x="1363" y="1280" type="curve" smooth="yes"/>
      <point x="1024" y="1280" type="line" smooth="yes"/>
      <point x="1041" y="1280"/>
      <point x="1057" y="1266"/>
      <point x="1058" y="1248" type="curve" smooth="yes"/>
      <point x="1073" y="1056" type="line" smooth="yes"/>
      <point x="1074" y="1038"/>
      <point x="1061" y="1024"/>
      <point x="1043" y="1024" type="curve" smooth="yes"/>
      <point x="877" y="1024" type="line" smooth="yes"/>
      <point x="859" y="1024"/>
      <point x="846" y="1038"/>
      <point x="847" y="1056" type="curve" smooth="yes"/>
      <point x="862" y="1248" type="line" smooth="yes"/>
      <point x="863" y="1266"/>
      <point x="879" y="1280"/>
      <point x="896" y="1280" type="curve" smooth="yes"/>
      <point x="557" y="1280" type="line" smooth="yes"/>
      <point x="530" y="1280"/>
      <point x="503" y="1258"/>
      <point x="493" y="1233" type="curve" smooth="yes"/>
      <point x="76" y="189" type="line" smooth="yes"/>
      <point x="61" y="153"/>
      <point x="50" y="113"/>
      <point x="50" y="73" type="curve" smooth="yes"/>
      <point x="50" y="44"/>
      <point x="58" y="0"/>
      <point x="96" y="0" type="curve" smooth="yes"/>
      <point x="800" y="0" type="line" smooth="yes"/>
      <point x="783" y="0"/>
      <point x="769" y="14"/>
      <point x="770" y="32" type="curve" smooth="yes"/>
      <point x="790" y="288" type="line" smooth="yes"/>
      <point x="791" y="306"/>
      <point x="807" y="320"/>
      <point x="824" y="320" type="curve" smooth="yes"/>
      <point x="1096" y="320" type="line" smooth="yes"/>
      <point x="1113" y="320"/>
      <point x="1129" y="306"/>
      <point x="1130" y="288" type="curve" smooth="yes"/>
      <point x="1150" y="32" type="line" smooth="yes"/>
      <point x="1151" y="14"/>
      <point x="1137" y="0"/>
      <point x="1120" y="0" type="curve" smooth="yes"/>
      <point x="1824" y="0" type="line" smooth="yes"/>
      <point x="1862" y="0"/>
      <point x="1870" y="44"/>
    </contour>
  </outline>
</glyph>
<glyph name="download_alt" format="2">
  <advance width="1664"/>
  <unicode hex="F019"/>
  <note>
download_alt
</note>
  <outline>
    <contour>
      <point x="1280" y="192" type="curve" smooth="yes"/>
      <point x="1280" y="157"/>
      <point x="1251" y="128"/>
      <point x="1216" y="128" type="curve" smooth="yes"/>
      <point x="1181" y="128"/>
      <point x="1152" y="157"/>
      <point x="1152" y="192" type="curve" smooth="yes"/>
      <point x="1152" y="227"/>
      <point x="1181" y="256"/>
      <point x="1216" y="256" type="curve" smooth="yes"/>
      <point x="1251" y="256"/>
      <point x="1280" y="227"/>
    </contour>
    <contour>
      <point x="1536" y="192" type="curve" smooth="yes"/>
      <point x="1536" y="157"/>
      <point x="1507" y="128"/>
      <point x="1472" y="128" type="curve" smooth="yes"/>
      <point x="1437" y="128"/>
      <point x="1408" y="157"/>
      <point x="1408" y="192" type="curve" smooth="yes"/>
      <point x="1408" y="227"/>
      <point x="1437" y="256"/>
      <point x="1472" y="256" type="curve" smooth="yes"/>
      <point x="1507" y="256"/>
      <point x="1536" y="227"/>
    </contour>
    <contour>
      <point x="1664" y="96" type="curve" smooth="yes"/>
      <point x="1664" y="416" type="line" smooth="yes"/>
      <point x="1664" y="469"/>
      <point x="1621" y="512"/>
      <point x="1568" y="512" type="curve" smooth="yes"/>
      <point x="1104" y="512" type="line"/>
      <point x="968" y="376" type="line" smooth="yes"/>
      <point x="931" y="340"/>
      <point x="883" y="320"/>
      <point x="832" y="320" type="curve" smooth="yes"/>
      <point x="781" y="320"/>
      <point x="733" y="340"/>
      <point x="696" y="376" type="curve" smooth="yes"/>
      <point x="561" y="512" type="line"/>
      <point x="96" y="512" type="line" smooth="yes"/>
      <point x="43" y="512"/>
      <point x="0" y="469"/>
      <point x="0" y="416" type="curve" smooth="yes"/>
      <point x="0" y="96" type="line" smooth="yes"/>
      <point x="0" y="43"/>
      <point x="43" y="0"/>
      <point x="96" y="0" type="curve" smooth="yes"/>
      <point x="1568" y="0" type="line" smooth="yes"/>
      <point x="1621" y="0"/>
      <point x="1664" y="43"/>
    </contour>
    <contour>
      <point x="1339" y="985" type="curve" smooth="yes"/>
      <point x="1329" y="1008"/>
      <point x="1306" y="1024"/>
      <point x="1280" y="1024" type="curve" smooth="yes"/>
      <point x="1024" y="1024" type="line"/>
      <point x="1024" y="1472" type="line" smooth="yes"/>
      <point x="1024" y="1507"/>
      <point x="995" y="1536"/>
      <point x="960" y="1536" type="curve" smooth="yes"/>
      <point x="704" y="1536" type="line" smooth="yes"/>
      <point x="669" y="1536"/>
      <point x="640" y="1507"/>
      <point x="640" y="1472" type="curve" smooth="yes"/>
      <point x="640" y="1024" type="line"/>
      <point x="384" y="1024" type="line" smooth="yes"/>
      <point x="358" y="1024"/>
      <point x="335" y="1008"/>
      <point x="325" y="985" type="curve" smooth="yes"/>
      <point x="315" y="961"/>
      <point x="320" y="933"/>
      <point x="339" y="915" type="curve" smooth="yes"/>
      <point x="787" y="467" type="line" smooth="yes"/>
      <point x="799" y="454"/>
      <point x="816" y="448"/>
      <point x="832" y="448" type="curve" smooth="yes"/>
      <point x="848" y="448"/>
      <point x="865" y="454"/>
      <point x="877" y="467" type="curve" smooth="yes"/>
      <point x="1325" y="915" type="line" smooth="yes"/>
      <point x="1344" y="933"/>
      <point x="1349" y="961"/>
    </contour>
  </outline>
</glyph>
<glyph name="download" format="2">
  <advance width="1536"/>
  <unicode hex="F01A"/>
  <note>
download
</note>
  <outline>
    <contour>
      <point x="1120" y="608" type="curve" smooth="yes"/>
      <point x="1120" y="626"/>
      <point x="1106" y="640"/>
      <point x="1088" y="640" type="curve"/>
      <point x="1088" y="640" type="line"/>
      <point x="896" y="640" type="line"/>
      <point x="896" y="992" type="line" smooth="yes"/>
      <point x="896" y="1010"/>
      <point x="882" y="1024"/>
      <point x="864" y="1024" type="curve" smooth="yes"/>
      <point x="672" y="1024" type="line" smooth="yes"/>
      <point x="654" y="1024"/>
      <point x="640" y="1010"/>
      <point x="640" y="992" type="curve" smooth="yes"/>
      <point x="640" y="640" type="line"/>
      <point x="448" y="640" type="line" smooth="yes"/>
      <point x="435" y="640"/>
      <point x="423" y="632"/>
      <point x="418" y="620" type="curve" smooth="yes"/>
      <point x="413" y="608"/>
      <point x="416" y="595"/>
      <point x="425" y="585" type="curve" smooth="yes"/>
      <point x="745" y="265" type="line" smooth="yes"/>
      <point x="752" y="259"/>
      <point x="760" y="256"/>
      <point x="768" y="256" type="curve" smooth="yes"/>
      <point x="776" y="256"/>
      <point x="784" y="259"/>
      <point x="791" y="265" type="curve" smooth="yes"/>
      <point x="1110" y="584" type="line" smooth="yes"/>
      <point x="1116" y="591"/>
      <point x="1120" y="599"/>
    </contour>
    <contour>
      <point x="768" y="1184" type="curve" smooth="yes"/>
      <point x="1068" y="1184"/>
      <point x="1312" y="940"/>
      <point x="1312" y="640" type="curve" smooth="yes"/>
      <point x="1312" y="340"/>
      <point x="1068" y="96"/>
      <point x="768" y="96" type="curve" smooth="yes"/>
      <point x="468" y="96"/>
      <point x="224" y="340"/>
      <point x="224" y="640" type="curve" smooth="yes"/>
      <point x="224" y="940"/>
      <point x="468" y="1184"/>
    </contour>
    <contour>
      <point x="1536" y="640" type="curve" smooth="yes"/>
      <point x="1536" y="1064"/>
      <point x="1192" y="1408"/>
      <point x="768" y="1408" type="curve"/>
      <point x="768" y="1408" type="line"/>
      <point x="344" y="1408"/>
      <point x="0" y="1064"/>
      <point x="0" y="640" type="curve" smooth="yes"/>
      <point x="0" y="216"/>
      <point x="344" y="-128"/>
      <point x="768" y="-128" type="curve" smooth="yes"/>
      <point x="1192" y="-128"/>
      <point x="1536" y="216"/>
    </contour>
  </outline>
</glyph>
<glyph name="upload" format="2">
  <advance width="1536"/>
  <unicode hex="F01B"/>
  <note>
upload
</note>
  <outline>
    <contour>
      <point x="1118" y="660" type="curve" smooth="yes"/>
      <point x="1123" y="672"/>
      <point x="1120" y="685"/>
      <point x="1111" y="695" type="curve" smooth="yes"/>
      <point x="791" y="1015" type="line" smooth="yes"/>
      <point x="784" y="1021"/>
      <point x="776" y="1024"/>
      <point x="768" y="1024" type="curve" smooth="yes"/>
      <point x="760" y="1024"/>
      <point x="752" y="1021"/>
      <point x="745" y="1015" type="curve" smooth="yes"/>
      <point x="426" y="696" type="line" smooth="yes"/>
      <point x="420" y="689"/>
      <point x="416" y="681"/>
      <point x="416" y="672" type="curve" smooth="yes"/>
      <point x="416" y="654"/>
      <point x="430" y="640"/>
      <point x="448" y="640" type="curve"/>
      <point x="448" y="640" type="line"/>
      <point x="640" y="640" type="line"/>
      <point x="640" y="288" type="line" smooth="yes"/>
      <point x="640" y="270"/>
      <point x="654" y="256"/>
      <point x="672" y="256" type="curve" smooth="yes"/>
      <point x="864" y="256" type="line" smooth="yes"/>
      <point x="882" y="256"/>
      <point x="896" y="270"/>
      <point x="896" y="288" type="curve" smooth="yes"/>
      <point x="896" y="640" type="line"/>
      <point x="1088" y="640" type="line" smooth="yes"/>
      <point x="1101" y="640"/>
      <point x="1113" y="648"/>
    </contour>
    <contour>
      <point x="768" y="1184" type="curve" smooth="yes"/>
      <point x="1068" y="1184"/>
      <point x="1312" y="940"/>
      <point x="1312" y="640" type="curve" smooth="yes"/>
      <point x="1312" y="340"/>
      <point x="1068" y="96"/>
      <point x="768" y="96" type="curve" smooth="yes"/>
      <point x="468" y="96"/>
      <point x="224" y="340"/>
      <point x="224" y="640" type="curve" smooth="yes"/>
      <point x="224" y="940"/>
      <point x="468" y="1184"/>
    </contour>
    <contour>
      <point x="1536" y="640" type="curve" smooth="yes"/>
      <point x="1536" y="1064"/>
      <point x="1192" y="1408"/>
      <point x="768" y="1408" type="curve"/>
      <point x="768" y="1408" type="line"/>
      <point x="344" y="1408"/>
      <point x="0" y="1064"/>
      <point x="0" y="640" type="curve" smooth="yes"/>
      <point x="0" y="216"/>
      <point x="344" y="-128"/>
      <point x="768" y="-128" type="curve" smooth="yes"/>
      <point x="1192" y="-128"/>
      <point x="1536" y="216"/>
    </contour>
  </outline>
</glyph>
<glyph name="inbox" format="2">
  <advance width="1536"/>
  <unicode hex="F01C"/>
  <note>
inbox
</note>
  <outline>
    <contour>
      <point x="1339" y="576" type="curve"/>
      <point x="1023" y="576" type="line"/>
      <point x="928" y="384" type="line"/>
      <point x="608" y="384" type="line"/>
      <point x="513" y="576" type="line"/>
      <point x="197" y="576" type="line"/>
      <point x="199" y="581"/>
      <point x="200" y="587"/>
      <point x="202" y="592" type="curve" smooth="yes"/>
      <point x="414" y="1088" type="line"/>
      <point x="1122" y="1088" type="line"/>
      <point x="1334" y="592" type="line" smooth="yes"/>
      <point x="1336" y="587"/>
      <point x="1337" y="581"/>
    </contour>
    <contour>
      <point x="1536" y="64" type="curve" smooth="yes"/>
      <point x="1536" y="546" type="line" smooth="yes"/>
      <point x="1536" y="582"/>
      <point x="1525" y="635"/>
      <point x="1511" y="669" type="curve" smooth="yes"/>
      <point x="1273" y="1221" type="line" smooth="yes"/>
      <point x="1259" y="1254"/>
      <point x="1219" y="1280"/>
      <point x="1184" y="1280" type="curve" smooth="yes"/>
      <point x="352" y="1280" type="line" smooth="yes"/>
      <point x="317" y="1280"/>
      <point x="277" y="1254"/>
      <point x="263" y="1221" type="curve" smooth="yes"/>
      <point x="25" y="669" type="line" smooth="yes"/>
      <point x="11" y="635"/>
      <point x="0" y="582"/>
      <point x="0" y="546" type="curve" smooth="yes"/>
      <point x="0" y="64" type="line" smooth="yes"/>
      <point x="0" y="29"/>
      <point x="29" y="0"/>
      <point x="64" y="0" type="curve" smooth="yes"/>
      <point x="1472" y="0" type="line" smooth="yes"/>
      <point x="1507" y="0"/>
      <point x="1536" y="29"/>
    </contour>
  </outline>
</glyph>
<glyph name="play_circle" format="2">
  <advance width="1536"/>
  <unicode hex="F01D"/>
  <note>
play_circle
</note>
  <outline>
    <contour>
      <point x="1184" y="640" type="curve" smooth="yes"/>
      <point x="1184" y="663"/>
      <point x="1172" y="684"/>
      <point x="1152" y="695" type="curve" smooth="yes"/>
      <point x="608" y="1015" type="line" smooth="yes"/>
      <point x="589" y="1027"/>
      <point x="564" y="1027"/>
      <point x="544" y="1016" type="curve" smooth="yes"/>
      <point x="524" y="1004"/>
      <point x="512" y="983"/>
      <point x="512" y="960" type="curve" smooth="yes"/>
      <point x="512" y="320" type="line" smooth="yes"/>
      <point x="512" y="297"/>
      <point x="524" y="276"/>
      <point x="544" y="264" type="curve" smooth="yes"/>
      <point x="554" y="259"/>
      <point x="565" y="256"/>
      <point x="576" y="256" type="curve" smooth="yes"/>
      <point x="587" y="256"/>
      <point x="598" y="259"/>
      <point x="608" y="265" type="curve" smooth="yes"/>
      <point x="1152" y="585" type="line" smooth="yes"/>
      <point x="1172" y="596"/>
      <point x="1184" y="617"/>
    </contour>
    <contour>
      <point x="1312" y="640" type="curve" smooth="yes"/>
      <point x="1312" y="340"/>
      <point x="1068" y="96"/>
      <point x="768" y="96" type="curve" smooth="yes"/>
      <point x="468" y="96"/>
      <point x="224" y="340"/>
      <point x="224" y="640" type="curve" smooth="yes"/>
      <point x="224" y="940"/>
      <point x="468" y="1184"/>
      <point x="768" y="1184" type="curve" smooth="yes"/>
      <point x="1068" y="1184"/>
      <point x="1312" y="940"/>
    </contour>
    <contour>
      <point x="1536" y="640" type="curve" smooth="yes"/>
      <point x="1536" y="1064"/>
      <point x="1192" y="1408"/>
      <point x="768" y="1408" type="curve" smooth="yes"/>
      <point x="344" y="1408"/>
      <point x="0" y="1064"/>
      <point x="0" y="640" type="curve" smooth="yes"/>
      <point x="0" y="216"/>
      <point x="344" y="-128"/>
      <point x="768" y="-128" type="curve" smooth="yes"/>
      <point x="1192" y="-128"/>
      <point x="1536" y="216"/>
    </contour>
  </outline>
</glyph>
<glyph name="repeat" format="2">
  <advance width="1536"/>
  <unicode hex="F01E"/>
  <note>
repeat
</note>
  <outline>
    <contour>
      <point x="1536" y="832" type="curve" smooth="yes"/>
      <point x="1536" y="1280" type="line" smooth="yes"/>
      <point x="1536" y="1306"/>
      <point x="1520" y="1329"/>
      <point x="1497" y="1339" type="curve" smooth="yes"/>
      <point x="1473" y="1349"/>
      <point x="1445" y="1344"/>
      <point x="1427" y="1325" type="curve" smooth="yes"/>
      <point x="1297" y="1196" type="line"/>
      <point x="1156" y="1329"/>
      <point x="965" y="1408"/>
      <point x="768" y="1408" type="curve" smooth="yes"/>
      <point x="345" y="1408"/>
      <point x="0" y="1063"/>
      <point x="0" y="640" type="curve" smooth="yes"/>
      <point x="0" y="217"/>
      <point x="345" y="-128"/>
      <point x="768" y="-128" type="curve" smooth="yes"/>
      <point x="997" y="-128"/>
      <point x="1213" y="-27"/>
      <point x="1359" y="149" type="curve" smooth="yes"/>
      <point x="1369" y="162"/>
      <point x="1369" y="181"/>
      <point x="1357" y="192" type="curve" smooth="yes"/>
      <point x="1220" y="330" type="line" smooth="yes"/>
      <point x="1213" y="336"/>
      <point x="1204" y="339"/>
      <point x="1195" y="339" type="curve" smooth="yes"/>
      <point x="1186" y="338"/>
      <point x="1177" y="334"/>
      <point x="1172" y="327" type="curve" smooth="yes"/>
      <point x="1074" y="200"/>
      <point x="927" y="128"/>
      <point x="768" y="128" type="curve" smooth="yes"/>
      <point x="486" y="128"/>
      <point x="256" y="358"/>
      <point x="256" y="640" type="curve" smooth="yes"/>
      <point x="256" y="922"/>
      <point x="486" y="1152"/>
      <point x="768" y="1152" type="curve" smooth="yes"/>
      <point x="899" y="1152"/>
      <point x="1023" y="1102"/>
      <point x="1117" y="1015" type="curve"/>
      <point x="979" y="877" type="line" smooth="yes"/>
      <point x="960" y="859"/>
      <point x="955" y="831"/>
      <point x="965" y="808" type="curve" smooth="yes"/>
      <point x="975" y="784"/>
      <point x="998" y="768"/>
      <point x="1024" y="768" type="curve" smooth="yes"/>
      <point x="1472" y="768" type="line" smooth="yes"/>
      <point x="1507" y="768"/>
      <point x="1536" y="797"/>
    </contour>
  </outline>
</glyph>
<glyph name="refresh" format="2">
  <advance width="1536"/>
  <unicode hex="F021"/>
  <note>
refresh
</note>
  <outline>
    <contour>
      <point x="1511" y="480" type="curve" smooth="yes"/>
      <point x="1511" y="497"/>
      <point x="1497" y="512"/>
      <point x="1479" y="512" type="curve" smooth="yes"/>
      <point x="1287" y="512" type="line" smooth="yes"/>
      <point x="1272" y="512"/>
      <point x="1262" y="503"/>
      <point x="1257" y="489" type="curve" smooth="yes"/>
      <point x="1240" y="449"/>
      <point x="1228" y="411"/>
      <point x="1204" y="372" type="curve" smooth="yes"/>
      <point x="1111" y="220"/>
      <point x="946" y="128"/>
      <point x="768" y="128" type="curve" smooth="yes"/>
      <point x="639" y="128"/>
      <point x="514" y="178"/>
      <point x="420" y="266" type="curve"/>
      <point x="557" y="403" type="line" smooth="yes"/>
      <point x="569" y="415"/>
      <point x="576" y="431"/>
      <point x="576" y="448" type="curve" smooth="yes"/>
      <point x="576" y="483"/>
      <point x="547" y="512"/>
      <point x="512" y="512" type="curve" smooth="yes"/>
      <point x="64" y="512" type="line" smooth="yes"/>
      <point x="29" y="512"/>
      <point x="0" y="483"/>
      <point x="0" y="448" type="curve" smooth="yes"/>
      <point x="0" y="0" type="line" smooth="yes"/>
      <point x="0" y="-35"/>
      <point x="29" y="-64"/>
      <point x="64" y="-64" type="curve" smooth="yes"/>
      <point x="81" y="-64"/>
      <point x="97" y="-57"/>
      <point x="109" y="-45" type="curve" smooth="yes"/>
      <point x="238" y="84" type="line"/>
      <point x="380" y="-51"/>
      <point x="569" y="-128"/>
      <point x="764" y="-128" type="curve" smooth="yes"/>
      <point x="1133" y="-128"/>
      <point x="1425" y="119"/>
      <point x="1510" y="473" type="curve"/>
      <point x="1511" y="475"/>
      <point x="1511" y="478"/>
    </contour>
    <contour>
      <point x="1536" y="832" type="curve" smooth="yes"/>
      <point x="1536" y="1280" type="line" smooth="yes"/>
      <point x="1536" y="1315"/>
      <point x="1507" y="1344"/>
      <point x="1472" y="1344" type="curve" smooth="yes"/>
      <point x="1455" y="1344"/>
      <point x="1439" y="1337"/>
      <point x="1427" y="1325" type="curve" smooth="yes"/>
      <point x="1297" y="1196" type="line"/>
      <point x="1155" y="1330"/>
      <point x="964" y="1408"/>
      <point x="768" y="1408" type="curve" smooth="yes"/>
      <point x="399" y="1408"/>
      <point x="104" y="1162"/>
      <point x="18" y="807" type="curve"/>
      <point x="18" y="805"/>
      <point x="18" y="802"/>
      <point x="18" y="800" type="curve" smooth="yes"/>
      <point x="18" y="783"/>
      <point x="32" y="768"/>
      <point x="50" y="768" type="curve" smooth="yes"/>
      <point x="249" y="768" type="line" smooth="yes"/>
      <point x="264" y="768"/>
      <point x="274" y="777"/>
      <point x="279" y="791" type="curve" smooth="yes"/>
      <point x="296" y="831"/>
      <point x="308" y="869"/>
      <point x="332" y="908" type="curve" smooth="yes"/>
      <point x="425" y="1060"/>
      <point x="590" y="1152"/>
      <point x="768" y="1152" type="curve" smooth="yes"/>
      <point x="897" y="1152"/>
      <point x="1022" y="1103"/>
      <point x="1117" y="1015" type="curve"/>
      <point x="979" y="877" type="line" smooth="yes"/>
      <point x="967" y="865"/>
      <point x="960" y="849"/>
      <point x="960" y="832" type="curve" smooth="yes"/>
      <point x="960" y="797"/>
      <point x="989" y="768"/>
      <point x="1024" y="768" type="curve" smooth="yes"/>
      <point x="1472" y="768" type="line" smooth="yes"/>
      <point x="1507" y="768"/>
      <point x="1536" y="797"/>
    </contour>
  </outline>
</glyph>
<glyph name="list_alt" format="2">
  <advance width="1792"/>
  <unicode hex="F022"/>
  <note>
list_alt
</note>
  <outline>
    <contour>
      <point x="384" y="288" type="curve" smooth="yes"/>
      <point x="384" y="352" type="line" smooth="yes"/>
      <point x="384" y="369"/>
      <point x="369" y="384"/>
      <point x="352" y="384" type="curve" smooth="yes"/>
      <point x="288" y="384" type="line" smooth="yes"/>
      <point x="271" y="384"/>
      <point x="256" y="369"/>
      <point x="256" y="352" type="curve" smooth="yes"/>
      <point x="256" y="288" type="line" smooth="yes"/>
      <point x="256" y="271"/>
      <point x="271" y="256"/>
      <point x="288" y="256" type="curve" smooth="yes"/>
      <point x="352" y="256" type="line" smooth="yes"/>
      <point x="369" y="256"/>
      <point x="384" y="271"/>
    </contour>
    <contour>
      <point x="384" y="544" type="curve" smooth="yes"/>
      <point x="384" y="608" type="line" smooth="yes"/>
      <point x="384" y="625"/>
      <point x="369" y="640"/>
      <point x="352" y="640" type="curve" smooth="yes"/>
      <point x="288" y="640" type="line" smooth="yes"/>
      <point x="271" y="640"/>
      <point x="256" y="625"/>
      <point x="256" y="608" type="curve" smooth="yes"/>
      <point x="256" y="544" type="line" smooth="yes"/>
      <point x="256" y="527"/>
      <point x="271" y="512"/>
      <point x="288" y="512" type="curve" smooth="yes"/>
      <point x="352" y="512" type="line" smooth="yes"/>
      <point x="369" y="512"/>
      <point x="384" y="527"/>
    </contour>
    <contour>
      <point x="384" y="800" type="curve" smooth="yes"/>
      <point x="384" y="864" type="line" smooth="yes"/>
      <point x="384" y="881"/>
      <point x="369" y="896"/>
      <point x="352" y="896" type="curve" smooth="yes"/>
      <point x="288" y="896" type="line" smooth="yes"/>
      <point x="271" y="896"/>
      <point x="256" y="881"/>
      <point x="256" y="864" type="curve" smooth="yes"/>
      <point x="256" y="800" type="line" smooth="yes"/>
      <point x="256" y="783"/>
      <point x="271" y="768"/>
      <point x="288" y="768" type="curve" smooth="yes"/>
      <point x="352" y="768" type="line" smooth="yes"/>
      <point x="369" y="768"/>
      <point x="384" y="783"/>
    </contour>
    <contour>
      <point x="1536" y="288" type="curve" smooth="yes"/>
      <point x="1536" y="352" type="line" smooth="yes"/>
      <point x="1536" y="369"/>
      <point x="1521" y="384"/>
      <point x="1504" y="384" type="curve" smooth="yes"/>
      <point x="544" y="384" type="line" smooth="yes"/>
      <point x="527" y="384"/>
      <point x="512" y="369"/>
      <point x="512" y="352" type="curve" smooth="yes"/>
      <point x="512" y="288" type="line" smooth="yes"/>
      <point x="512" y="271"/>
      <point x="527" y="256"/>
      <point x="544" y="256" type="curve" smooth="yes"/>
      <point x="1504" y="256" type="line" smooth="yes"/>
      <point x="1521" y="256"/>
      <point x="1536" y="271"/>
    </contour>
    <contour>
      <point x="1536" y="544" type="curve" smooth="yes"/>
      <point x="1536" y="608" type="line" smooth="yes"/>
      <point x="1536" y="625"/>
      <point x="1521" y="640"/>
      <point x="1504" y="640" type="curve" smooth="yes"/>
      <point x="544" y="640" type="line" smooth="yes"/>
      <point x="527" y="640"/>
      <point x="512" y="625"/>
      <point x="512" y="608" type="curve" smooth="yes"/>
      <point x="512" y="544" type="line" smooth="yes"/>
      <point x="512" y="527"/>
      <point x="527" y="512"/>
      <point x="544" y="512" type="curve" smooth="yes"/>
      <point x="1504" y="512" type="line" smooth="yes"/>
      <point x="1521" y="512"/>
      <point x="1536" y="527"/>
    </contour>
    <contour>
      <point x="1536" y="800" type="curve" smooth="yes"/>
      <point x="1536" y="864" type="line" smooth="yes"/>
      <point x="1536" y="881"/>
      <point x="1521" y="896"/>
      <point x="1504" y="896" type="curve" smooth="yes"/>
      <point x="544" y="896" type="line" smooth="yes"/>
      <point x="527" y="896"/>
      <point x="512" y="881"/>
      <point x="512" y="864" type="curve" smooth="yes"/>
      <point x="512" y="800" type="line" smooth="yes"/>
      <point x="512" y="783"/>
      <point x="527" y="768"/>
      <point x="544" y="768" type="curve" smooth="yes"/>
      <point x="1504" y="768" type="line" smooth="yes"/>
      <point x="1521" y="768"/>
      <point x="1536" y="783"/>
    </contour>
    <contour>
      <point x="1664" y="160" type="line" smooth="yes"/>
      <point x="1664" y="143"/>
      <point x="1649" y="128"/>
      <point x="1632" y="128" type="curve" smooth="yes"/>
      <point x="160" y="128" type="line" smooth="yes"/>
      <point x="143" y="128"/>
      <point x="128" y="143"/>
      <point x="128" y="160" type="curve" smooth="yes"/>
      <point x="128" y="992" type="line" smooth="yes"/>
      <point x="128" y="1009"/>
      <point x="143" y="1024"/>
      <point x="160" y="1024" type="curve" smooth="yes"/>
      <point x="1632" y="1024" type="line" smooth="yes"/>
      <point x="1649" y="1024"/>
      <point x="1664" y="1009"/>
      <point x="1664" y="992" type="curve" smooth="yes"/>
    </contour>
    <contour>
      <point x="1792" y="160" type="curve" smooth="yes"/>
      <point x="1792" y="1248" type="line" smooth="yes"/>
      <point x="1792" y="1336"/>
      <point x="1720" y="1408"/>
      <point x="1632" y="1408" type="curve" smooth="yes"/>
      <point x="160" y="1408" type="line" smooth="yes"/>
      <point x="72" y="1408"/>
      <point x="0" y="1336"/>
      <point x="0" y="1248" type="curve" smooth="yes"/>
      <point x="0" y="160" type="line" smooth="yes"/>
      <point x="0" y="72"/>
      <point x="72" y="0"/>
      <point x="160" y="0" type="curve" smooth="yes"/>
      <point x="1632" y="0" type="line" smooth="yes"/>
      <point x="1720" y="0"/>
      <point x="1792" y="72"/>
    </contour>
  </outline>
</glyph>
<glyph name="lock" format="2">
  <advance width="1152"/>
  <unicode hex="F023"/>
  <note>
lock
</note>
  <outline>
    <contour>
      <point x="832" y="768" type="line"/>
      <point x="320" y="768" type="line"/>
      <point x="320" y="960" type="line" smooth="yes"/>
      <point x="320" y="1101"/>
      <point x="435" y="1216"/>
      <point x="576" y="1216" type="curve" smooth="yes"/>
      <point x="717" y="1216"/>
      <point x="832" y="1101"/>
      <point x="832" y="960" type="curve" smooth="yes"/>
    </contour>
    <contour>
      <point x="1152" y="96" type="curve" smooth="yes"/>
      <point x="1152" y="672" type="line" smooth="yes"/>
      <point x="1152" y="725"/>
      <point x="1109" y="768"/>
      <point x="1056" y="768" type="curve" smooth="yes"/>
      <point x="1024" y="768" type="line"/>
      <point x="1024" y="960" type="line" smooth="yes"/>
      <point x="1024" y="1206"/>
      <point x="822" y="1408"/>
      <point x="576" y="1408" type="curve" smooth="yes"/>
      <point x="330" y="1408"/>
      <point x="128" y="1206"/>
      <point x="128" y="960" type="curve" smooth="yes"/>
      <point x="128" y="768" type="line"/>
      <point x="96" y="768" type="line" smooth="yes"/>
      <point x="43" y="768"/>
      <point x="0" y="725"/>
      <point x="0" y="672" type="curve" smooth="yes"/>
      <point x="0" y="96" type="line" smooth="yes"/>
      <point x="0" y="43"/>
      <point x="43" y="0"/>
      <point x="96" y="0" type="curve" smooth="yes"/>
      <point x="1056" y="0" type="line" smooth="yes"/>
      <point x="1109" y="0"/>
      <point x="1152" y="43"/>
    </contour>
  </outline>
</glyph>
<glyph name="flag" format="2">
  <advance width="1792"/>
  <unicode hex="F024"/>
  <note>
flag
</note>
  <outline>
    <contour>
      <point x="320" y="1280" type="curve" smooth="yes"/>
      <point x="320" y="1351"/>
      <point x="263" y="1408"/>
      <point x="192" y="1408" type="curve" smooth="yes"/>
      <point x="121" y="1408"/>
      <point x="64" y="1351"/>
      <point x="64" y="1280" type="curve" smooth="yes"/>
      <point x="64" y="1234"/>
      <point x="89" y="1193"/>
      <point x="128" y="1170" type="curve"/>
      <point x="128" y="-96" type="line" smooth="yes"/>
      <point x="128" y="-113"/>
      <point x="143" y="-128"/>
      <point x="160" y="-128" type="curve" smooth="yes"/>
      <point x="224" y="-128" type="line" smooth="yes"/>
      <point x="241" y="-128"/>
      <point x="256" y="-113"/>
      <point x="256" y="-96" type="curve" smooth="yes"/>
      <point x="256" y="1170" type="line"/>
      <point x="295" y="1193"/>
      <point x="320" y="1234"/>
    </contour>
    <contour>
      <point x="1792" y="453" type="curve" smooth="yes"/>
      <point x="1792" y="1216" type="line" smooth="yes"/>
      <point x="1792" y="1251"/>
      <point x="1763" y="1280"/>
      <point x="1728" y="1280" type="curve" smooth="yes"/>
      <point x="1684" y="1280"/>
      <point x="1515" y="1144"/>
      <point x="1358" y="1144" type="curve" smooth="yes"/>
      <point x="1327" y="1144"/>
      <point x="1298" y="1149"/>
      <point x="1270" y="1163" type="curve" smooth="yes"/>
      <point x="1131" y="1228"/>
      <point x="1008" y="1280"/>
      <point x="851" y="1280" type="curve" smooth="yes"/>
      <point x="709" y="1280"/>
      <point x="556" y="1224"/>
      <point x="430" y="1160" type="curve" smooth="yes"/>
      <point x="404" y="1147"/>
      <point x="375" y="1133"/>
      <point x="351" y="1117" type="curve" smooth="yes"/>
      <point x="332" y="1103"/>
      <point x="320" y="1086"/>
      <point x="320" y="1062" type="curve" smooth="yes"/>
      <point x="320" y="320" type="line" smooth="yes"/>
      <point x="320" y="285"/>
      <point x="349" y="256"/>
      <point x="384" y="256" type="curve" smooth="yes"/>
      <point x="396" y="256"/>
      <point x="406" y="259"/>
      <point x="417" y="265" type="curve" smooth="yes"/>
      <point x="555" y="339"/>
      <point x="722" y="411"/>
      <point x="881" y="411" type="curve" smooth="yes"/>
      <point x="1099" y="411"/>
      <point x="1187" y="271"/>
      <point x="1371" y="271" type="curve" smooth="yes"/>
      <point x="1502" y="271"/>
      <point x="1627" y="326"/>
      <point x="1740" y="387" type="curve" smooth="yes"/>
      <point x="1769" y="402"/>
      <point x="1792" y="416"/>
    </contour>
  </outline>
</glyph>
<glyph name="headphones" format="2">
  <advance width="1664"/>
  <unicode hex="F025"/>
  <note>
headphones
</note>
  <outline>
    <contour>
      <point x="1664" y="650" type="curve" smooth="yes"/>
      <point x="1664" y="1061"/>
      <point x="1283" y="1408"/>
      <point x="832" y="1408" type="curve" smooth="yes"/>
      <point x="381" y="1408"/>
      <point x="0" y="1061"/>
      <point x="0" y="650" type="curve" smooth="yes"/>
      <point x="0" y="541"/>
      <point x="20" y="435"/>
      <point x="60" y="336" type="curve" smooth="yes"/>
      <point x="80" y="287" type="line"/>
      <point x="265" y="254" type="line"/>
      <point x="294" y="145"/>
      <point x="393" y="64"/>
      <point x="512" y="64" type="curve"/>
      <point x="512" y="32" type="line" smooth="yes"/>
      <point x="512" y="14"/>
      <point x="526" y="0"/>
      <point x="544" y="0" type="curve" smooth="yes"/>
      <point x="608" y="0" type="line" smooth="yes"/>
      <point x="626" y="0"/>
      <point x="640" y="14"/>
      <point x="640" y="32" type="curve" smooth="yes"/>
      <point x="640" y="608" type="line" smooth="yes"/>
      <point x="640" y="626"/>
      <point x="626" y="640"/>
      <point x="608" y="640" type="curve" smooth="yes"/>
      <point x="544" y="640" type="line" smooth="yes"/>
      <point x="526" y="640"/>
      <point x="512" y="626"/>
      <point x="512" y="608" type="curve" smooth="yes"/>
      <point x="512" y="576" type="line"/>
      <point x="416" y="576"/>
      <point x="333" y="523"/>
      <point x="289" y="445" type="curve"/>
      <point x="221" y="457" type="line"/>
      <point x="202" y="519"/>
      <point x="192" y="583"/>
      <point x="192" y="650" type="curve" smooth="yes"/>
      <point x="192" y="952"/>
      <point x="491" y="1216"/>
      <point x="832" y="1216" type="curve" smooth="yes"/>
      <point x="1173" y="1216"/>
      <point x="1472" y="952"/>
      <point x="1472" y="650" type="curve" smooth="yes"/>
      <point x="1472" y="583"/>
      <point x="1462" y="519"/>
      <point x="1443" y="457" type="curve"/>
      <point x="1375" y="445" type="line"/>
      <point x="1331" y="523"/>
      <point x="1248" y="576"/>
      <point x="1152" y="576" type="curve"/>
      <point x="1152" y="608" type="line" smooth="yes"/>
      <point x="1152" y="626"/>
      <point x="1138" y="640"/>
      <point x="1120" y="640" type="curve" smooth="yes"/>
      <point x="1056" y="640" type="line" smooth="yes"/>
      <point x="1038" y="640"/>
      <point x="1024" y="626"/>
      <point x="1024" y="608" type="curve" smooth="yes"/>
      <point x="1024" y="32" type="line" smooth="yes"/>
      <point x="1024" y="14"/>
      <point x="1038" y="0"/>
      <point x="1056" y="0" type="curve" smooth="yes"/>
      <point x="1120" y="0" type="line" smooth="yes"/>
      <point x="1138" y="0"/>
      <point x="1152" y="14"/>
      <point x="1152" y="32" type="curve" smooth="yes"/>
      <point x="1152" y="64" type="line"/>
      <point x="1271" y="64"/>
      <point x="1370" y="145"/>
      <point x="1399" y="254" type="curve"/>
      <point x="1584" y="287" type="line"/>
      <point x="1604" y="336" type="line" smooth="yes"/>
      <point x="1644" y="435"/>
      <point x="1664" y="541"/>
    </contour>
  </outline>
</glyph>
<glyph name="volume_off" format="2">
  <advance width="768"/>
  <unicode hex="F026"/>
  <note>
volume_off
</note>
  <outline>
    <contour>
      <point x="768" y="96" type="curve" smooth="yes"/>
      <point x="768" y="1184" type="line" smooth="yes"/>
      <point x="768" y="1219"/>
      <point x="739" y="1248"/>
      <point x="704" y="1248" type="curve" smooth="yes"/>
      <point x="687" y="1248"/>
      <point x="671" y="1241"/>
      <point x="659" y="1229" type="curve" smooth="yes"/>
      <point x="326" y="896" type="line"/>
      <point x="64" y="896" type="line" smooth="yes"/>
      <point x="29" y="896"/>
      <point x="0" y="867"/>
      <point x="0" y="832" type="curve" smooth="yes"/>
      <point x="0" y="448" type="line" smooth="yes"/>
      <point x="0" y="413"/>
      <point x="29" y="384"/>
      <point x="64" y="384" type="curve" smooth="yes"/>
      <point x="326" y="384" type="line"/>
      <point x="659" y="51" type="line" smooth="yes"/>
      <point x="671" y="39"/>
      <point x="687" y="32"/>
      <point x="704" y="32" type="curve" smooth="yes"/>
      <point x="739" y="32"/>
      <point x="768" y="61"/>
    </contour>
  </outline>
</glyph>
<glyph name="volume_down" format="2">
  <advance width="1152"/>
  <unicode hex="F027"/>
  <note>
volume_down
</note>
  <outline>
    <contour>
      <point x="768" y="96" type="curve" smooth="yes"/>
      <point x="768" y="1184" type="line" smooth="yes"/>
      <point x="768" y="1219"/>
      <point x="739" y="1248"/>
      <point x="704" y="1248" type="curve" smooth="yes"/>
      <point x="687" y="1248"/>
      <point x="671" y="1241"/>
      <point x="659" y="1229" type="curve" smooth="yes"/>
      <point x="326" y="896" type="line"/>
      <point x="64" y="896" type="line" smooth="yes"/>
      <point x="29" y="896"/>
      <point x="0" y="867"/>
      <point x="0" y="832" type="curve" smooth="yes"/>
      <point x="0" y="448" type="line" smooth="yes"/>
      <point x="0" y="413"/>
      <point x="29" y="384"/>
      <point x="64" y="384" type="curve" smooth="yes"/>
      <point x="326" y="384" type="line"/>
      <point x="659" y="51" type="line" smooth="yes"/>
      <point x="671" y="39"/>
      <point x="687" y="32"/>
      <point x="704" y="32" type="curve" smooth="yes"/>
      <point x="739" y="32"/>
      <point x="768" y="61"/>
    </contour>
    <contour>
      <point x="1152" y="640" type="curve" smooth="yes"/>
      <point x="1152" y="740"/>
      <point x="1091" y="838"/>
      <point x="997" y="875" type="curve" smooth="yes"/>
      <point x="989" y="879"/>
      <point x="980" y="880"/>
      <point x="972" y="880" type="curve" smooth="yes"/>
      <point x="937" y="880"/>
      <point x="908" y="852"/>
      <point x="908" y="816" type="curve" smooth="yes"/>
      <point x="908" y="740"/>
      <point x="1024" y="761"/>
      <point x="1024" y="640" type="curve" smooth="yes"/>
      <point x="1024" y="519"/>
      <point x="908" y="540"/>
      <point x="908" y="464" type="curve" smooth="yes"/>
      <point x="908" y="428"/>
      <point x="937" y="400"/>
      <point x="972" y="400" type="curve" smooth="yes"/>
      <point x="980" y="400"/>
      <point x="989" y="401"/>
      <point x="997" y="405" type="curve" smooth="yes"/>
      <point x="1091" y="443"/>
      <point x="1152" y="540"/>
    </contour>
  </outline>
</glyph>
<glyph name="volume_up" format="2">
  <advance width="1664"/>
  <unicode hex="F028"/>
  <note>
volume_up
</note>
  <outline>
    <contour>
      <point x="768" y="96" type="curve" smooth="yes"/>
      <point x="768" y="1184" type="line" smooth="yes"/>
      <point x="768" y="1219"/>
      <point x="739" y="1248"/>
      <point x="704" y="1248" type="curve" smooth="yes"/>
      <point x="687" y="1248"/>
      <point x="671" y="1241"/>
      <point x="659" y="1229" type="curve" smooth="yes"/>
      <point x="326" y="896" type="line"/>
      <point x="64" y="896" type="line" smooth="yes"/>
      <point x="29" y="896"/>
      <point x="0" y="867"/>
      <point x="0" y="832" type="curve" smooth="yes"/>
      <point x="0" y="448" type="line" smooth="yes"/>
      <point x="0" y="413"/>
      <point x="29" y="384"/>
      <point x="64" y="384" type="curve" smooth="yes"/>
      <point x="326" y="384" type="line"/>
      <point x="659" y="51" type="line" smooth="yes"/>
      <point x="671" y="39"/>
      <point x="687" y="32"/>
      <point x="704" y="32" type="curve" smooth="yes"/>
      <point x="739" y="32"/>
      <point x="768" y="61"/>
    </contour>
    <contour>
      <point x="1152" y="640" type="curve" smooth="yes"/>
      <point x="1152" y="740"/>
      <point x="1091" y="838"/>
      <point x="997" y="875" type="curve" smooth="yes"/>
      <point x="989" y="879"/>
      <point x="980" y="880"/>
      <point x="972" y="880" type="curve" smooth="yes"/>
      <point x="937" y="880"/>
      <point x="908" y="852"/>
      <point x="908" y="816" type="curve" smooth="yes"/>
      <point x="908" y="740"/>
      <point x="1024" y="761"/>
      <point x="1024" y="640" type="curve" smooth="yes"/>
      <point x="1024" y="519"/>
      <point x="908" y="540"/>
      <point x="908" y="464" type="curve" smooth="yes"/>
      <point x="908" y="428"/>
      <point x="937" y="400"/>
      <point x="972" y="400" type="curve" smooth="yes"/>
      <point x="980" y="400"/>
      <point x="989" y="401"/>
      <point x="997" y="405" type="curve" smooth="yes"/>
      <point x="1091" y="443"/>
      <point x="1152" y="540"/>
    </contour>
    <contour>
      <point x="1408" y="640" type="curve" smooth="yes"/>
      <point x="1408" y="843"/>
      <point x="1286" y="1032"/>
      <point x="1098" y="1111" type="curve" smooth="yes"/>
      <point x="1090" y="1114"/>
      <point x="1081" y="1116"/>
      <point x="1072" y="1116" type="curve" smooth="yes"/>
      <point x="1037" y="1116"/>
      <point x="1008" y="1087"/>
      <point x="1008" y="1052" type="curve" smooth="yes"/>
      <point x="1008" y="1024"/>
      <point x="1024" y="1005"/>
      <point x="1047" y="993" type="curve" smooth="yes"/>
      <point x="1074" y="979"/>
      <point x="1099" y="967"/>
      <point x="1123" y="949" type="curve" smooth="yes"/>
      <point x="1222" y="877"/>
      <point x="1280" y="762"/>
      <point x="1280" y="640" type="curve" smooth="yes"/>
      <point x="1280" y="518"/>
      <point x="1222" y="403"/>
      <point x="1123" y="331" type="curve" smooth="yes"/>
      <point x="1099" y="313"/>
      <point x="1074" y="301"/>
      <point x="1047" y="287" type="curve" smooth="yes"/>
      <point x="1024" y="275"/>
      <point x="1008" y="256"/>
      <point x="1008" y="228" type="curve" smooth="yes"/>
      <point x="1008" y="193"/>
      <point x="1037" y="164"/>
      <point x="1073" y="164" type="curve" smooth="yes"/>
      <point x="1081" y="164"/>
      <point x="1090" y="166"/>
      <point x="1098" y="169" type="curve" smooth="yes"/>
      <point x="1286" y="248"/>
      <point x="1408" y="437"/>
    </contour>
    <contour>
      <point x="1664" y="640" type="curve" smooth="yes"/>
      <point x="1664" y="947"/>
      <point x="1481" y="1225"/>
      <point x="1199" y="1346" type="curve" smooth="yes"/>
      <point x="1191" y="1349"/>
      <point x="1182" y="1351"/>
      <point x="1173" y="1351" type="curve" smooth="yes"/>
      <point x="1138" y="1351"/>
      <point x="1109" y="1322"/>
      <point x="1109" y="1287" type="curve" smooth="yes"/>
      <point x="1109" y="1258"/>
      <point x="1124" y="1242"/>
      <point x="1148" y="1228" type="curve" smooth="yes"/>
      <point x="1162" y="1220"/>
      <point x="1178" y="1215"/>
      <point x="1193" y="1207" type="curve" smooth="yes"/>
      <point x="1221" y="1192"/>
      <point x="1249" y="1175"/>
      <point x="1275" y="1156" type="curve" smooth="yes"/>
      <point x="1439" y="1035"/>
      <point x="1536" y="844"/>
      <point x="1536" y="640" type="curve" smooth="yes"/>
      <point x="1536" y="436"/>
      <point x="1439" y="245"/>
      <point x="1275" y="124" type="curve" smooth="yes"/>
      <point x="1249" y="105"/>
      <point x="1221" y="88"/>
      <point x="1193" y="73" type="curve" smooth="yes"/>
      <point x="1178" y="65"/>
      <point x="1162" y="60"/>
      <point x="1148" y="52" type="curve" smooth="yes"/>
      <point x="1124" y="38"/>
      <point x="1109" y="22"/>
      <point x="1109" y="-7" type="curve" smooth="yes"/>
      <point x="1109" y="-42"/>
      <point x="1138" y="-71"/>
      <point x="1173" y="-71" type="curve" smooth="yes"/>
      <point x="1182" y="-71"/>
      <point x="1191" y="-69"/>
      <point x="1199" y="-66" type="curve" smooth="yes"/>
      <point x="1481" y="55"/>
      <point x="1664" y="333"/>
    </contour>
  </outline>
</glyph>
<glyph name="qrcode" format="2">
  <advance width="1408"/>
  <unicode hex="F029"/>
  <note>
qrcode
</note>
  <outline>
    <contour>
      <point x="384" y="256" type="line"/>
      <point x="384" y="384" type="line"/>
      <point x="256" y="384" type="line"/>
      <point x="256" y="256" type="line"/>
    </contour>
    <contour>
      <point x="384" y="1024" type="line"/>
      <point x="384" y="1152" type="line"/>
      <point x="256" y="1152" type="line"/>
      <point x="256" y="1024" type="line"/>
    </contour>
    <contour>
      <point x="1152" y="1024" type="line"/>
      <point x="1152" y="1152" type="line"/>
      <point x="1024" y="1152" type="line"/>
      <point x="1024" y="1024" type="line"/>
    </contour>
    <contour>
      <point x="512" y="129" type="line"/>
      <point x="128" y="129" type="line"/>
      <point x="128" y="512" type="line"/>
      <point x="512" y="512" type="line"/>
    </contour>
    <contour>
      <point x="512" y="896" type="line"/>
      <point x="128" y="896" type="line"/>
      <point x="128" y="1280" type="line"/>
      <point x="512" y="1280" type="line"/>
    </contour>
    <contour>
      <point x="1280" y="896" type="line"/>
      <point x="896" y="896" type="line"/>
      <point x="896" y="1280" type="line"/>
      <point x="1280" y="1280" type="line"/>
    </contour>
    <contour>
      <point x="640" y="0" type="line"/>
      <point x="640" y="640" type="line"/>
      <point x="0" y="640" type="line"/>
      <point x="0" y="0" type="line"/>
    </contour>
    <contour>
      <point x="1152" y="0" type="line"/>
      <point x="1152" y="128" type="line"/>
      <point x="1024" y="128" type="line"/>
      <point x="1024" y="0" type="line"/>
    </contour>
    <contour>
      <point x="1408" y="0" type="line"/>
      <point x="1408" y="128" type="line"/>
      <point x="1280" y="128" type="line"/>
      <point x="1280" y="0" type="line"/>
    </contour>
    <contour>
      <point x="1408" y="256" type="line"/>
      <point x="1408" y="640" type="line"/>
      <point x="1280" y="640" type="line"/>
      <point x="1280" y="512" type="line"/>
      <point x="1152" y="512" type="line"/>
      <point x="1152" y="640" type="line"/>
      <point x="768" y="640" type="line"/>
      <point x="768" y="0" type="line"/>
      <point x="896" y="0" type="line"/>
      <point x="896" y="384" type="line"/>
      <point x="1024" y="384" type="line"/>
      <point x="1024" y="256" type="line"/>
    </contour>
    <contour>
      <point x="640" y="768" type="line"/>
      <point x="640" y="1408" type="line"/>
      <point x="0" y="1408" type="line"/>
      <point x="0" y="768" type="line"/>
    </contour>
    <contour>
      <point x="1408" y="768" type="line"/>
      <point x="1408" y="1408" type="line"/>
      <point x="768" y="1408" type="line"/>
      <point x="768" y="768" type="line"/>
    </contour>
  </outline>
</glyph>
<glyph name="barcode" format="2">
  <advance width="1792"/>
  <unicode hex="F02A"/>
  <note>
barcode
</note>
  <outline>
    <contour>
      <point x="63" y="0" type="curve"/>
      <point x="63" y="471"/>
      <point x="63" y="940"/>
      <point x="63" y="1408" type="curve"/>
      <point x="42" y="1408"/>
      <point x="21" y="1408"/>
      <point x="0" y="1408" type="curve"/>
      <point x="0" y="939"/>
      <point x="0" y="469"/>
      <point x="0" y="0" type="curve"/>
      <point x="21" y="0"/>
      <point x="41" y="0"/>
    </contour>
    <contour>
      <point x="126" y="1" type="curve"/>
      <point x="126" y="471"/>
      <point x="126" y="940"/>
      <point x="126" y="1408" type="curve"/>
      <point x="115" y="1408"/>
      <point x="105" y="1408"/>
      <point x="94" y="1408" type="curve"/>
      <point x="94" y="939"/>
      <point x="94" y="470"/>
      <point x="94" y="1" type="curve"/>
      <point x="106" y="1"/>
      <point x="115" y="1"/>
    </contour>
    <contour>
      <point x="220" y="1" type="curve"/>
      <point x="220" y="471"/>
      <point x="220" y="940"/>
      <point x="220" y="1408" type="curve"/>
      <point x="210" y="1408"/>
      <point x="199" y="1408"/>
      <point x="189" y="1408" type="curve"/>
      <point x="189" y="939"/>
      <point x="189" y="470"/>
      <point x="189" y="1" type="curve"/>
      <point x="200" y="1"/>
      <point x="210" y="1"/>
    </contour>
    <contour>
      <point x="377" y="1" type="curve"/>
      <point x="377" y="471"/>
      <point x="377" y="940"/>
      <point x="377" y="1408" type="curve"/>
      <point x="367" y="1408"/>
      <point x="356" y="1408"/>
      <point x="346" y="1408" type="curve"/>
      <point x="346" y="939"/>
      <point x="346" y="470"/>
      <point x="346" y="1" type="curve"/>
      <point x="358" y="1"/>
      <point x="367" y="1"/>
    </contour>
    <contour>
      <point x="534" y="1" type="curve"/>
      <point x="534" y="471"/>
      <point x="534" y="940"/>
      <point x="534" y="1408" type="curve"/>
      <point x="514" y="1408"/>
      <point x="493" y="1408"/>
      <point x="472" y="1408" type="curve"/>
      <point x="472" y="939"/>
      <point x="472" y="470"/>
      <point x="472" y="1" type="curve"/>
      <point x="494" y="1"/>
      <point x="514" y="1"/>
    </contour>
    <contour>
      <point x="660" y="1" type="curve"/>
      <point x="660" y="471"/>
      <point x="660" y="940"/>
      <point x="660" y="1408" type="curve"/>
      <point x="650" y="1408"/>
      <point x="639" y="1408"/>
      <point x="629" y="1408" type="curve"/>
      <point x="629" y="939"/>
      <point x="629" y="470"/>
      <point x="629" y="1" type="curve"/>
      <point x="640" y="1"/>
      <point x="650" y="1"/>
    </contour>
    <contour>
      <point x="723" y="1" type="curve"/>
      <point x="723" y="471"/>
      <point x="723" y="940"/>
      <point x="723" y="1408" type="curve"/>
      <point x="713" y="1408"/>
      <point x="702" y="1408"/>
      <point x="692" y="1408" type="curve"/>
      <point x="692" y="939"/>
      <point x="692" y="470"/>
      <point x="692" y="1" type="curve"/>
      <point x="703" y="1"/>
      <point x="713" y="1"/>
    </contour>
    <contour>
      <point x="786" y="1" type="curve"/>
      <point x="786" y="471"/>
      <point x="786" y="940"/>
      <point x="786" y="1408" type="curve"/>
      <point x="776" y="1408"/>
      <point x="765" y="1408"/>
      <point x="755" y="1408" type="curve"/>
      <point x="755" y="939"/>
      <point x="755" y="470"/>
      <point x="755" y="1" type="curve"/>
      <point x="766" y="1"/>
      <point x="776" y="1"/>
    </contour>
    <contour>
      <point x="943" y="1" type="curve"/>
      <point x="943" y="471"/>
      <point x="943" y="940"/>
      <point x="943" y="1408" type="curve"/>
      <point x="922" y="1408"/>
      <point x="901" y="1408"/>
      <point x="880" y="1408" type="curve"/>
      <point x="880" y="939"/>
      <point x="880" y="470"/>
      <point x="880" y="1" type="curve"/>
      <point x="903" y="1"/>
      <point x="922" y="1"/>
    </contour>
    <contour>
      <point x="1100" y="1" type="curve"/>
      <point x="1100" y="471"/>
      <point x="1100" y="940"/>
      <point x="1100" y="1408" type="curve"/>
      <point x="1079" y="1408"/>
      <point x="1058" y="1408"/>
      <point x="1037" y="1408" type="curve"/>
      <point x="1037" y="939"/>
      <point x="1037" y="470"/>
      <point x="1037" y="1" type="curve"/>
      <point x="1060" y="1"/>
      <point x="1080" y="1"/>
    </contour>
    <contour>
      <point x="1226" y="1" type="curve"/>
      <point x="1226" y="471"/>
      <point x="1226" y="940"/>
      <point x="1226" y="1408" type="curve"/>
      <point x="1205" y="1408"/>
      <point x="1184" y="1408"/>
      <point x="1163" y="1408" type="curve"/>
      <point x="1163" y="939"/>
      <point x="1163" y="470"/>
      <point x="1163" y="1" type="curve"/>
      <point x="1185" y="1"/>
      <point x="1205" y="1"/>
    </contour>
    <contour>
      <point x="1352" y="1" type="curve"/>
      <point x="1352" y="471"/>
      <point x="1352" y="940"/>
      <point x="1352" y="1408" type="curve"/>
      <point x="1331" y="1408"/>
      <point x="1310" y="1408"/>
      <point x="1289" y="1408" type="curve"/>
      <point x="1289" y="939"/>
      <point x="1289" y="470"/>
      <point x="1289" y="1" type="curve"/>
      <point x="1311" y="1"/>
      <point x="1331" y="1"/>
    </contour>
    <contour>
      <point x="1446" y="1" type="curve"/>
      <point x="1446" y="471"/>
      <point x="1446" y="940"/>
      <point x="1446" y="1408" type="curve"/>
      <point x="1425" y="1408"/>
      <point x="1404" y="1408"/>
      <point x="1383" y="1408" type="curve"/>
      <point x="1383" y="939"/>
      <point x="1383" y="470"/>
      <point x="1383" y="1" type="curve"/>
      <point x="1406" y="1"/>
      <point x="1425" y="1"/>
    </contour>
    <contour>
      <point x="1635" y="1" type="curve"/>
      <point x="1635" y="471"/>
      <point x="1635" y="940"/>
      <point x="1635" y="1408" type="curve"/>
      <point x="1603" y="1408"/>
      <point x="1572" y="1408"/>
      <point x="1541" y="1408" type="curve"/>
      <point x="1541" y="939"/>
      <point x="1541" y="470"/>
      <point x="1541" y="1" type="curve"/>
      <point x="1573" y="1"/>
      <point x="1604" y="1"/>
    </contour>
    <contour>
      <point x="1698" y="1" type="curve"/>
      <point x="1698" y="471"/>
      <point x="1698" y="940"/>
      <point x="1698" y="1408" type="curve"/>
      <point x="1687" y="1408"/>
      <point x="1677" y="1408"/>
      <point x="1666" y="1408" type="curve"/>
      <point x="1666" y="939"/>
      <point x="1666" y="470"/>
      <point x="1666" y="1" type="curve"/>
      <point x="1678" y="1"/>
      <point x="1687" y="1"/>
    </contour>
    <contour>
      <point x="1792" y="0" type="curve"/>
      <point x="1792" y="469"/>
      <point x="1792" y="939"/>
      <point x="1792" y="1408" type="curve"/>
      <point x="1771" y="1408"/>
      <point x="1750" y="1408"/>
      <point x="1729" y="1408" type="curve"/>
      <point x="1729" y="939"/>
      <point x="1729" y="470"/>
      <point x="1729" y="0" type="curve"/>
      <point x="1752" y="0"/>
      <point x="1772" y="0"/>
    </contour>
  </outline>
</glyph>
<glyph name="tag" format="2">
  <advance width="1536"/>
  <unicode hex="F02B"/>
  <note>
tag
</note>
  <outline>
    <contour>
      <point x="448" y="1088" type="curve" smooth="yes"/>
      <point x="448" y="1017"/>
      <point x="391" y="960"/>
      <point x="320" y="960" type="curve" smooth="yes"/>
      <point x="249" y="960"/>
      <point x="192" y="1017"/>
      <point x="192" y="1088" type="curve" smooth="yes"/>
      <point x="192" y="1159"/>
      <point x="249" y="1216"/>
      <point x="320" y="1216" type="curve" smooth="yes"/>
      <point x="391" y="1216"/>
      <point x="448" y="1159"/>
    </contour>
    <contour>
      <point x="1515" y="512" type="curve" smooth="yes"/>
      <point x="1515" y="546"/>
      <point x="1501" y="579"/>
      <point x="1478" y="603" type="curve" smooth="yes"/>
      <point x="763" y="1317" type="line" smooth="yes"/>
      <point x="712" y="1368"/>
      <point x="615" y="1408"/>
      <point x="544" y="1408" type="curve" smooth="yes"/>
      <point x="128" y="1408" type="line" smooth="yes"/>
      <point x="58" y="1408"/>
      <point x="0" y="1350"/>
      <point x="0" y="1280" type="curve" smooth="yes"/>
      <point x="0" y="864" type="line" smooth="yes"/>
      <point x="0" y="793"/>
      <point x="40" y="696"/>
      <point x="91" y="646" type="curve" smooth="yes"/>
      <point x="806" y="-70" type="line" smooth="yes"/>
      <point x="829" y="-93"/>
      <point x="862" y="-107"/>
      <point x="896" y="-107" type="curve" smooth="yes"/>
      <point x="930" y="-107"/>
      <point x="963" y="-93"/>
      <point x="987" y="-70" type="curve" smooth="yes"/>
      <point x="1478" y="422" type="line" smooth="yes"/>
      <point x="1501" y="445"/>
      <point x="1515" y="478"/>
    </contour>
  </outline>
</glyph>
<glyph name="tags" format="2">
  <advance width="1920"/>
  <unicode hex="F02C"/>
  <note>
tags
</note>
  <outline>
    <contour>
      <point x="448" y="1088" type="curve" smooth="yes"/>
      <point x="448" y="1017"/>
      <point x="391" y="960"/>
      <point x="320" y="960" type="curve" smooth="yes"/>
      <point x="249" y="960"/>
      <point x="192" y="1017"/>
      <point x="192" y="1088" type="curve" smooth="yes"/>
      <point x="192" y="1159"/>
      <point x="249" y="1216"/>
      <point x="320" y="1216" type="curve" smooth="yes"/>
      <point x="391" y="1216"/>
      <point x="448" y="1159"/>
    </contour>
    <contour>
      <point x="1515" y="512" type="curve" smooth="yes"/>
      <point x="1515" y="546"/>
      <point x="1501" y="579"/>
      <point x="1478" y="603" type="curve" smooth="yes"/>
      <point x="763" y="1317" type="line" smooth="yes"/>
      <point x="712" y="1368"/>
      <point x="615" y="1408"/>
      <point x="544" y="1408" type="curve" smooth="yes"/>
      <point x="128" y="1408" type="line" smooth="yes"/>
      <point x="58" y="1408"/>
      <point x="0" y="1350"/>
      <point x="0" y="1280" type="curve" smooth="yes"/>
      <point x="0" y="864" type="line" smooth="yes"/>
      <point x="0" y="793"/>
      <point x="40" y="696"/>
      <point x="91" y="646" type="curve" smooth="yes"/>
      <point x="806" y="-70" type="line" smooth="yes"/>
      <point x="829" y="-93"/>
      <point x="862" y="-107"/>
      <point x="896" y="-107" type="curve" smooth="yes"/>
      <point x="930" y="-107"/>
      <point x="963" y="-93"/>
      <point x="987" y="-70" type="curve" smooth="yes"/>
      <point x="1478" y="422" type="line" smooth="yes"/>
      <point x="1501" y="445"/>
      <point x="1515" y="478"/>
    </contour>
    <contour>
      <point x="1899" y="512" type="curve" smooth="yes"/>
      <point x="1899" y="546"/>
      <point x="1885" y="579"/>
      <point x="1862" y="603" type="curve" smooth="yes"/>
      <point x="1147" y="1317" type="line" smooth="yes"/>
      <point x="1096" y="1368"/>
      <point x="999" y="1408"/>
      <point x="928" y="1408" type="curve" smooth="yes"/>
      <point x="704" y="1408" type="line" smooth="yes"/>
      <point x="775" y="1408"/>
      <point x="872" y="1368"/>
      <point x="923" y="1317" type="curve" smooth="yes"/>
      <point x="1638" y="603" type="line" smooth="yes"/>
      <point x="1661" y="579"/>
      <point x="1675" y="546"/>
      <point x="1675" y="512" type="curve" smooth="yes"/>
      <point x="1675" y="478"/>
      <point x="1661" y="445"/>
      <point x="1638" y="422" type="curve" smooth="yes"/>
      <point x="1168" y="-48" type="line"/>
      <point x="1202" y="-83"/>
      <point x="1228" y="-107"/>
      <point x="1280" y="-107" type="curve" smooth="yes"/>
      <point x="1314" y="-107"/>
      <point x="1347" y="-93"/>
      <point x="1371" y="-70" type="curve" smooth="yes"/>
      <point x="1862" y="422" type="line" smooth="yes"/>
      <point x="1885" y="445"/>
      <point x="1899" y="478"/>
    </contour>
  </outline>
</glyph>
<glyph name="book" format="2">
  <advance width="1664"/>
  <unicode hex="F02D"/>
  <note>
book
</note>
  <outline>
    <contour>
      <point x="1639" y="1058" type="curve" smooth="yes"/>
      <point x="1624" y="1078"/>
      <point x="1603" y="1092"/>
      <point x="1580" y="1101" type="curve"/>
      <point x="1581" y="1083"/>
      <point x="1581" y="1063"/>
      <point x="1575" y="1044" type="curve" smooth="yes"/>
      <point x="1275" y="57" type="line" smooth="yes"/>
      <point x="1264" y="21"/>
      <point x="1221" y="0"/>
      <point x="1184" y="0" type="curve" smooth="yes"/>
      <point x="261" y="0" type="line" smooth="yes"/>
      <point x="206" y="0"/>
      <point x="137" y="12"/>
      <point x="117" y="70" type="curve" smooth="yes"/>
      <point x="109" y="92"/>
      <point x="110" y="101"/>
      <point x="118" y="113" type="curve" smooth="yes"/>
      <point x="127" y="125"/>
      <point x="143" y="128"/>
      <point x="156" y="128" type="curve" smooth="yes"/>
      <point x="1025" y="128" type="line" smooth="yes"/>
      <point x="1152" y="128"/>
      <point x="1178" y="162"/>
      <point x="1225" y="316" type="curve" smooth="yes"/>
      <point x="1499" y="1222" type="line" smooth="yes"/>
      <point x="1513" y="1269"/>
      <point x="1507" y="1316"/>
      <point x="1481" y="1352" type="curve" smooth="yes"/>
      <point x="1456" y="1387"/>
      <point x="1414" y="1408"/>
      <point x="1367" y="1408" type="curve" smooth="yes"/>
      <point x="606" y="1408" type="line" smooth="yes"/>
      <point x="589" y="1408"/>
      <point x="572" y="1403"/>
      <point x="555" y="1399" type="curve"/>
      <point x="556" y="1402" type="line"/>
      <point x="429" y="1438"/>
      <point x="421" y="1301"/>
      <point x="379" y="1239" type="curve" smooth="yes"/>
      <point x="363" y="1216"/>
      <point x="339" y="1196"/>
      <point x="335" y="1177" type="curve" smooth="yes"/>
      <point x="332" y="1159"/>
      <point x="342" y="1142"/>
      <point x="340" y="1125" type="curve" smooth="yes"/>
      <point x="334" y="1072"/>
      <point x="294" y="977"/>
      <point x="270" y="944" type="curve" smooth="yes"/>
      <point x="255" y="924"/>
      <point x="233" y="914"/>
      <point x="226" y="891" type="curve" smooth="yes"/>
      <point x="220" y="875"/>
      <point x="230" y="852"/>
      <point x="228" y="831" type="curve" smooth="yes"/>
      <point x="223" y="784"/>
      <point x="188" y="695"/>
      <point x="161" y="649" type="curve" smooth="yes"/>
      <point x="151" y="631"/>
      <point x="132" y="617"/>
      <point x="127" y="598" type="curve" smooth="yes"/>
      <point x="122" y="581"/>
      <point x="132" y="559"/>
      <point x="127" y="540" type="curve" smooth="yes"/>
      <point x="116" y="488"/>
      <point x="82" y="407"/>
      <point x="52" y="357" type="curve" smooth="yes"/>
      <point x="36" y="330"/>
      <point x="15" y="313"/>
      <point x="11" y="289" type="curve" smooth="yes"/>
      <point x="9" y="277"/>
      <point x="18" y="264"/>
      <point x="17" y="248" type="curve" smooth="yes"/>
      <point x="16" y="224"/>
      <point x="12" y="204"/>
      <point x="10" y="184" type="curve"/>
      <point x="-4" y="146"/>
      <point x="-4" y="102"/>
      <point x="12" y="57" type="curve" smooth="yes"/>
      <point x="49" y="-47"/>
      <point x="158" y="-128"/>
      <point x="260" y="-128" type="curve" smooth="yes"/>
      <point x="1183" y="-128" type="line" smooth="yes"/>
      <point x="1269" y="-128"/>
      <point x="1357" y="-62"/>
      <point x="1382" y="23" type="curve" smooth="yes"/>
      <point x="1657" y="929" type="line" smooth="yes"/>
      <point x="1671" y="975"/>
      <point x="1664" y="1022"/>
    </contour>
    <contour>
      <point x="575" y="1056" type="curve" smooth="yes"/>
      <point x="596" y="1120" type="line" smooth="yes"/>
      <point x="602" y="1138"/>
      <point x="621" y="1152"/>
      <point x="638" y="1152" type="curve" smooth="yes"/>
      <point x="1246" y="1152" type="line" smooth="yes"/>
      <point x="1264" y="1152"/>
      <point x="1274" y="1138"/>
      <point x="1268" y="1120" type="curve" smooth="yes"/>
      <point x="1247" y="1056" type="line" smooth="yes"/>
      <point x="1241" y="1038"/>
      <point x="1222" y="1024"/>
      <point x="1205" y="1024" type="curve" smooth="yes"/>
      <point x="597" y="1024" type="line" smooth="yes"/>
      <point x="579" y="1024"/>
      <point x="569" y="1038"/>
    </contour>
    <contour>
      <point x="492" y="800" type="curve" smooth="yes"/>
      <point x="513" y="864" type="line" smooth="yes"/>
      <point x="519" y="882"/>
      <point x="538" y="896"/>
      <point x="555" y="896" type="curve" smooth="yes"/>
      <point x="1163" y="896" type="line" smooth="yes"/>
      <point x="1181" y="896"/>
      <point x="1191" y="882"/>
      <point x="1185" y="864" type="curve" smooth="yes"/>
      <point x="1164" y="800" type="line" smooth="yes"/>
      <point x="1158" y="782"/>
      <point x="1139" y="768"/>
      <point x="1122" y="768" type="curve" smooth="yes"/>
      <point x="514" y="768" type="line" smooth="yes"/>
      <point x="496" y="768"/>
      <point x="486" y="782"/>
    </contour>
  </outline>
</glyph>
<glyph name="bookmark" format="2">
  <advance width="1280"/>
  <unicode hex="F02E"/>
  <note>
bookmark
</note>
  <outline>
    <contour>
      <point x="1164" y="1408" type="curve" smooth="yes"/>
      <point x="1133" y="1408"/>
      <point x="147" y="1408"/>
      <point x="116" y="1408" type="curve" smooth="yes"/>
      <point x="101" y="1408"/>
      <point x="86" y="1405"/>
      <point x="72" y="1399" type="curve" smooth="yes"/>
      <point x="28" y="1382"/>
      <point x="0" y="1341"/>
      <point x="0" y="1296" type="curve" smooth="yes"/>
      <point x="0" y="7" type="line" smooth="yes"/>
      <point x="0" y="-38"/>
      <point x="28" y="-79"/>
      <point x="72" y="-96" type="curve" smooth="yes"/>
      <point x="86" y="-102"/>
      <point x="101" y="-105"/>
      <point x="116" y="-105" type="curve" smooth="yes"/>
      <point x="147" y="-105"/>
      <point x="176" y="-93"/>
      <point x="199" y="-72" type="curve" smooth="yes"/>
      <point x="640" y="352" type="line"/>
      <point x="1081" y="-72" type="line" smooth="yes"/>
      <point x="1104" y="-93"/>
      <point x="1133" y="-104"/>
      <point x="1164" y="-104" type="curve" smooth="yes"/>
      <point x="1179" y="-104"/>
      <point x="1194" y="-102"/>
      <point x="1208" y="-96" type="curve" smooth="yes"/>
      <point x="1252" y="-79"/>
      <point x="1280" y="-38"/>
      <point x="1280" y="7" type="curve" smooth="yes"/>
      <point x="1280" y="1296" type="line" smooth="yes"/>
      <point x="1280" y="1341"/>
      <point x="1252" y="1382"/>
      <point x="1208" y="1399" type="curve" smooth="yes"/>
      <point x="1194" y="1405"/>
      <point x="1179" y="1408"/>
    </contour>
  </outline>
</glyph>
<glyph name="print" format="2">
  <advance width="1664"/>
  <unicode hex="F02F"/>
  <note>
print
</note>
  <outline>
    <contour>
      <point x="1280" y="0" type="line"/>
      <point x="384" y="0" type="line"/>
      <point x="384" y="256" type="line"/>
      <point x="1280" y="256" type="line"/>
    </contour>
    <contour>
      <point x="1280" y="640" type="line"/>
      <point x="384" y="640" type="line"/>
      <point x="384" y="1280" type="line"/>
      <point x="1024" y="1280" type="line"/>
      <point x="1024" y="1120" type="line" smooth="yes"/>
      <point x="1024" y="1067"/>
      <point x="1067" y="1024"/>
      <point x="1120" y="1024" type="curve" smooth="yes"/>
      <point x="1280" y="1024" type="line"/>
    </contour>
    <contour>
      <point x="1536" y="576" type="curve" smooth="yes"/>
      <point x="1536" y="541"/>
      <point x="1507" y="512"/>
      <point x="1472" y="512" type="curve" smooth="yes"/>
      <point x="1437" y="512"/>
      <point x="1408" y="541"/>
      <point x="1408" y="576" type="curve" smooth="yes"/>
      <point x="1408" y="611"/>
      <point x="1437" y="640"/>
      <point x="1472" y="640" type="curve" smooth="yes"/>
      <point x="1507" y="640"/>
      <point x="1536" y="611"/>
    </contour>
    <contour>
      <point x="1664" y="160" type="curve" smooth="yes"/>
      <point x="1664" y="576" type="line" smooth="yes"/>
      <point x="1664" y="681"/>
      <point x="1577" y="768"/>
      <point x="1472" y="768" type="curve" smooth="yes"/>
      <point x="1408" y="768" type="line"/>
      <point x="1408" y="1024" type="line" smooth="yes"/>
      <point x="1408" y="1077"/>
      <point x="1378" y="1150"/>
      <point x="1340" y="1188" type="curve" smooth="yes"/>
      <point x="1188" y="1340" type="line" smooth="yes"/>
      <point x="1150" y="1378"/>
      <point x="1077" y="1408"/>
      <point x="1024" y="1408" type="curve" smooth="yes"/>
      <point x="352" y="1408" type="line" smooth="yes"/>
      <point x="299" y="1408"/>
      <point x="256" y="1365"/>
      <point x="256" y="1312" type="curve" smooth="yes"/>
      <point x="256" y="768" type="line"/>
      <point x="192" y="768" type="line" smooth="yes"/>
      <point x="87" y="768"/>
      <point x="0" y="681"/>
      <point x="0" y="576" type="curve" smooth="yes"/>
      <point x="0" y="160" type="line" smooth="yes"/>
      <point x="0" y="143"/>
      <point x="15" y="128"/>
      <point x="32" y="128" type="curve" smooth="yes"/>
      <point x="256" y="128" type="line"/>
      <point x="256" y="-32" type="line" smooth="yes"/>
      <point x="256" y="-85"/>
      <point x="299" y="-128"/>
      <point x="352" y="-128" type="curve" smooth="yes"/>
      <point x="1312" y="-128" type="line" smooth="yes"/>
      <point x="1365" y="-128"/>
      <point x="1408" y="-85"/>
      <point x="1408" y="-32" type="curve" smooth="yes"/>
      <point x="1408" y="128" type="line"/>
      <point x="1632" y="128" type="line" smooth="yes"/>
      <point x="1649" y="128"/>
      <point x="1664" y="143"/>
    </contour>
  </outline>
</glyph>
<glyph name="camera" format="2">
  <advance width="1920"/>
  <unicode hex="F030"/>
  <note>
camera
</note>
  <outline>
    <contour>
      <point x="960" y="864" type="curve" smooth="yes"/>
      <point x="801" y="864"/>
      <point x="672" y="735"/>
      <point x="672" y="576" type="curve" smooth="yes"/>
      <point x="672" y="417"/>
      <point x="801" y="288"/>
      <point x="960" y="288" type="curve" smooth="yes"/>
      <point x="1119" y="288"/>
      <point x="1248" y="417"/>
      <point x="1248" y="576" type="curve" smooth="yes"/>
      <point x="1248" y="735"/>
      <point x="1119" y="864"/>
    </contour>
    <contour>
      <point x="1664" y="1280" type="curve" smooth="yes"/>
      <point x="1440" y="1280" type="line"/>
      <point x="1389" y="1416" type="line" smooth="yes"/>
      <point x="1364" y="1482"/>
      <point x="1286" y="1536"/>
      <point x="1216" y="1536" type="curve" smooth="yes"/>
      <point x="704" y="1536" type="line" smooth="yes"/>
      <point x="634" y="1536"/>
      <point x="556" y="1482"/>
      <point x="531" y="1416" type="curve" smooth="yes"/>
      <point x="480" y="1280" type="line"/>
      <point x="256" y="1280" type="line" smooth="yes"/>
      <point x="115" y="1280"/>
      <point x="0" y="1165"/>
      <point x="0" y="1024" type="curve" smooth="yes"/>
      <point x="0" y="128" type="line" smooth="yes"/>
      <point x="0" y="-13"/>
      <point x="115" y="-128"/>
      <point x="256" y="-128" type="curve" smooth="yes"/>
      <point x="1664" y="-128" type="line" smooth="yes"/>
      <point x="1805" y="-128"/>
      <point x="1920" y="-13"/>
      <point x="1920" y="128" type="curve" smooth="yes"/>
      <point x="1920" y="1024" type="line" smooth="yes"/>
      <point x="1920" y="1165"/>
      <point x="1805" y="1280"/>
    </contour>
    <contour>
      <point x="960" y="128" type="curve" smooth="yes"/>
      <point x="713" y="128"/>
      <point x="512" y="329"/>
      <point x="512" y="576" type="curve" smooth="yes"/>
      <point x="512" y="823"/>
      <point x="713" y="1024"/>
      <point x="960" y="1024" type="curve" smooth="yes"/>
      <point x="1207" y="1024"/>
      <point x="1408" y="823"/>
      <point x="1408" y="576" type="curve" smooth="yes"/>
      <point x="1408" y="329"/>
      <point x="1207" y="128"/>
    </contour>
  </outline>
</glyph>
<glyph name="font" format="2">
  <advance width="1664"/>
  <unicode hex="F031"/>
  <note>
font
</note>
  <outline>
    <contour>
      <point x="555" y="527" type="curve"/>
      <point x="725" y="977" type="line"/>
      <point x="796" y="832"/>
      <point x="857" y="677"/>
      <point x="909" y="525" type="curve"/>
      <point x="890" y="524"/>
      <point x="871" y="523"/>
      <point x="852" y="523" type="curve" smooth="yes"/>
      <point x="753" y="523"/>
      <point x="654" y="526"/>
    </contour>
    <contour>
      <point x="0" y="-128" type="line"/>
      <point x="63" y="-128"/>
      <point x="125" y="-125"/>
      <point x="188" y="-114" type="curve" smooth="yes"/>
      <point x="202" y="-112"/>
      <point x="222" y="-106"/>
      <point x="236" y="-106" type="curve" smooth="yes"/>
      <point x="352" y="-106"/>
      <point x="469" y="-126"/>
      <point x="585" y="-126" type="curve"/>
      <point x="586" y="-117"/>
      <point x="587" y="-108"/>
      <point x="587" y="-99" type="curve" smooth="yes"/>
      <point x="587" y="-79"/>
      <point x="587" y="-60"/>
      <point x="586" y="-41" type="curve"/>
      <point x="529" y="-33"/>
      <point x="382" y="-30"/>
      <point x="382" y="47" type="curve" smooth="yes"/>
      <point x="382" y="85"/>
      <point x="483" y="347"/>
      <point x="509" y="405" type="curve"/>
      <point x="959" y="403" type="line"/>
      <point x="975" y="362"/>
      <point x="1104" y="65"/>
      <point x="1104" y="29" type="curve" smooth="yes"/>
      <point x="1104" y="-8"/>
      <point x="1051" y="-15"/>
      <point x="1024" y="-21" type="curve" smooth="yes"/>
      <point x="893" y="-49" type="line"/>
      <point x="890" y="-75"/>
      <point x="889" y="-101"/>
      <point x="889" y="-127" type="curve"/>
      <point x="1020" y="-123"/>
      <point x="1151" y="-112"/>
      <point x="1282" y="-112" type="curve" smooth="yes"/>
      <point x="1409" y="-112"/>
      <point x="1536" y="-128"/>
      <point x="1663" y="-128" type="curve"/>
      <point x="1663" y="-119"/>
      <point x="1664" y="-111"/>
      <point x="1664" y="-102" type="curve" smooth="yes"/>
      <point x="1664" y="-83"/>
      <point x="1661" y="-64"/>
      <point x="1658" y="-45" type="curve"/>
      <point x="1611" y="-27"/>
      <point x="1519" y="-21"/>
      <point x="1486" y="5" type="curve" smooth="yes"/>
      <point x="1472" y="16"/>
      <point x="1458" y="46"/>
      <point x="1451" y="62" type="curve" smooth="yes"/>
      <point x="1401" y="164"/>
      <point x="1366" y="271"/>
      <point x="1321" y="375" type="curve" smooth="yes"/>
      <point x="1245" y="551"/>
      <point x="1176" y="730"/>
      <point x="1101" y="907" type="curve" smooth="yes"/>
      <point x="896" y="1387" type="line" smooth="yes"/>
      <point x="893" y="1394"/>
      <point x="889" y="1401"/>
      <point x="885" y="1408" type="curve"/>
      <point x="832" y="1408" type="line"/>
      <point x="757" y="1408" type="line"/>
      <point x="477" y="684" type="line"/>
      <point x="240" y="68" type="line" smooth="yes"/>
      <point x="198" y="-40"/>
      <point x="96" y="-20"/>
      <point x="2" y="-49" type="curve"/>
    </contour>
  </outline>
</glyph>
<glyph name="bold" format="2">
  <advance width="1408"/>
  <unicode hex="F032"/>
  <note>
bold
</note>
  <outline>
    <contour>
      <point x="555" y="15" type="curve"/>
      <point x="531" y="73"/>
      <point x="540" y="260"/>
      <point x="540" y="329" type="curve" smooth="yes"/>
      <point x="540" y="434"/>
      <point x="541" y="540"/>
      <point x="541" y="646" type="curve"/>
      <point x="569" y="656"/>
      <point x="612" y="656"/>
      <point x="642" y="656" type="curve" smooth="yes"/>
      <point x="803" y="656"/>
      <point x="937" y="648"/>
      <point x="1030" y="498" type="curve" smooth="yes"/>
      <point x="1063" y="445"/>
      <point x="1071" y="380"/>
      <point x="1071" y="318" type="curve" smooth="yes"/>
      <point x="1071" y="74"/>
      <point x="923" y="-17"/>
      <point x="695" y="-17" type="curve" smooth="yes"/>
      <point x="647" y="-17"/>
      <point x="599" y="-4"/>
    </contour>
    <contour>
      <point x="541" y="761" type="curve"/>
      <point x="540" y="784"/>
      <point x="540" y="807"/>
      <point x="540" y="830" type="curve" smooth="yes"/>
      <point x="540" y="883"/>
      <point x="541" y="936"/>
      <point x="541" y="989" type="curve" smooth="yes"/>
      <point x="541" y="1090"/>
      <point x="533" y="1191"/>
      <point x="533" y="1292" type="curve"/>
      <point x="576" y="1299"/>
      <point x="619" y="1305"/>
      <point x="663" y="1305" type="curve" smooth="yes"/>
      <point x="830" y="1305"/>
      <point x="1003" y="1238"/>
      <point x="1003" y="1043" type="curve" smooth="yes"/>
      <point x="1003" y="812"/>
      <point x="856" y="754"/>
      <point x="650" y="754" type="curve" smooth="yes"/>
      <point x="614" y="754"/>
      <point x="577" y="755"/>
    </contour>
    <contour>
      <point x="0" y="-128" type="line"/>
      <point x="178" y="-121"/>
      <point x="359" y="-105"/>
      <point x="538" y="-105" type="curve" smooth="yes"/>
      <point x="626" y="-105"/>
      <point x="714" y="-111"/>
      <point x="802" y="-111" type="curve" smooth="yes"/>
      <point x="1095" y="-111"/>
      <point x="1408" y="3"/>
      <point x="1408" y="347" type="curve" smooth="yes"/>
      <point x="1408" y="557"/>
      <point x="1239" y="686"/>
      <point x="1049" y="729" type="curve"/>
      <point x="1190" y="793"/>
      <point x="1326" y="860"/>
      <point x="1326" y="1039" type="curve" smooth="yes"/>
      <point x="1326" y="1299"/>
      <point x="1077" y="1407"/>
      <point x="851" y="1407" type="curve" smooth="yes"/>
      <point x="806" y="1407"/>
      <point x="760" y="1408"/>
      <point x="715" y="1408" type="curve" smooth="yes"/>
      <point x="478" y="1408"/>
      <point x="240" y="1391"/>
      <point x="2" y="1387" type="curve"/>
      <point x="6" y="1304" type="line"/>
      <point x="39" y="1300"/>
      <point x="186" y="1293"/>
      <point x="201" y="1264" type="curve" smooth="yes"/>
      <point x="225" y="1217"/>
      <point x="223" y="261"/>
      <point x="223" y="239" type="curve" smooth="yes"/>
      <point x="223" y="172"/>
      <point x="228" y="68"/>
      <point x="193" y="9" type="curve"/>
      <point x="131" y="-17"/>
      <point x="66" y="-18"/>
      <point x="2" y="-34" type="curve"/>
    </contour>
  </outline>
</glyph>
<glyph name="italic" format="2">
  <advance width="1024"/>
  <unicode hex="F033"/>
  <note>
italic
</note>
  <outline>
    <contour>
      <point x="0" y="-126" type="line"/>
      <point x="88" y="-121"/>
      <point x="175" y="-106"/>
      <point x="264" y="-106" type="curve" smooth="yes"/>
      <point x="332" y="-106"/>
      <point x="401" y="-107"/>
      <point x="470" y="-108" type="curve" smooth="yes"/>
      <point x="527" y="-109"/>
      <point x="586" y="-128"/>
      <point x="643" y="-128" type="curve" smooth="yes"/>
      <point x="665" y="-128"/>
      <point x="686" y="-125"/>
      <point x="708" y="-125" type="curve"/>
      <point x="716" y="-92"/>
      <point x="722" y="-59"/>
      <point x="724" y="-26" type="curve"/>
      <point x="662" y="-16"/>
      <point x="600" y="-9"/>
      <point x="539" y="5" type="curve"/>
      <point x="538" y="23" type="line" smooth="yes"/>
      <point x="534" y="65"/>
      <point x="583" y="264"/>
      <point x="593" y="312" type="curve" smooth="yes"/>
      <point x="646" y="569"/>
      <point x="710" y="828"/>
      <point x="758" y="1087" type="curve" smooth="yes"/>
      <point x="768" y="1144"/>
      <point x="773" y="1203"/>
      <point x="795" y="1257" type="curve"/>
      <point x="863" y="1284"/>
      <point x="936" y="1295"/>
      <point x="1005" y="1319" type="curve"/>
      <point x="1013" y="1348"/>
      <point x="1020" y="1378"/>
      <point x="1024" y="1408" type="curve"/>
      <point x="918" y="1402"/>
      <point x="812" y="1392"/>
      <point x="706" y="1392" type="curve" smooth="yes"/>
      <point x="576" y="1392"/>
      <point x="445" y="1402"/>
      <point x="316" y="1408" type="curve"/>
      <point x="297" y="1305" type="line"/>
      <point x="357" y="1295"/>
      <point x="424" y="1303"/>
      <point x="479" y="1273" type="curve"/>
      <point x="479" y="1248" type="line" smooth="yes"/>
      <point x="482" y="1168"/>
      <point x="264" y="187"/>
      <point x="251" y="119" type="curve" smooth="yes"/>
      <point x="244" y="84"/>
      <point x="233" y="47"/>
      <point x="210" y="18" type="curve"/>
      <point x="150" y="-13"/>
      <point x="81" y="-21"/>
      <point x="17" y="-41" type="curve"/>
    </contour>
  </outline>
</glyph>
<glyph name="text_height" format="2">
  <advance width="1792"/>
  <unicode hex="F034"/>
  <note>
text_height
</note>
  <outline>
    <contour>
      <point x="1744" y="128" type="curve" smooth="yes"/>
      <point x="1664" y="128" type="line"/>
      <point x="1664" y="1152" type="line"/>
      <point x="1744" y="1152" type="line" smooth="yes"/>
      <point x="1788" y="1152"/>
      <point x="1802" y="1180"/>
      <point x="1775" y="1215" type="curve" smooth="yes"/>
      <point x="1649" y="1377" type="line" smooth="yes"/>
      <point x="1622" y="1412"/>
      <point x="1578" y="1412"/>
      <point x="1551" y="1377" type="curve" smooth="yes"/>
      <point x="1425" y="1215" type="line" smooth="yes"/>
      <point x="1398" y="1180"/>
      <point x="1412" y="1152"/>
      <point x="1456" y="1152" type="curve" smooth="yes"/>
      <point x="1536" y="1152" type="line"/>
      <point x="1536" y="128" type="line"/>
      <point x="1456" y="128" type="line" smooth="yes"/>
      <point x="1412" y="128"/>
      <point x="1398" y="100"/>
      <point x="1425" y="65" type="curve" smooth="yes"/>
      <point x="1551" y="-97" type="line" smooth="yes"/>
      <point x="1578" y="-132"/>
      <point x="1622" y="-132"/>
      <point x="1649" y="-97" type="curve" smooth="yes"/>
      <point x="1775" y="65" type="line" smooth="yes"/>
      <point x="1802" y="100"/>
      <point x="1788" y="128"/>
    </contour>
    <contour>
      <point x="135" y="1380" type="curve" smooth="yes"/>
      <point x="81" y="1407" type="line"/>
      <point x="0" y="1406" type="line"/>
      <point x="0" y="1023" type="line"/>
      <point x="13" y="1006"/>
      <point x="38" y="990"/>
      <point x="56" y="979" type="curve"/>
      <point x="116" y="983"/>
      <point x="116" y="1183"/>
      <point x="164" y="1216" type="curve" smooth="yes"/>
      <point x="193" y="1237"/>
      <point x="300" y="1254"/>
      <point x="337" y="1254" type="curve" smooth="yes"/>
      <point x="354" y="1254"/>
      <point x="485" y="1257"/>
      <point x="499" y="1242" type="curve" smooth="yes"/>
      <point x="511" y="1228"/>
      <point x="507" y="1156"/>
      <point x="507" y="1138" type="curve" smooth="yes"/>
      <point x="507" y="1021" type="line" smooth="yes"/>
      <point x="507" y="819"/>
      <point x="513" y="617"/>
      <point x="513" y="415" type="curve" smooth="yes"/>
      <point x="513" y="352"/>
      <point x="516" y="81"/>
      <point x="494" y="32" type="curve"/>
      <point x="431" y="-5"/>
      <point x="294" y="-6"/>
      <point x="256" y="-67" type="curve"/>
      <point x="256" y="-76" type="line" smooth="yes"/>
      <point x="256" y="-93"/>
      <point x="258" y="-111"/>
      <point x="259" y="-128" type="curve"/>
      <point x="360" y="-128"/>
      <point x="461" y="-110"/>
      <point x="562" y="-110" type="curve" smooth="yes"/>
      <point x="705" y="-110"/>
      <point x="845" y="-132"/>
      <point x="987" y="-128" type="curve" smooth="yes"/>
      <point x="1021" y="-127" type="line"/>
      <point x="1023" y="-117"/>
      <point x="1024" y="-107"/>
      <point x="1024" y="-98" type="curve" smooth="yes"/>
      <point x="1024" y="-81"/>
      <point x="1021" y="-64"/>
      <point x="1019" y="-48" type="curve"/>
      <point x="941" y="-13"/>
      <point x="851" y="-7"/>
      <point x="775" y="32" type="curve"/>
      <point x="753" y="106"/>
      <point x="765" y="187"/>
      <point x="765" y="264" type="curve" smooth="yes"/>
      <point x="765" y="545"/>
      <point x="762" y="826"/>
      <point x="761" y="1107" type="curve" smooth="yes"/>
      <point x="760" y="1152"/>
      <point x="764" y="1199"/>
      <point x="769" y="1243" type="curve"/>
      <point x="859" y="1254"/>
      <point x="954" y="1250"/>
      <point x="1045" y="1250" type="curve" smooth="yes"/>
      <point x="1076" y="1250"/>
      <point x="1099" y="1255"/>
      <point x="1120" y="1229" type="curve" smooth="yes"/>
      <point x="1122" y="1227"/>
      <point x="1146" y="1092"/>
      <point x="1153" y="1072" type="curve" smooth="yes"/>
      <point x="1168" y="1028"/>
      <point x="1184" y="984"/>
      <point x="1207" y="944" type="curve"/>
      <point x="1230" y="947"/>
      <point x="1253" y="954"/>
      <point x="1275" y="962" type="curve"/>
      <point x="1281" y="997"/>
      <point x="1280" y="1036"/>
      <point x="1280" y="1071" type="curve" smooth="yes"/>
      <point x="1280" y="1183"/>
      <point x="1280" y="1295"/>
      <point x="1278" y="1407" type="curve"/>
      <point x="1269" y="1407"/>
      <point x="1259" y="1408"/>
      <point x="1250" y="1408" type="curve" smooth="yes"/>
      <point x="1208" y="1407" type="line"/>
      <point x="1181" y="1369"/>
      <point x="1158" y="1378"/>
      <point x="1118" y="1378" type="curve" smooth="yes"/>
      <point x="825" y="1378" type="line" smooth="yes"/>
      <point x="753" y="1378"/>
      <point x="682" y="1379"/>
      <point x="610" y="1379" type="curve" smooth="yes"/>
      <point x="522" y="1379"/>
      <point x="434" y="1375"/>
      <point x="346" y="1375" type="curve" smooth="yes"/>
      <point x="325" y="1375"/>
      <point x="142" y="1377"/>
    </contour>
  </outline>
</glyph>
<glyph name="text_width" format="2">
  <advance width="1536"/>
  <unicode hex="F035"/>
  <note>
text_width
</note>
  <outline>
    <contour>
      <point x="135" y="1380" type="curve" smooth="yes"/>
      <point x="81" y="1407" type="line"/>
      <point x="0" y="1406" type="line"/>
      <point x="0" y="1023" type="line"/>
      <point x="13" y="1006"/>
      <point x="38" y="990"/>
      <point x="56" y="979" type="curve"/>
      <point x="116" y="984"/>
      <point x="117" y="1185"/>
      <point x="164" y="1216" type="curve" smooth="yes"/>
      <point x="188" y="1232"/>
      <point x="423" y="1254"/>
      <point x="465" y="1254" type="curve" smooth="yes"/>
      <point x="482" y="1254"/>
      <point x="613" y="1257"/>
      <point x="627" y="1242" type="curve" smooth="yes"/>
      <point x="642" y="1225"/>
      <point x="635" y="990"/>
      <point x="635" y="949" type="curve" smooth="yes"/>
      <point x="635" y="934"/>
      <point x="640" y="919"/>
      <point x="640" y="905" type="curve" smooth="yes"/>
      <point x="640" y="817"/>
      <point x="647" y="344"/>
      <point x="622" y="288" type="curve"/>
      <point x="559" y="251"/>
      <point x="422" y="250"/>
      <point x="384" y="189" type="curve"/>
      <point x="384" y="180" type="line" smooth="yes"/>
      <point x="384" y="163"/>
      <point x="386" y="145"/>
      <point x="387" y="128" type="curve"/>
      <point x="488" y="128"/>
      <point x="589" y="146"/>
      <point x="690" y="146" type="curve" smooth="yes"/>
      <point x="833" y="146"/>
      <point x="973" y="124"/>
      <point x="1115" y="128" type="curve" smooth="yes"/>
      <point x="1149" y="129" type="line"/>
      <point x="1151" y="139"/>
      <point x="1152" y="149"/>
      <point x="1152" y="158" type="curve" smooth="yes"/>
      <point x="1152" y="175"/>
      <point x="1149" y="192"/>
      <point x="1147" y="208" type="curve"/>
      <point x="1069" y="243"/>
      <point x="979" y="249"/>
      <point x="903" y="288" type="curve"/>
      <point x="881" y="362"/>
      <point x="893" y="443"/>
      <point x="893" y="520" type="curve" smooth="yes"/>
      <point x="893" y="682"/>
      <point x="891" y="844"/>
      <point x="890" y="1007" type="curve" smooth="yes"/>
      <point x="890" y="955" type="line"/>
      <point x="889" y="1107" type="line" smooth="yes"/>
      <point x="888" y="1152"/>
      <point x="892" y="1199"/>
      <point x="897" y="1243" type="curve"/>
      <point x="1018" y="1257"/>
      <point x="1160" y="1250"/>
      <point x="1283" y="1250" type="curve" smooth="yes"/>
      <point x="1293" y="1250"/>
      <point x="1341" y="1251"/>
      <point x="1349" y="1248" type="curve" smooth="yes"/>
      <point x="1360" y="1244"/>
      <point x="1369" y="1238"/>
      <point x="1376" y="1229" type="curve" smooth="yes"/>
      <point x="1377" y="1227"/>
      <point x="1402" y="1092"/>
      <point x="1409" y="1072" type="curve" smooth="yes"/>
      <point x="1424" y="1028"/>
      <point x="1440" y="984"/>
      <point x="1463" y="944" type="curve"/>
      <point x="1486" y="947"/>
      <point x="1509" y="954"/>
      <point x="1531" y="962" type="curve"/>
      <point x="1537" y="997"/>
      <point x="1536" y="1035"/>
      <point x="1536" y="1071" type="curve" smooth="yes"/>
      <point x="1536" y="1183"/>
      <point x="1536" y="1295"/>
      <point x="1534" y="1407" type="curve"/>
      <point x="1525" y="1407"/>
      <point x="1515" y="1408"/>
      <point x="1506" y="1408" type="curve" smooth="yes"/>
      <point x="1464" y="1407" type="line"/>
      <point x="1451" y="1389"/>
      <point x="1430" y="1375"/>
      <point x="1408" y="1376" type="curve" smooth="yes"/>
      <point x="1143" y="1385"/>
      <point x="875" y="1379"/>
      <point x="610" y="1379" type="curve" smooth="yes"/>
      <point x="522" y="1379"/>
      <point x="434" y="1375"/>
      <point x="346" y="1375" type="curve" smooth="yes"/>
      <point x="325" y="1375"/>
      <point x="142" y="1377"/>
    </contour>
    <contour>
      <point x="1310" y="125" type="curve" smooth="yes"/>
      <point x="1264" y="125"/>
      <point x="1280" y="18"/>
      <point x="1280" y="0" type="curve"/>
      <point x="256" y="0" type="line"/>
      <point x="256" y="18"/>
      <point x="272" y="125"/>
      <point x="226" y="125" type="curve" smooth="yes"/>
      <point x="191" y="125"/>
      <point x="58" y="6"/>
      <point x="31" y="-15" type="curve" smooth="yes"/>
      <point x="16" y="-27"/>
      <point x="5" y="-44"/>
      <point x="5" y="-64" type="curve" smooth="yes"/>
      <point x="5" y="-84"/>
      <point x="16" y="-101"/>
      <point x="31" y="-113" type="curve" smooth="yes"/>
      <point x="58" y="-134"/>
      <point x="191" y="-253"/>
      <point x="226" y="-253" type="curve" smooth="yes"/>
      <point x="272" y="-253"/>
      <point x="256" y="-146"/>
      <point x="256" y="-128" type="curve"/>
      <point x="1280" y="-128" type="line"/>
      <point x="1280" y="-146"/>
      <point x="1264" y="-253"/>
      <point x="1310" y="-253" type="curve" smooth="yes"/>
      <point x="1345" y="-253"/>
      <point x="1478" y="-134"/>
      <point x="1505" y="-113" type="curve" smooth="yes"/>
      <point x="1520" y="-101"/>
      <point x="1531" y="-84"/>
      <point x="1531" y="-64" type="curve" smooth="yes"/>
      <point x="1531" y="-44"/>
      <point x="1520" y="-27"/>
      <point x="1505" y="-15" type="curve" smooth="yes"/>
      <point x="1478" y="6"/>
      <point x="1345" y="125"/>
    </contour>
  </outline>
</glyph>
<glyph name="align_right" format="2">
  <advance width="1792"/>
  <unicode hex="F038"/>
  <note>
align_right
</note>
  <outline>
    <contour>
      <point x="1792" y="64" type="curve" smooth="yes"/>
      <point x="1792" y="192" type="line" smooth="yes"/>
      <point x="1792" y="227"/>
      <point x="1763" y="256"/>
      <point x="1728" y="256" type="curve" smooth="yes"/>
      <point x="64" y="256" type="line" smooth="yes"/>
      <point x="29" y="256"/>
      <point x="0" y="227"/>
      <point x="0" y="192" type="curve" smooth="yes"/>
      <point x="0" y="64" type="line" smooth="yes"/>
      <point x="0" y="29"/>
      <point x="29" y="0"/>
      <point x="64" y="0" type="curve" smooth="yes"/>
      <point x="1728" y="0" type="line" smooth="yes"/>
      <point x="1763" y="0"/>
      <point x="1792" y="29"/>
    </contour>
    <contour>
      <point x="1792" y="448" type="curve" smooth="yes"/>
      <point x="1792" y="576" type="line" smooth="yes"/>
      <point x="1792" y="611"/>
      <point x="1763" y="640"/>
      <point x="1728" y="640" type="curve" smooth="yes"/>
      <point x="448" y="640" type="line" smooth="yes"/>
      <point x="413" y="640"/>
      <point x="384" y="611"/>
      <point x="384" y="576" type="curve" smooth="yes"/>
      <point x="384" y="448" type="line" smooth="yes"/>
      <point x="384" y="413"/>
      <point x="413" y="384"/>
      <point x="448" y="384" type="curve" smooth="yes"/>
      <point x="1728" y="384" type="line" smooth="yes"/>
      <point x="1763" y="384"/>
      <point x="1792" y="413"/>
    </contour>
    <contour>
      <point x="1792" y="832" type="curve" smooth="yes"/>
      <point x="1792" y="960" type="line" smooth="yes"/>
      <point x="1792" y="995"/>
      <point x="1763" y="1024"/>
      <point x="1728" y="1024" type="curve" smooth="yes"/>
      <point x="192" y="1024" type="line" smooth="yes"/>
      <point x="157" y="1024"/>
      <point x="128" y="995"/>
      <point x="128" y="960" type="curve" smooth="yes"/>
      <point x="128" y="832" type="line" smooth="yes"/>
      <point x="128" y="797"/>
      <point x="157" y="768"/>
      <point x="192" y="768" type="curve" smooth="yes"/>
      <point x="1728" y="768" type="line" smooth="yes"/>
      <point x="1763" y="768"/>
      <point x="1792" y="797"/>
    </contour>
    <contour>
      <point x="1792" y="1216" type="curve" smooth="yes"/>
      <point x="1792" y="1344" type="line" smooth="yes"/>
      <point x="1792" y="1379"/>
      <point x="1763" y="1408"/>
      <point x="1728" y="1408" type="curve" smooth="yes"/>
      <point x="576" y="1408" type="line" smooth="yes"/>
      <point x="541" y="1408"/>
      <point x="512" y="1379"/>
      <point x="512" y="1344" type="curve" smooth="yes"/>
      <point x="512" y="1216" type="line" smooth="yes"/>
      <point x="512" y="1181"/>
      <point x="541" y="1152"/>
      <point x="576" y="1152" type="curve" smooth="yes"/>
      <point x="1728" y="1152" type="line" smooth="yes"/>
      <point x="1763" y="1152"/>
      <point x="1792" y="1181"/>
    </contour>
  </outline>
</glyph>
<glyph name="list" format="2">
  <advance width="1792"/>
  <unicode hex="F03A"/>
  <note>
list
</note>
  <outline>
    <contour>
      <point x="256" y="32" type="curve" smooth="yes"/>
      <point x="256" y="224" type="line" smooth="yes"/>
      <point x="256" y="241"/>
      <point x="241" y="256"/>
      <point x="224" y="256" type="curve" smooth="yes"/>
      <point x="32" y="256" type="line" smooth="yes"/>
      <point x="15" y="256"/>
      <point x="0" y="241"/>
      <point x="0" y="224" type="curve" smooth="yes"/>
      <point x="0" y="32" type="line" smooth="yes"/>
      <point x="0" y="15"/>
      <point x="15" y="0"/>
      <point x="32" y="0" type="curve" smooth="yes"/>
      <point x="224" y="0" type="line" smooth="yes"/>
      <point x="241" y="0"/>
      <point x="256" y="15"/>
    </contour>
    <contour>
      <point x="256" y="416" type="curve" smooth="yes"/>
      <point x="256" y="608" type="line" smooth="yes"/>
      <point x="256" y="625"/>
      <point x="241" y="640"/>
      <point x="224" y="640" type="curve" smooth="yes"/>
      <point x="32" y="640" type="line" smooth="yes"/>
      <point x="15" y="640"/>
      <point x="0" y="625"/>
      <point x="0" y="608" type="curve" smooth="yes"/>
      <point x="0" y="416" type="line" smooth="yes"/>
      <point x="0" y="399"/>
      <point x="15" y="384"/>
      <point x="32" y="384" type="curve" smooth="yes"/>
      <point x="224" y="384" type="line" smooth="yes"/>
      <point x="241" y="384"/>
      <point x="256" y="399"/>
    </contour>
    <contour>
      <point x="256" y="800" type="curve" smooth="yes"/>
      <point x="256" y="992" type="line" smooth="yes"/>
      <point x="256" y="1009"/>
      <point x="241" y="1024"/>
      <point x="224" y="1024" type="curve" smooth="yes"/>
      <point x="32" y="1024" type="line" smooth="yes"/>
      <point x="15" y="1024"/>
      <point x="0" y="1009"/>
      <point x="0" y="992" type="curve" smooth="yes"/>
      <point x="0" y="800" type="line" smooth="yes"/>
      <point x="0" y="783"/>
      <point x="15" y="768"/>
      <point x="32" y="768" type="curve" smooth="yes"/>
      <point x="224" y="768" type="line" smooth="yes"/>
      <point x="241" y="768"/>
      <point x="256" y="783"/>
    </contour>
    <contour>
      <point x="1792" y="32" type="curve" smooth="yes"/>
      <point x="1792" y="224" type="line" smooth="yes"/>
      <point x="1792" y="241"/>
      <point x="1777" y="256"/>
      <point x="1760" y="256" type="curve" smooth="yes"/>
      <point x="416" y="256" type="line" smooth="yes"/>
      <point x="399" y="256"/>
      <point x="384" y="241"/>
      <point x="384" y="224" type="curve" smooth="yes"/>
      <point x="384" y="32" type="line" smooth="yes"/>
      <point x="384" y="15"/>
      <point x="399" y="0"/>
      <point x="416" y="0" type="curve" smooth="yes"/>
      <point x="1760" y="0" type="line" smooth="yes"/>
      <point x="1777" y="0"/>
      <point x="1792" y="15"/>
    </contour>
    <contour>
      <point x="256" y="1184" type="curve" smooth="yes"/>
      <point x="256" y="1376" type="line" smooth="yes"/>
      <point x="256" y="1393"/>
      <point x="241" y="1408"/>
      <point x="224" y="1408" type="curve" smooth="yes"/>
      <point x="32" y="1408" type="line" smooth="yes"/>
      <point x="15" y="1408"/>
      <point x="0" y="1393"/>
      <point x="0" y="1376" type="curve" smooth="yes"/>
      <point x="0" y="1184" type="line" smooth="yes"/>
      <point x="0" y="1167"/>
      <point x="15" y="1152"/>
      <point x="32" y="1152" type="curve" smooth="yes"/>
      <point x="224" y="1152" type="line" smooth="yes"/>
      <point x="241" y="1152"/>
      <point x="256" y="1167"/>
    </contour>
    <contour>
      <point x="1792" y="416" type="curve" smooth="yes"/>
      <point x="1792" y="608" type="line" smooth="yes"/>
      <point x="1792" y="625"/>
      <point x="1777" y="640"/>
      <point x="1760" y="640" type="curve" smooth="yes"/>
      <point x="416" y="640" type="line" smooth="yes"/>
      <point x="399" y="640"/>
      <point x="384" y="625"/>
      <point x="384" y="608" type="curve" smooth="yes"/>
      <point x="384" y="416" type="line" smooth="yes"/>
      <point x="384" y="399"/>
      <point x="399" y="384"/>
      <point x="416" y="384" type="curve" smooth="yes"/>
      <point x="1760" y="384" type="line" smooth="yes"/>
      <point x="1777" y="384"/>
      <point x="1792" y="399"/>
    </contour>
    <contour>
      <point x="1792" y="800" type="curve" smooth="yes"/>
      <point x="1792" y="992" type="line" smooth="yes"/>
      <point x="1792" y="1009"/>
      <point x="1777" y="1024"/>
      <point x="1760" y="1024" type="curve" smooth="yes"/>
      <point x="416" y="1024" type="line" smooth="yes"/>
      <point x="399" y="1024"/>
      <point x="384" y="1009"/>
      <point x="384" y="992" type="curve" smooth="yes"/>
      <point x="384" y="800" type="line" smooth="yes"/>
      <point x="384" y="783"/>
      <point x="399" y="768"/>
      <point x="416" y="768" type="curve" smooth="yes"/>
      <point x="1760" y="768" type="line" smooth="yes"/>
      <point x="1777" y="768"/>
      <point x="1792" y="783"/>
    </contour>
    <contour>
      <point x="1792" y="1184" type="curve" smooth="yes"/>
      <point x="1792" y="1376" type="line" smooth="yes"/>
      <point x="1792" y="1393"/>
      <point x="1777" y="1408"/>
      <point x="1760" y="1408" type="curve" smooth="yes"/>
      <point x="416" y="1408" type="line" smooth="yes"/>
      <point x="399" y="1408"/>
      <point x="384" y="1393"/>
      <point x="384" y="1376" type="curve" smooth="yes"/>
      <point x="384" y="1184" type="line" smooth="yes"/>
      <point x="384" y="1167"/>
      <point x="399" y="1152"/>
      <point x="416" y="1152" type="curve" smooth="yes"/>
      <point x="1760" y="1152" type="line" smooth="yes"/>
      <point x="1777" y="1152"/>
      <point x="1792" y="1167"/>
    </contour>
  </outline>
</glyph>
<glyph name="indent_left" format="2">
  <advance width="1792"/>
  <unicode hex="F03B"/>
  <note>
indent_left
</note>
  <outline>
    <contour>
      <point x="384" y="416" type="curve" smooth="yes"/>
      <point x="384" y="992" type="line" smooth="yes"/>
      <point x="384" y="1009"/>
      <point x="369" y="1024"/>
      <point x="352" y="1024" type="curve" smooth="yes"/>
      <point x="344" y="1024"/>
      <point x="335" y="1021"/>
      <point x="329" y="1015" type="curve" smooth="yes"/>
      <point x="41" y="727" type="line" smooth="yes"/>
      <point x="35" y="721"/>
      <point x="32" y="712"/>
      <point x="32" y="704" type="curve" smooth="yes"/>
      <point x="32" y="696"/>
      <point x="35" y="687"/>
      <point x="41" y="681" type="curve" smooth="yes"/>
      <point x="329" y="393" type="line" smooth="yes"/>
      <point x="335" y="387"/>
      <point x="344" y="384"/>
      <point x="352" y="384" type="curve" smooth="yes"/>
      <point x="369" y="384"/>
      <point x="384" y="399"/>
    </contour>
    <contour>
      <point x="1792" y="32" type="curve" smooth="yes"/>
      <point x="1792" y="224" type="line" smooth="yes"/>
      <point x="1792" y="241"/>
      <point x="1777" y="256"/>
      <point x="1760" y="256" type="curve" smooth="yes"/>
      <point x="32" y="256" type="line" smooth="yes"/>
      <point x="15" y="256"/>
      <point x="0" y="241"/>
      <point x="0" y="224" type="curve" smooth="yes"/>
      <point x="0" y="32" type="line" smooth="yes"/>
      <point x="0" y="15"/>
      <point x="15" y="0"/>
      <point x="32" y="0" type="curve" smooth="yes"/>
      <point x="1760" y="0" type="line" smooth="yes"/>
      <point x="1777" y="0"/>
      <point x="1792" y="15"/>
    </contour>
    <contour>
      <point x="1792" y="416" type="curve" smooth="yes"/>
      <point x="1792" y="608" type="line" smooth="yes"/>
      <point x="1792" y="625"/>
      <point x="1777" y="640"/>
      <point x="1760" y="640" type="curve" smooth="yes"/>
      <point x="672" y="640" type="line" smooth="yes"/>
      <point x="655" y="640"/>
      <point x="640" y="625"/>
      <point x="640" y="608" type="curve" smooth="yes"/>
      <point x="640" y="416" type="line" smooth="yes"/>
      <point x="640" y="399"/>
      <point x="655" y="384"/>
      <point x="672" y="384" type="curve" smooth="yes"/>
      <point x="1760" y="384" type="line" smooth="yes"/>
      <point x="1777" y="384"/>
      <point x="1792" y="399"/>
    </contour>
    <contour>
      <point x="1792" y="800" type="curve" smooth="yes"/>
      <point x="1792" y="992" type="line" smooth="yes"/>
      <point x="1792" y="1009"/>
      <point x="1777" y="1024"/>
      <point x="1760" y="1024" type="curve" smooth="yes"/>
      <point x="672" y="1024" type="line" smooth="yes"/>
      <point x="655" y="1024"/>
      <point x="640" y="1009"/>
      <point x="640" y="992" type="curve" smooth="yes"/>
      <point x="640" y="800" type="line" smooth="yes"/>
      <point x="640" y="783"/>
      <point x="655" y="768"/>
      <point x="672" y="768" type="curve" smooth="yes"/>
      <point x="1760" y="768" type="line" smooth="yes"/>
      <point x="1777" y="768"/>
      <point x="1792" y="783"/>
    </contour>
    <contour>
      <point x="1792" y="1184" type="curve" smooth="yes"/>
      <point x="1792" y="1376" type="line" smooth="yes"/>
      <point x="1792" y="1393"/>
      <point x="1777" y="1408"/>
      <point x="1760" y="1408" type="curve" smooth="yes"/>
      <point x="32" y="1408" type="line" smooth="yes"/>
      <point x="15" y="1408"/>
      <point x="0" y="1393"/>
      <point x="0" y="1376" type="curve" smooth="yes"/>
      <point x="0" y="1184" type="line" smooth="yes"/>
      <point x="0" y="1167"/>
      <point x="15" y="1152"/>
      <point x="32" y="1152" type="curve" smooth="yes"/>
      <point x="1760" y="1152" type="line" smooth="yes"/>
      <point x="1777" y="1152"/>
      <point x="1792" y="1167"/>
    </contour>
  </outline>
</glyph>
<glyph name="facetime_video" format="2">
  <advance width="1792"/>
  <unicode hex="F03D"/>
  <note>
facetime_video
</note>
  <outline>
    <contour>
      <point x="1792" y="96" type="curve" smooth="yes"/>
      <point x="1792" y="1184" type="line" smooth="yes"/>
      <point x="1792" y="1210"/>
      <point x="1776" y="1233"/>
      <point x="1753" y="1243" type="curve" smooth="yes"/>
      <point x="1745" y="1246"/>
      <point x="1736" y="1248"/>
      <point x="1728" y="1248" type="curve" smooth="yes"/>
      <point x="1711" y="1248"/>
      <point x="1695" y="1242"/>
      <point x="1683" y="1229" type="curve" smooth="yes"/>
      <point x="1280" y="827" type="line"/>
      <point x="1280" y="992" type="line" smooth="yes"/>
      <point x="1280" y="1151"/>
      <point x="1151" y="1280"/>
      <point x="992" y="1280" type="curve" smooth="yes"/>
      <point x="288" y="1280" type="line" smooth="yes"/>
      <point x="129" y="1280"/>
      <point x="0" y="1151"/>
      <point x="0" y="992" type="curve" smooth="yes"/>
      <point x="0" y="288" type="line" smooth="yes"/>
      <point x="0" y="129"/>
      <point x="129" y="0"/>
      <point x="288" y="0" type="curve" smooth="yes"/>
      <point x="992" y="0" type="line" smooth="yes"/>
      <point x="1151" y="0"/>
      <point x="1280" y="129"/>
      <point x="1280" y="288" type="curve" smooth="yes"/>
      <point x="1280" y="454" type="line"/>
      <point x="1683" y="51" type="line" smooth="yes"/>
      <point x="1695" y="38"/>
      <point x="1711" y="32"/>
      <point x="1728" y="32" type="curve" smooth="yes"/>
      <point x="1736" y="32"/>
      <point x="1745" y="34"/>
      <point x="1753" y="37" type="curve" smooth="yes"/>
      <point x="1776" y="47"/>
      <point x="1792" y="70"/>
    </contour>
  </outline>
</glyph>
<glyph name="picture" format="2">
  <advance width="1920"/>
  <unicode hex="F03E"/>
  <note>
picture
</note>
  <outline>
    <contour>
      <point x="640" y="960" type="curve" smooth="yes"/>
      <point x="640" y="1066"/>
      <point x="554" y="1152"/>
      <point x="448" y="1152" type="curve" smooth="yes"/>
      <point x="342" y="1152"/>
      <point x="256" y="1066"/>
      <point x="256" y="960" type="curve" smooth="yes"/>
      <point x="256" y="854"/>
      <point x="342" y="768"/>
      <point x="448" y="768" type="curve" smooth="yes"/>
      <point x="554" y="768"/>
      <point x="640" y="854"/>
    </contour>
    <contour>
      <point x="1664" y="128" type="line"/>
      <point x="1664" y="576" type="line"/>
      <point x="1248" y="992" type="line"/>
      <point x="736" y="480" type="line"/>
      <point x="576" y="640" type="line"/>
      <point x="256" y="320" type="line"/>
      <point x="256" y="128" type="line"/>
    </contour>
    <contour>
      <point x="1760" y="1280" type="line" smooth="yes"/>
      <point x="1777" y="1280"/>
      <point x="1792" y="1265"/>
      <point x="1792" y="1248" type="curve" smooth="yes"/>
      <point x="1792" y="32" type="line" smooth="yes"/>
      <point x="1792" y="15"/>
      <point x="1777" y="0"/>
      <point x="1760" y="0" type="curve" smooth="yes"/>
      <point x="160" y="0" type="line" smooth="yes"/>
      <point x="143" y="0"/>
      <point x="128" y="15"/>
      <point x="128" y="32" type="curve" smooth="yes"/>
      <point x="128" y="1248" type="line" smooth="yes"/>
      <point x="128" y="1265"/>
      <point x="143" y="1280"/>
      <point x="160" y="1280" type="curve" smooth="yes"/>
    </contour>
    <contour>
      <point x="1920" y="32" type="curve" smooth="yes"/>
      <point x="1920" y="1248" type="line" smooth="yes"/>
      <point x="1920" y="1336"/>
      <point x="1848" y="1408"/>
      <point x="1760" y="1408" type="curve"/>
      <point x="1760" y="1408" type="line"/>
      <point x="160" y="1408" type="line" smooth="yes"/>
      <point x="72" y="1408"/>
      <point x="0" y="1336"/>
      <point x="0" y="1248" type="curve" smooth="yes"/>
      <point x="0" y="32" type="line" smooth="yes"/>
      <point x="0" y="-56"/>
      <point x="72" y="-128"/>
      <point x="160" y="-128" type="curve" smooth="yes"/>
      <point x="1760" y="-128" type="line" smooth="yes"/>
      <point x="1848" y="-128"/>
      <point x="1920" y="-56"/>
    </contour>
  </outline>
</glyph>
<glyph name="pencil" format="2">
  <advance width="1536"/>
  <unicode hex="F040"/>
  <note>
pencil
</note>
  <outline>
    <contour>
      <point x="454" y="91" type="line"/>
      <point x="363" y="0" type="line"/>
      <point x="256" y="0" type="line"/>
      <point x="256" y="128" type="line"/>
      <point x="128" y="128" type="line"/>
      <point x="128" y="235" type="line"/>
      <point x="219" y="326" type="line"/>
    </contour>
    <contour>
      <point x="886" y="928" type="curve" smooth="yes"/>
      <point x="886" y="922"/>
      <point x="884" y="916"/>
      <point x="879" y="911" type="curve" smooth="yes"/>
      <point x="337" y="369" type="line" smooth="yes"/>
      <point x="332" y="364"/>
      <point x="326" y="362"/>
      <point x="320" y="362" type="curve" smooth="yes"/>
      <point x="307" y="362"/>
      <point x="298" y="371"/>
      <point x="298" y="384" type="curve" smooth="yes"/>
      <point x="298" y="390"/>
      <point x="300" y="396"/>
      <point x="305" y="401" type="curve" smooth="yes"/>
      <point x="847" y="943" type="line" smooth="yes"/>
      <point x="852" y="948"/>
      <point x="858" y="950"/>
      <point x="864" y="950" type="curve" smooth="yes"/>
      <point x="877" y="950"/>
      <point x="886" y="941"/>
    </contour>
    <contour>
      <point x="1248" y="704" type="line"/>
      <point x="832" y="1120" type="line"/>
      <point x="0" y="288" type="line"/>
      <point x="0" y="-128" type="line"/>
      <point x="416" y="-128" type="line"/>
    </contour>
    <contour>
      <point x="1515" y="1024" type="curve" smooth="yes"/>
      <point x="1515" y="1058"/>
      <point x="1501" y="1091"/>
      <point x="1478" y="1115" type="curve" smooth="yes"/>
      <point x="1243" y="1349" type="line" smooth="yes"/>
      <point x="1219" y="1373"/>
      <point x="1186" y="1387"/>
      <point x="1152" y="1387" type="curve" smooth="yes"/>
      <point x="1118" y="1387"/>
      <point x="1085" y="1373"/>
      <point x="1062" y="1349" type="curve" smooth="yes"/>
      <point x="896" y="1184" type="line"/>
      <point x="1312" y="768" type="line"/>
      <point x="1478" y="934" type="line" smooth="yes"/>
      <point x="1501" y="957"/>
      <point x="1515" y="990"/>
    </contour>
  </outline>
</glyph>
<glyph name="map_marker" format="2">
  <advance width="1024"/>
  <unicode hex="F041"/>
  <note>
map_marker
</note>
  <outline>
    <contour>
      <point x="768" y="896" type="curve" smooth="yes"/>
      <point x="768" y="755"/>
      <point x="653" y="640"/>
      <point x="512" y="640" type="curve" smooth="yes"/>
      <point x="371" y="640"/>
      <point x="256" y="755"/>
      <point x="256" y="896" type="curve" smooth="yes"/>
      <point x="256" y="1037"/>
      <point x="371" y="1152"/>
      <point x="512" y="1152" type="curve" smooth="yes"/>
      <point x="653" y="1152"/>
      <point x="768" y="1037"/>
    </contour>
    <contour>
      <point x="1024" y="896" type="curve" smooth="yes"/>
      <point x="1024" y="1179"/>
      <point x="795" y="1408"/>
      <point x="512" y="1408" type="curve" smooth="yes"/>
      <point x="229" y="1408"/>
      <point x="0" y="1179"/>
      <point x="0" y="896" type="curve" smooth="yes"/>
      <point x="0" y="835"/>
      <point x="7" y="772"/>
      <point x="33" y="717" type="curve" smooth="yes"/>
      <point x="398" y="-57" type="line" smooth="yes"/>
      <point x="418" y="-101"/>
      <point x="464" y="-128"/>
      <point x="512" y="-128" type="curve" smooth="yes"/>
      <point x="560" y="-128"/>
      <point x="606" y="-101"/>
      <point x="627" y="-57" type="curve" smooth="yes"/>
      <point x="991" y="717" type="line" smooth="yes"/>
      <point x="1017" y="772"/>
      <point x="1024" y="835"/>
    </contour>
  </outline>
</glyph>
<glyph name="adjust" format="2">
  <advance width="1536"/>
  <unicode hex="F042"/>
  <note>
adjust
</note>
  <outline>
    <contour>
      <point x="768" y="96" type="line"/>
      <point x="468" y="96"/>
      <point x="224" y="340"/>
      <point x="224" y="640" type="curve" smooth="yes"/>
      <point x="224" y="940"/>
      <point x="468" y="1184"/>
      <point x="768" y="1184" type="curve"/>
    </contour>
    <contour>
      <point x="1536" y="640" type="curve" smooth="yes"/>
      <point x="1536" y="1064"/>
      <point x="1192" y="1408"/>
      <point x="768" y="1408" type="curve" smooth="yes"/>
      <point x="344" y="1408"/>
      <point x="0" y="1064"/>
      <point x="0" y="640" type="curve" smooth="yes"/>
      <point x="0" y="216"/>
      <point x="344" y="-128"/>
      <point x="768" y="-128" type="curve" smooth="yes"/>
      <point x="1192" y="-128"/>
      <point x="1536" y="216"/>
    </contour>
  </outline>
</glyph>
<glyph name="tint" format="2">
  <advance width="1024"/>
  <unicode hex="F043"/>
  <note>
tint
</note>
  <outline>
    <contour>
      <point x="512" y="384" type="curve" smooth="yes"/>
      <point x="512" y="313"/>
      <point x="455" y="256"/>
      <point x="384" y="256" type="curve" smooth="yes"/>
      <point x="313" y="256"/>
      <point x="256" y="313"/>
      <point x="256" y="384" type="curve" smooth="yes"/>
      <point x="256" y="409"/>
      <point x="264" y="433"/>
      <point x="276" y="453" type="curve" smooth="yes"/>
      <point x="289" y="473"/>
      <point x="342" y="541"/>
      <point x="363" y="608" type="curve" smooth="yes"/>
      <point x="366" y="619"/>
      <point x="376" y="624"/>
      <point x="384" y="624" type="curve" smooth="yes"/>
      <point x="392" y="624"/>
      <point x="402" y="619"/>
      <point x="405" y="608" type="curve" smooth="yes"/>
      <point x="426" y="541"/>
      <point x="479" y="473"/>
      <point x="492" y="453" type="curve" smooth="yes"/>
      <point x="504" y="433"/>
      <point x="512" y="409"/>
    </contour>
    <contour>
      <point x="1024" y="512" type="curve" smooth="yes"/>
      <point x="1024" y="613"/>
      <point x="994" y="707"/>
      <point x="943" y="787" type="curve" smooth="yes"/>
      <point x="892" y="867"/>
      <point x="678" y="1138"/>
      <point x="597" y="1408" type="curve" smooth="yes"/>
      <point x="585" y="1451"/>
      <point x="544" y="1472"/>
      <point x="512" y="1472" type="curve" smooth="yes"/>
      <point x="480" y="1472"/>
      <point x="440" y="1451"/>
      <point x="427" y="1408" type="curve" smooth="yes"/>
      <point x="346" y="1138"/>
      <point x="132" y="867"/>
      <point x="81" y="787" type="curve" smooth="yes"/>
      <point x="31" y="707"/>
      <point x="0" y="613"/>
      <point x="0" y="512" type="curve" smooth="yes"/>
      <point x="0" y="229"/>
      <point x="229" y="0"/>
      <point x="512" y="0" type="curve" smooth="yes"/>
      <point x="795" y="0"/>
      <point x="1024" y="229"/>
    </contour>
  </outline>
</glyph>
<glyph name="edit" format="2">
  <advance width="1792"/>
  <unicode hex="F044"/>
  <note>
edit
</note>
  <outline>
    <contour>
      <point x="1004" y="468" type="line"/>
      <point x="888" y="352" type="line"/>
      <point x="832" y="352" type="line"/>
      <point x="832" y="448" type="line"/>
      <point x="736" y="448" type="line"/>
      <point x="736" y="504" type="line"/>
      <point x="852" y="620" type="line"/>
    </contour>
    <contour>
      <point x="1328" y="1072" type="curve" smooth="yes"/>
      <point x="1337" y="1063"/>
      <point x="1336" y="1048"/>
      <point x="1327" y="1039" type="curve" smooth="yes"/>
      <point x="977" y="689" type="line" smooth="yes"/>
      <point x="968" y="680"/>
      <point x="953" y="679"/>
      <point x="944" y="688" type="curve" smooth="yes"/>
      <point x="935" y="697"/>
      <point x="936" y="712"/>
      <point x="945" y="721" type="curve" smooth="yes"/>
      <point x="1295" y="1071" type="line" smooth="yes"/>
      <point x="1304" y="1080"/>
      <point x="1319" y="1081"/>
    </contour>
    <contour>
      <point x="1408" y="288" type="curve" smooth="yes"/>
      <point x="1408" y="478" type="line" smooth="yes"/>
      <point x="1408" y="491"/>
      <point x="1400" y="502"/>
      <point x="1388" y="507" type="curve" smooth="yes"/>
      <point x="1376" y="512"/>
      <point x="1363" y="510"/>
      <point x="1353" y="500" type="curve" smooth="yes"/>
      <point x="1289" y="436" type="line" smooth="yes"/>
      <point x="1283" y="430"/>
      <point x="1280" y="422"/>
      <point x="1280" y="414" type="curve" smooth="yes"/>
      <point x="1280" y="288" type="line" smooth="yes"/>
      <point x="1280" y="200"/>
      <point x="1208" y="128"/>
      <point x="1120" y="128" type="curve" smooth="yes"/>
      <point x="288" y="128" type="line" smooth="yes"/>
      <point x="200" y="128"/>
      <point x="128" y="200"/>
      <point x="128" y="288" type="curve" smooth="yes"/>
      <point x="128" y="1120" type="line" smooth="yes"/>
      <point x="128" y="1208"/>
      <point x="200" y="1280"/>
      <point x="288" y="1280" type="curve" smooth="yes"/>
      <point x="1120" y="1280" type="line" smooth="yes"/>
      <point x="1135" y="1280"/>
      <point x="1150" y="1278"/>
      <point x="1165" y="1274" type="curve" smooth="yes"/>
      <point x="1176" y="1270"/>
      <point x="1188" y="1273"/>
      <point x="1197" y="1282" type="curve" smooth="yes"/>
      <point x="1246" y="1331" type="line" smooth="yes"/>
      <point x="1254" y="1339"/>
      <point x="1257" y="1349"/>
      <point x="1255" y="1360" type="curve" smooth="yes"/>
      <point x="1253" y="1370"/>
      <point x="1246" y="1379"/>
      <point x="1237" y="1383" type="curve" smooth="yes"/>
      <point x="1200" y="1400"/>
      <point x="1160" y="1408"/>
      <point x="1120" y="1408" type="curve" smooth="yes"/>
      <point x="288" y="1408" type="line" smooth="yes"/>
      <point x="129" y="1408"/>
      <point x="0" y="1279"/>
      <point x="0" y="1120" type="curve" smooth="yes"/>
      <point x="0" y="288" type="line" smooth="yes"/>
      <point x="0" y="129"/>
      <point x="129" y="0"/>
      <point x="288" y="0" type="curve" smooth="yes"/>
      <point x="1120" y="0" type="line" smooth="yes"/>
      <point x="1279" y="0"/>
      <point x="1408" y="129"/>
    </contour>
    <contour>
      <point x="1600" y="928" type="line"/>
      <point x="1312" y="1216" type="line"/>
      <point x="640" y="544" type="line"/>
      <point x="640" y="256" type="line"/>
      <point x="928" y="256" type="line"/>
    </contour>
    <contour>
      <point x="1756" y="1084" type="line" smooth="yes"/>
      <point x="1793" y="1121"/>
      <point x="1793" y="1183"/>
      <point x="1756" y="1220" type="curve" smooth="yes"/>
      <point x="1604" y="1372" type="line" smooth="yes"/>
      <point x="1567" y="1409"/>
      <point x="1505" y="1409"/>
      <point x="1468" y="1372" type="curve" smooth="yes"/>
      <point x="1376" y="1280" type="line"/>
      <point x="1664" y="992" type="line"/>
    </contour>
  </outline>
</glyph>
<glyph name="share" format="2">
  <advance width="1664"/>
  <unicode hex="F045"/>
  <note>
share
</note>
  <outline>
    <contour>
      <point x="1408" y="288" type="curve" smooth="yes"/>
      <point x="1408" y="547" type="line" smooth="yes"/>
      <point x="1408" y="560"/>
      <point x="1399" y="571"/>
      <point x="1387" y="576" type="curve" smooth="yes"/>
      <point x="1375" y="581"/>
      <point x="1361" y="577"/>
      <point x="1352" y="568" type="curve" smooth="yes"/>
      <point x="1336" y="553"/>
      <point x="1318" y="540"/>
      <point x="1298" y="531" type="curve" smooth="yes"/>
      <point x="1287" y="525"/>
      <point x="1280" y="514"/>
      <point x="1280" y="502" type="curve" smooth="yes"/>
      <point x="1280" y="288" type="line" smooth="yes"/>
      <point x="1280" y="200"/>
      <point x="1208" y="128"/>
      <point x="1120" y="128" type="curve" smooth="yes"/>
      <point x="288" y="128" type="line" smooth="yes"/>
      <point x="200" y="128"/>
      <point x="128" y="200"/>
      <point x="128" y="288" type="curve" smooth="yes"/>
      <point x="128" y="1120" type="line" smooth="yes"/>
      <point x="128" y="1208"/>
      <point x="200" y="1280"/>
      <point x="288" y="1280" type="curve" smooth="yes"/>
      <point x="400" y="1280" type="line" smooth="yes"/>
      <point x="406" y="1280"/>
      <point x="411" y="1282"/>
      <point x="416" y="1284" type="curve"/>
      <point x="454" y="1307"/>
      <point x="499" y="1327"/>
      <point x="549" y="1344" type="curve"/>
      <point x="564" y="1347"/>
      <point x="575" y="1360"/>
      <point x="575" y="1376" type="curve" smooth="yes"/>
      <point x="575" y="1394"/>
      <point x="560" y="1408"/>
      <point x="543" y="1408" type="curve"/>
      <point x="543" y="1408"/>
      <point x="543" y="1408"/>
      <point x="543" y="1408" type="curve"/>
      <point x="543" y="1408"/>
      <point x="543" y="1408"/>
      <point x="543" y="1408" type="curve"/>
      <point x="288" y="1408" type="line" smooth="yes"/>
      <point x="129" y="1408"/>
      <point x="0" y="1279"/>
      <point x="0" y="1120" type="curve" smooth="yes"/>
      <point x="0" y="288" type="line" smooth="yes"/>
      <point x="0" y="129"/>
      <point x="129" y="0"/>
      <point x="288" y="0" type="curve" smooth="yes"/>
      <point x="1120" y="0" type="line" smooth="yes"/>
      <point x="1279" y="0"/>
      <point x="1408" y="129"/>
    </contour>
    <contour>
      <point x="1645" y="1043" type="line" smooth="yes"/>
      <point x="1670" y="1068"/>
      <point x="1670" y="1108"/>
      <point x="1645" y="1133" type="curve" smooth="yes"/>
      <point x="1261" y="1517" type="line" smooth="yes"/>
      <point x="1249" y="1529"/>
      <point x="1233" y="1536"/>
      <point x="1216" y="1536" type="curve" smooth="yes"/>
      <point x="1208" y="1536"/>
      <point x="1199" y="1534"/>
      <point x="1191" y="1531" type="curve" smooth="yes"/>
      <point x="1168" y="1521"/>
      <point x="1152" y="1498"/>
      <point x="1152" y="1472" type="curve" smooth="yes"/>
      <point x="1152" y="1280" type="line"/>
      <point x="992" y="1280" type="line" smooth="yes"/>
      <point x="340" y="1280"/>
      <point x="256" y="972"/>
      <point x="256" y="704" type="curve" smooth="yes"/>
      <point x="256" y="504"/>
      <point x="415" y="279"/>
      <point x="422" y="269" type="curve" smooth="yes"/>
      <point x="428" y="261"/>
      <point x="438" y="256"/>
      <point x="448" y="256" type="curve" smooth="yes"/>
      <point x="452" y="256"/>
      <point x="456" y="257"/>
      <point x="460" y="258" type="curve"/>
      <point x="473" y="264"/>
      <point x="482" y="278"/>
      <point x="480" y="292" type="curve" smooth="yes"/>
      <point x="449" y="522"/>
      <point x="473" y="672"/>
      <point x="554" y="765" type="curve" smooth="yes"/>
      <point x="632" y="854"/>
      <point x="772" y="896"/>
      <point x="992" y="896" type="curve" smooth="yes"/>
      <point x="1152" y="896" type="line"/>
      <point x="1152" y="704" type="line" smooth="yes"/>
      <point x="1152" y="678"/>
      <point x="1168" y="655"/>
      <point x="1191" y="645" type="curve" smooth="yes"/>
      <point x="1199" y="642"/>
      <point x="1208" y="640"/>
      <point x="1216" y="640" type="curve" smooth="yes"/>
      <point x="1233" y="640"/>
      <point x="1249" y="646"/>
      <point x="1261" y="659" type="curve" smooth="yes"/>
    </contour>
  </outline>
</glyph>
<glyph name="check" format="2">
  <advance width="1664"/>
  <unicode hex="F046"/>
  <note>
check
</note>
  <outline>
    <contour>
      <point x="1408" y="288" type="curve" smooth="yes"/>
      <point x="1408" y="606" type="line" smooth="yes"/>
      <point x="1408" y="619"/>
      <point x="1400" y="630"/>
      <point x="1388" y="635" type="curve" smooth="yes"/>
      <point x="1384" y="637"/>
      <point x="1380" y="638"/>
      <point x="1376" y="638" type="curve" smooth="yes"/>
      <point x="1368" y="638"/>
      <point x="1360" y="635"/>
      <point x="1353" y="628" type="curve" smooth="yes"/>
      <point x="1289" y="564" type="line" smooth="yes"/>
      <point x="1283" y="558"/>
      <point x="1280" y="550"/>
      <point x="1280" y="542" type="curve" smooth="yes"/>
      <point x="1280" y="288" type="line" smooth="yes"/>
      <point x="1280" y="200"/>
      <point x="1208" y="128"/>
      <point x="1120" y="128" type="curve" smooth="yes"/>
      <point x="288" y="128" type="line" smooth="yes"/>
      <point x="200" y="128"/>
      <point x="128" y="200"/>
      <point x="128" y="288" type="curve" smooth="yes"/>
      <point x="128" y="1120" type="line" smooth="yes"/>
      <point x="128" y="1208"/>
      <point x="200" y="1280"/>
      <point x="288" y="1280" type="curve" smooth="yes"/>
      <point x="1120" y="1280" type="line" smooth="yes"/>
      <point x="1135" y="1280"/>
      <point x="1150" y="1278"/>
      <point x="1165" y="1274" type="curve" smooth="yes"/>
      <point x="1168" y="1273"/>
      <point x="1171" y="1272"/>
      <point x="1174" y="1272" type="curve" smooth="yes"/>
      <point x="1182" y="1272"/>
      <point x="1191" y="1276"/>
      <point x="1197" y="1282" type="curve" smooth="yes"/>
      <point x="1246" y="1331" type="line" smooth="yes"/>
      <point x="1254" y="1339"/>
      <point x="1257" y="1349"/>
      <point x="1255" y="1360" type="curve" smooth="yes"/>
      <point x="1253" y="1370"/>
      <point x="1246" y="1379"/>
      <point x="1237" y="1383" type="curve" smooth="yes"/>
      <point x="1200" y="1400"/>
      <point x="1160" y="1408"/>
      <point x="1120" y="1408" type="curve" smooth="yes"/>
      <point x="288" y="1408" type="line" smooth="yes"/>
      <point x="129" y="1408"/>
      <point x="0" y="1279"/>
      <point x="0" y="1120" type="curve" smooth="yes"/>
      <point x="0" y="288" type="line" smooth="yes"/>
      <point x="0" y="129"/>
      <point x="129" y="0"/>
      <point x="288" y="0" type="curve" smooth="yes"/>
      <point x="1120" y="0" type="line" smooth="yes"/>
      <point x="1279" y="0"/>
      <point x="1408" y="129"/>
    </contour>
    <contour>
      <point x="1639" y="1095" type="line" smooth="yes"/>
      <point x="1671" y="1127"/>
      <point x="1671" y="1177"/>
      <point x="1639" y="1209" type="curve" smooth="yes"/>
      <point x="1529" y="1319" type="line" smooth="yes"/>
      <point x="1497" y="1351"/>
      <point x="1447" y="1351"/>
      <point x="1415" y="1319" type="curve" smooth="yes"/>
      <point x="768" y="672" type="line"/>
      <point x="505" y="935" type="line" smooth="yes"/>
      <point x="473" y="967"/>
      <point x="423" y="967"/>
      <point x="391" y="935" type="curve" smooth="yes"/>
      <point x="281" y="825" type="line" smooth="yes"/>
      <point x="249" y="793"/>
      <point x="249" y="743"/>
      <point x="281" y="711" type="curve" smooth="yes"/>
      <point x="711" y="281" type="line" smooth="yes"/>
      <point x="743" y="249"/>
      <point x="793" y="249"/>
      <point x="825" y="281" type="curve" smooth="yes"/>
    </contour>
  </outline>
</glyph>
<glyph name="move" format="2">
  <advance width="1792"/>
  <unicode hex="F047"/>
  <note>
move
</note>
  <outline>
    <contour>
      <point x="1792" y="640" type="curve" smooth="yes"/>
      <point x="1792" y="657"/>
      <point x="1785" y="673"/>
      <point x="1773" y="685" type="curve" smooth="yes"/>
      <point x="1517" y="941" type="line" smooth="yes"/>
      <point x="1505" y="953"/>
      <point x="1489" y="960"/>
      <point x="1472" y="960" type="curve" smooth="yes"/>
      <point x="1437" y="960"/>
      <point x="1408" y="931"/>
      <point x="1408" y="896" type="curve" smooth="yes"/>
      <point x="1408" y="768" type="line"/>
      <point x="1024" y="768" type="line"/>
      <point x="1024" y="1152" type="line"/>
      <point x="1152" y="1152" type="line" smooth="yes"/>
      <point x="1187" y="1152"/>
      <point x="1216" y="1181"/>
      <point x="1216" y="1216" type="curve" smooth="yes"/>
      <point x="1216" y="1233"/>
      <point x="1209" y="1249"/>
      <point x="1197" y="1261" type="curve" smooth="yes"/>
      <point x="941" y="1517" type="line" smooth="yes"/>
      <point x="929" y="1529"/>
      <point x="913" y="1536"/>
      <point x="896" y="1536" type="curve" smooth="yes"/>
      <point x="879" y="1536"/>
      <point x="863" y="1529"/>
      <point x="851" y="1517" type="curve" smooth="yes"/>
      <point x="595" y="1261" type="line" smooth="yes"/>
      <point x="583" y="1249"/>
      <point x="576" y="1233"/>
      <point x="576" y="1216" type="curve" smooth="yes"/>
      <point x="576" y="1181"/>
      <point x="605" y="1152"/>
      <point x="640" y="1152" type="curve" smooth="yes"/>
      <point x="768" y="1152" type="line"/>
      <point x="768" y="768" type="line"/>
      <point x="384" y="768" type="line"/>
      <point x="384" y="896" type="line" smooth="yes"/>
      <point x="384" y="931"/>
      <point x="355" y="960"/>
      <point x="320" y="960" type="curve" smooth="yes"/>
      <point x="303" y="960"/>
      <point x="287" y="953"/>
      <point x="275" y="941" type="curve" smooth="yes"/>
      <point x="19" y="685" type="line" smooth="yes"/>
      <point x="7" y="673"/>
      <point x="0" y="657"/>
      <point x="0" y="640" type="curve" smooth="yes"/>
      <point x="0" y="623"/>
      <point x="7" y="607"/>
      <point x="19" y="595" type="curve" smooth="yes"/>
      <point x="275" y="339" type="line" smooth="yes"/>
      <point x="287" y="327"/>
      <point x="303" y="320"/>
      <point x="320" y="320" type="curve" smooth="yes"/>
      <point x="355" y="320"/>
      <point x="384" y="349"/>
      <point x="384" y="384" type="curve" smooth="yes"/>
      <point x="384" y="512" type="line"/>
      <point x="768" y="512" type="line"/>
      <point x="768" y="128" type="line"/>
      <point x="640" y="128" type="line" smooth="yes"/>
      <point x="605" y="128"/>
      <point x="576" y="99"/>
      <point x="576" y="64" type="curve" smooth="yes"/>
      <point x="576" y="47"/>
      <point x="583" y="31"/>
      <point x="595" y="19" type="curve" smooth="yes"/>
      <point x="851" y="-237" type="line" smooth="yes"/>
      <point x="863" y="-249"/>
      <point x="879" y="-256"/>
      <point x="896" y="-256" type="curve" smooth="yes"/>
      <point x="913" y="-256"/>
      <point x="929" y="-249"/>
      <point x="941" y="-237" type="curve" smooth="yes"/>
      <point x="1197" y="19" type="line" smooth="yes"/>
      <point x="1209" y="31"/>
      <point x="1216" y="47"/>
      <point x="1216" y="64" type="curve" smooth="yes"/>
      <point x="1216" y="99"/>
      <point x="1187" y="128"/>
      <point x="1152" y="128" type="curve" smooth="yes"/>
      <point x="1024" y="128" type="line"/>
      <point x="1024" y="512" type="line"/>
      <point x="1408" y="512" type="line"/>
      <point x="1408" y="384" type="line" smooth="yes"/>
      <point x="1408" y="349"/>
      <point x="1437" y="320"/>
      <point x="1472" y="320" type="curve" smooth="yes"/>
      <point x="1489" y="320"/>
      <point x="1505" y="327"/>
      <point x="1517" y="339" type="curve" smooth="yes"/>
      <point x="1773" y="595" type="line" smooth="yes"/>
      <point x="1785" y="607"/>
      <point x="1792" y="623"/>
    </contour>
  </outline>
</glyph>
<glyph name="step_backward" format="2">
  <advance width="1024"/>
  <unicode hex="F048"/>
  <note>
step_backward
</note>
  <outline>
    <contour>
      <point x="979" y="1395" type="curve" smooth="yes"/>
      <point x="269" y="685" type="line" smooth="yes"/>
      <point x="263" y="679"/>
      <point x="259" y="673"/>
      <point x="256" y="666" type="curve"/>
      <point x="256" y="1344" type="line" smooth="yes"/>
      <point x="256" y="1379"/>
      <point x="227" y="1408"/>
      <point x="192" y="1408" type="curve" smooth="yes"/>
      <point x="64" y="1408" type="line" smooth="yes"/>
      <point x="29" y="1408"/>
      <point x="0" y="1379"/>
      <point x="0" y="1344" type="curve" smooth="yes"/>
      <point x="0" y="-64" type="line" smooth="yes"/>
      <point x="0" y="-99"/>
      <point x="29" y="-128"/>
      <point x="64" y="-128" type="curve" smooth="yes"/>
      <point x="192" y="-128" type="line" smooth="yes"/>
      <point x="227" y="-128"/>
      <point x="256" y="-99"/>
      <point x="256" y="-64" type="curve" smooth="yes"/>
      <point x="256" y="614" type="line"/>
      <point x="259" y="607"/>
      <point x="263" y="601"/>
      <point x="269" y="595" type="curve" smooth="yes"/>
      <point x="979" y="-115" type="line" smooth="yes"/>
      <point x="1004" y="-140"/>
      <point x="1024" y="-131"/>
      <point x="1024" y="-96" type="curve" smooth="yes"/>
      <point x="1024" y="1376" type="line" smooth="yes"/>
      <point x="1024" y="1411"/>
      <point x="1004" y="1420"/>
    </contour>
  </outline>
</glyph>
<glyph name="backward" format="2">
  <advance width="1664"/>
  <unicode hex="F04A"/>
  <note>
backward
</note>
  <outline>
    <contour>
      <point x="1619" y="1395" type="curve" smooth="yes"/>
      <point x="909" y="685" type="line" smooth="yes"/>
      <point x="903" y="679"/>
      <point x="899" y="673"/>
      <point x="896" y="666" type="curve"/>
      <point x="896" y="1376" type="line" smooth="yes"/>
      <point x="896" y="1411"/>
      <point x="876" y="1420"/>
      <point x="851" y="1395" type="curve" smooth="yes"/>
      <point x="141" y="685" type="line" smooth="yes"/>
      <point x="116" y="660"/>
      <point x="116" y="620"/>
      <point x="141" y="595" type="curve" smooth="yes"/>
      <point x="851" y="-115" type="line" smooth="yes"/>
      <point x="876" y="-140"/>
      <point x="896" y="-131"/>
      <point x="896" y="-96" type="curve" smooth="yes"/>
      <point x="896" y="614" type="line"/>
      <point x="899" y="607"/>
      <point x="903" y="601"/>
      <point x="909" y="595" type="curve" smooth="yes"/>
      <point x="1619" y="-115" type="line" smooth="yes"/>
      <point x="1644" y="-140"/>
      <point x="1664" y="-131"/>
      <point x="1664" y="-96" type="curve" smooth="yes"/>
      <point x="1664" y="1376" type="line" smooth="yes"/>
      <point x="1664" y="1411"/>
      <point x="1644" y="1420"/>
    </contour>
  </outline>
</glyph>
<glyph name="play" format="2">
  <advance width="1408"/>
  <unicode hex="F04B"/>
  <note>
play
</note>
  <outline>
    <contour>
      <point x="56" y="-129" type="curve" smooth="yes"/>
      <point x="1384" y="609" type="line" smooth="yes"/>
      <point x="1415" y="626"/>
      <point x="1415" y="654"/>
      <point x="1384" y="671" type="curve" smooth="yes"/>
      <point x="56" y="1409" type="line" smooth="yes"/>
      <point x="25" y="1426"/>
      <point x="0" y="1411"/>
      <point x="0" y="1376" type="curve" smooth="yes"/>
      <point x="0" y="-96" type="line" smooth="yes"/>
      <point x="0" y="-131"/>
      <point x="25" y="-146"/>
    </contour>
  </outline>
</glyph>
<glyph name="pause" format="2">
  <advance width="1536"/>
  <unicode hex="F04C"/>
  <note>
pause
</note>
  <outline>
    <contour>
      <point x="1536" y="-64" type="curve" smooth="yes"/>
      <point x="1536" y="1344" type="line" smooth="yes"/>
      <point x="1536" y="1379"/>
      <point x="1507" y="1408"/>
      <point x="1472" y="1408" type="curve" smooth="yes"/>
      <point x="960" y="1408" type="line" smooth="yes"/>
      <point x="925" y="1408"/>
      <point x="896" y="1379"/>
      <point x="896" y="1344" type="curve" smooth="yes"/>
      <point x="896" y="-64" type="line" smooth="yes"/>
      <point x="896" y="-99"/>
      <point x="925" y="-128"/>
      <point x="960" y="-128" type="curve" smooth="yes"/>
      <point x="1472" y="-128" type="line" smooth="yes"/>
      <point x="1507" y="-128"/>
      <point x="1536" y="-99"/>
    </contour>
    <contour>
      <point x="640" y="-64" type="curve" smooth="yes"/>
      <point x="640" y="1344" type="line" smooth="yes"/>
      <point x="640" y="1379"/>
      <point x="611" y="1408"/>
      <point x="576" y="1408" type="curve" smooth="yes"/>
      <point x="64" y="1408" type="line" smooth="yes"/>
      <point x="29" y="1408"/>
      <point x="0" y="1379"/>
      <point x="0" y="1344" type="curve" smooth="yes"/>
      <point x="0" y="-64" type="line" smooth="yes"/>
      <point x="0" y="-99"/>
      <point x="29" y="-128"/>
      <point x="64" y="-128" type="curve" smooth="yes"/>
      <point x="576" y="-128" type="line" smooth="yes"/>
      <point x="611" y="-128"/>
      <point x="640" y="-99"/>
    </contour>
  </outline>
</glyph>
